<svg width="1409" height="899" viewBox="0 0 1409 899" fill="none" xmlns="http://www.w3.org/2000/svg">
<mask id="mask0_388_71" style="mask-type:alpha" maskUnits="userSpaceOnUse" x="0" y="0" width="1409" height="899">
<rect width="1409" height="899" rx="87" fill="#1929FE"/>
</mask>
<g mask="url(#mask0_388_71)">
<rect width="1409" height="899" rx="87" fill="#1929FE"/>
<path d="M153.747 287.129C115.237 287.129 86.1384 278.09 66.4501 260.012C46.7619 241.933 36.9178 215.187 36.9178 179.773V128.88C36.9178 93.7139 46.7619 67.1533 66.4501 49.1986C86.1384 31.2439 115.237 22.2665 153.747 22.2665C191.514 22.2665 220.241 30.9343 239.93 48.2699C259.618 65.4816 269.896 90.9897 270.762 124.794V148.94L158.948 149.126V114.393C158.948 110.802 157.152 109.006 153.561 109.006C149.97 109.006 148.175 110.802 148.175 114.393V194.074C148.175 197.665 149.97 199.461 153.561 199.461C157.152 199.461 158.948 197.665 158.948 194.074V160.27H270.762V184.23C269.772 218.159 259.37 243.79 239.558 261.126C219.87 278.462 191.266 287.129 153.747 287.129ZM279.121 28.3959H384.434V121.265H394.836V28.3959H500.521V281H394.836V190.36H384.434V281H279.121V28.3959ZM623.851 281L619.95 203.361H612.707V281H510.179V28.3959H613.821C638.338 28.3959 658.46 30.3771 674.186 34.3395C690.036 38.1781 702.48 45.7934 711.519 57.1853C720.559 68.4534 725.078 84.8603 725.078 106.406V135.381C725.078 156.927 718.639 173.148 705.761 184.045L725.821 281H623.851ZM617.164 147.826C619.641 147.826 621.312 147.206 622.179 145.968C623.17 144.606 623.665 142.068 623.665 138.353V109.564C623.665 105.725 623.232 103.187 622.365 101.948C621.498 100.586 619.579 99.9051 616.607 99.9051H612.892V147.826H617.164ZM733.808 28.3959H842.093V281H733.808V28.3959ZM959.109 287.501C887.537 287.501 851.628 263.045 851.38 214.134V197.232H947.964V215.249C947.964 216.611 948.336 217.849 949.079 218.963C949.945 220.078 951.369 220.635 953.351 220.635C955.084 220.635 956.384 220.078 957.251 218.963C958.242 217.849 958.737 216.611 958.737 215.249C958.737 212.772 958.428 210.358 957.808 208.005C957.189 205.528 956.261 203.485 955.022 201.875C952.298 198.408 948.46 195.375 943.507 192.774C938.677 190.174 931.557 186.831 922.147 182.744C907.907 176.677 896.081 170.795 886.671 165.099C877.26 159.279 869.149 151.045 862.339 140.396C855.528 129.747 852.123 116.188 852.123 99.7194V96.1904C852.866 69.9393 861.41 51.056 877.755 39.5402C894.1 28.0244 918.246 22.2665 950.193 22.2665C973.348 22.2665 992.541 25.3002 1007.77 31.3677C1023.13 37.4351 1034.52 45.9791 1041.95 56.9996C1049.38 67.8962 1053.15 80.7122 1053.28 95.4474V108.078H960.409V94.1472C960.409 92.7852 959.913 91.6088 958.923 90.6182C957.932 89.6276 956.632 89.1323 955.022 89.1323C953.413 89.1323 952.112 89.6895 951.122 90.804C950.131 91.7946 949.636 93.0328 949.636 94.5187C949.636 96.2523 950.069 98.2335 950.936 100.462C951.927 102.567 953.103 104.177 954.465 105.292C956.694 107.397 959.79 109.378 963.752 111.235C967.714 112.969 973.039 115.012 979.726 117.365C994.956 123.061 1007.77 129.004 1018.17 135.195C1028.57 141.263 1037.68 150.797 1045.48 163.799C1053.4 176.801 1057.36 194.013 1057.36 215.434V219.892C1056.87 234.751 1052.41 247.258 1043.99 257.411C1035.57 267.565 1024.06 275.118 1009.44 280.071C994.956 285.024 978.178 287.501 959.109 287.501ZM1064.98 127.023C1070.55 117.612 1074.76 109.316 1077.61 102.134C1080.46 94.9521 1081.88 87.2749 1081.88 79.1024H1067.02L1066.84 20.2234H1155.99V71.6729C1155.99 92.3518 1150.3 110.802 1138.9 127.023H1064.98ZM1273.01 287.501C1201.44 287.501 1165.53 263.045 1165.28 214.134V197.232H1261.86V215.249C1261.86 216.611 1262.23 217.849 1262.98 218.963C1263.84 220.078 1265.27 220.635 1267.25 220.635C1268.98 220.635 1270.28 220.078 1271.15 218.963C1272.14 217.849 1272.63 216.611 1272.63 215.249C1272.63 212.772 1272.33 210.358 1271.71 208.005C1271.09 205.528 1270.16 203.485 1268.92 201.875C1266.2 198.408 1262.36 195.375 1257.4 192.774C1252.58 190.174 1245.46 186.831 1236.04 182.744C1221.8 176.677 1209.98 170.795 1200.57 165.099C1191.16 159.279 1183.05 151.045 1176.24 140.396C1169.43 129.747 1166.02 116.188 1166.02 99.7194V96.1904C1166.76 69.9393 1175.31 51.056 1191.65 39.5402C1208 28.0244 1232.14 22.2665 1264.09 22.2665C1287.25 22.2665 1306.44 25.3002 1321.67 31.3677C1337.02 37.4351 1348.42 45.9791 1355.85 56.9996C1363.28 67.8962 1367.05 80.7122 1367.18 95.4474V108.078H1274.31V94.1472C1274.31 92.7852 1273.81 91.6088 1272.82 90.6182C1271.83 89.6276 1270.53 89.1323 1268.92 89.1323C1267.31 89.1323 1266.01 89.6895 1265.02 90.804C1264.03 91.7946 1263.53 93.0328 1263.53 94.5187C1263.53 96.2523 1263.97 98.2335 1264.83 100.462C1265.82 102.567 1267 104.177 1268.36 105.292C1270.59 107.397 1273.69 109.378 1277.65 111.235C1281.61 112.969 1286.94 115.012 1293.62 117.365C1308.85 123.061 1321.67 129.004 1332.07 135.195C1342.47 141.263 1351.57 150.797 1359.37 163.799C1367.3 176.801 1371.26 194.013 1371.26 215.434V219.892C1370.77 234.751 1366.31 247.258 1357.89 257.411C1349.47 267.565 1337.95 275.118 1323.34 280.071C1308.85 285.024 1292.08 287.501 1273.01 287.501Z" fill="white"/>
<path d="M66.0173 312.586H140.04C157.551 312.586 171.922 314.001 183.154 316.831C194.474 319.573 203.362 325.011 209.818 333.148C216.274 341.196 219.502 352.914 219.502 368.302V395.895C219.325 410.487 216.009 421.763 209.553 429.722C203.185 437.682 194.739 443.077 184.215 445.907C173.691 448.648 160.823 450.019 145.612 450.019H143.357V493H66.0173V312.586ZM142.428 404.65C144.197 404.65 145.391 404.208 146.01 403.324C146.717 402.351 147.071 400.582 147.071 398.017V370.557C147.071 367.816 146.761 366.003 146.142 365.118C145.523 364.145 144.152 363.659 142.03 363.659H139.377V404.65H142.428ZM224.145 384.088C224.145 359.06 231.176 340.179 245.237 327.444C259.299 314.62 280.126 308.208 307.719 308.208C335.312 308.208 356.139 314.62 370.201 327.444C384.262 340.267 391.293 359.237 391.293 384.354V420.702C391.293 445.995 384.262 465.098 370.201 478.01C356.139 490.922 335.312 497.378 307.719 497.378C280.215 497.378 259.432 490.922 245.37 478.01C231.397 465.098 224.322 445.995 224.145 420.702V384.088ZM304.005 430.916C304.005 433.481 305.243 434.763 307.719 434.763C310.195 434.763 311.433 433.481 311.433 430.916V374.006C311.433 371.442 310.195 370.159 307.719 370.159C305.243 370.159 304.005 371.442 304.005 374.006V430.916ZM478.317 493L475.531 437.549H470.357V493H397.13V312.586H471.153C488.664 312.586 503.035 314.001 514.267 316.831C525.587 319.573 534.475 325.011 540.931 333.148C547.387 341.196 550.615 352.914 550.615 368.302V388.997C550.615 404.385 546.016 415.97 536.818 423.753L551.145 493H478.317ZM473.541 397.885C475.31 397.885 476.504 397.442 477.123 396.558C477.83 395.585 478.184 393.772 478.184 391.119V370.557C478.184 367.816 477.874 366.003 477.255 365.118C476.636 364.145 475.265 363.659 473.143 363.659H470.49V397.885H473.541ZM579.401 367.639H554.727V312.586H680.752V367.639H656.343V493H579.401V367.639ZM685.527 312.586H804.521V362.73H762.734V387.272H796.296V436.488H762.734V492.867L685.527 493V312.586ZM806.511 384.088C806.511 359.06 813.542 340.179 827.604 327.444C841.665 314.62 862.492 308.208 890.085 308.208C917.678 308.208 938.505 314.62 952.567 327.444C966.629 340.267 973.659 359.237 973.659 384.354V420.702C973.659 445.995 966.629 465.098 952.567 478.01C938.505 490.922 917.678 497.378 890.085 497.378C862.581 497.378 841.798 490.922 827.736 478.01C813.763 465.098 806.688 445.995 806.511 420.702V384.088ZM886.371 430.916C886.371 433.481 887.609 434.763 890.085 434.763C892.561 434.763 893.8 433.481 893.8 430.916V374.006C893.8 371.442 892.561 370.159 890.085 370.159C887.609 370.159 886.371 371.442 886.371 374.006V430.916ZM979.496 312.586H1056.84V439.539H1089.34V493H979.496V312.586ZM1095.17 312.586H1172.51V493H1095.17V312.586ZM1178.48 384.088C1178.48 359.06 1185.51 340.179 1199.58 327.444C1213.64 314.62 1234.46 308.208 1262.06 308.208C1289.65 308.208 1310.48 314.62 1324.54 327.444C1338.6 340.267 1345.63 359.237 1345.63 384.354V420.702C1345.63 445.995 1338.6 465.098 1324.54 478.01C1310.48 490.922 1289.65 497.378 1262.06 497.378C1234.55 497.378 1213.77 490.922 1199.71 478.01C1185.73 465.098 1178.66 445.995 1178.48 420.702V384.088ZM1258.34 430.916C1258.34 433.481 1259.58 434.763 1262.06 434.763C1264.53 434.763 1265.77 433.481 1265.77 430.916V374.006C1265.77 371.442 1264.53 370.159 1262.06 370.159C1259.58 370.159 1258.34 371.442 1258.34 374.006V430.916Z" fill="white"/>
<path d="M153.747 785.129C115.237 785.129 86.1384 776.09 66.4501 758.012C46.7619 739.933 36.9178 713.187 36.9178 677.773V626.88C36.9178 591.714 46.7619 565.153 66.4501 547.199C86.1384 529.244 115.237 520.267 153.747 520.267C191.514 520.267 220.241 528.934 239.93 546.27C259.618 563.482 269.896 588.99 270.762 622.794V646.94L158.948 647.126V612.393C158.948 608.802 157.152 607.006 153.561 607.006C149.97 607.006 148.175 608.802 148.175 612.393V692.074C148.175 695.665 149.97 697.461 153.561 697.461C157.152 697.461 158.948 695.665 158.948 692.074V658.27H270.762V682.23C269.772 716.159 259.37 741.79 239.558 759.126C219.87 776.462 191.266 785.129 153.747 785.129ZM279.121 526.396H384.434V619.265H394.836V526.396H500.521V779H394.836V688.36H384.434V779H279.121V526.396ZM623.851 779L619.95 701.361H612.707V779H510.179V526.396H613.821C638.338 526.396 658.46 528.377 674.186 532.34C690.036 536.178 702.48 543.793 711.519 555.185C720.559 566.453 725.078 582.86 725.078 604.406V633.381C725.078 654.927 718.639 671.148 705.761 682.045L725.821 779H623.851ZM617.164 645.826C619.641 645.826 621.312 645.206 622.179 643.968C623.17 642.606 623.665 640.068 623.665 636.353V607.564C623.665 603.725 623.232 601.187 622.365 599.948C621.498 598.586 619.579 597.905 616.607 597.905H612.892V645.826H617.164ZM733.808 526.396H842.093V779H733.808V526.396ZM959.109 785.501C887.537 785.501 851.628 761.045 851.38 712.134V695.232H947.964V713.249C947.964 714.611 948.336 715.849 949.079 716.963C949.945 718.078 951.369 718.635 953.351 718.635C955.084 718.635 956.384 718.078 957.251 716.963C958.242 715.849 958.737 714.611 958.737 713.249C958.737 710.772 958.428 708.358 957.808 706.005C957.189 703.528 956.261 701.485 955.022 699.875C952.298 696.408 948.46 693.375 943.507 690.774C938.677 688.174 931.557 684.831 922.147 680.744C907.907 674.677 896.081 668.795 886.671 663.099C877.26 657.279 869.149 649.045 862.339 638.396C855.528 627.747 852.123 614.188 852.123 597.719V594.19C852.866 567.939 861.41 549.056 877.755 537.54C894.1 526.024 918.246 520.267 950.193 520.267C973.348 520.267 992.541 523.3 1007.77 529.368C1023.13 535.435 1034.52 543.979 1041.95 555C1049.38 565.896 1053.15 578.712 1053.28 593.447V606.078H960.409V592.147C960.409 590.785 959.913 589.609 958.923 588.618C957.932 587.628 956.632 587.132 955.022 587.132C953.413 587.132 952.112 587.69 951.122 588.804C950.131 589.795 949.636 591.033 949.636 592.519C949.636 594.252 950.069 596.233 950.936 598.462C951.927 600.567 953.103 602.177 954.465 603.292C956.694 605.397 959.79 607.378 963.752 609.235C967.714 610.969 973.039 613.012 979.726 615.365C994.956 621.061 1007.77 627.004 1018.17 633.195C1028.57 639.263 1037.68 648.797 1045.48 661.799C1053.4 674.801 1057.36 692.013 1057.36 713.434V717.892C1056.87 732.751 1052.41 745.258 1043.99 755.411C1035.57 765.565 1024.06 773.118 1009.44 778.071C994.956 783.024 978.178 785.501 959.109 785.501ZM1064.98 625.023C1070.55 615.612 1074.76 607.316 1077.61 600.134C1080.46 592.952 1081.88 585.275 1081.88 577.102H1067.02L1066.84 518.223H1155.99V569.673C1155.99 590.352 1150.3 608.802 1138.9 625.023H1064.98ZM1273.01 785.501C1201.44 785.501 1165.53 761.045 1165.28 712.134V695.232H1261.86V713.249C1261.86 714.611 1262.23 715.849 1262.98 716.963C1263.84 718.078 1265.27 718.635 1267.25 718.635C1268.98 718.635 1270.28 718.078 1271.15 716.963C1272.14 715.849 1272.63 714.611 1272.63 713.249C1272.63 710.772 1272.33 708.358 1271.71 706.005C1271.09 703.528 1270.16 701.485 1268.92 699.875C1266.2 696.408 1262.36 693.375 1257.4 690.774C1252.58 688.174 1245.46 684.831 1236.04 680.744C1221.8 674.677 1209.98 668.795 1200.57 663.099C1191.16 657.279 1183.05 649.045 1176.24 638.396C1169.43 627.747 1166.02 614.188 1166.02 597.719V594.19C1166.76 567.939 1175.31 549.056 1191.65 537.54C1208 526.024 1232.14 520.267 1264.09 520.267C1287.25 520.267 1306.44 523.3 1321.67 529.368C1337.02 535.435 1348.42 543.979 1355.85 555C1363.28 565.896 1367.05 578.712 1367.18 593.447V606.078H1274.31V592.147C1274.31 590.785 1273.81 589.609 1272.82 588.618C1271.83 587.628 1270.53 587.132 1268.92 587.132C1267.31 587.132 1266.01 587.69 1265.02 588.804C1264.03 589.795 1263.53 591.033 1263.53 592.519C1263.53 594.252 1263.97 596.233 1264.83 598.462C1265.82 600.567 1267 602.177 1268.36 603.292C1270.59 605.397 1273.69 607.378 1277.65 609.235C1281.61 610.969 1286.94 613.012 1293.62 615.365C1308.85 621.061 1321.67 627.004 1332.07 633.195C1342.47 639.263 1351.57 648.797 1359.37 661.799C1367.3 674.801 1371.26 692.013 1371.26 713.434V717.892C1370.77 732.751 1366.31 745.258 1357.89 755.411C1349.47 765.565 1337.95 773.118 1323.34 778.071C1308.85 783.024 1292.08 785.501 1273.01 785.501Z" fill="white" fill-opacity="0.04"/>
<path d="M66.0173 810.586H140.04C157.551 810.586 171.922 812.001 183.154 814.831C194.474 817.573 203.362 823.011 209.818 831.148C216.274 839.196 219.502 850.914 219.502 866.302V893.895C219.325 908.487 216.009 919.763 209.553 927.722C203.185 935.682 194.739 941.077 184.215 943.907C173.691 946.648 160.823 948.019 145.612 948.019H143.357V991H66.0173V810.586ZM142.428 902.65C144.197 902.65 145.391 902.208 146.01 901.324C146.717 900.351 147.071 898.582 147.071 896.017V868.557C147.071 865.816 146.761 864.003 146.142 863.118C145.523 862.145 144.152 861.659 142.03 861.659H139.377V902.65H142.428ZM224.145 882.088C224.145 857.06 231.176 838.179 245.237 825.444C259.299 812.62 280.126 806.208 307.719 806.208C335.312 806.208 356.139 812.62 370.201 825.444C384.262 838.267 391.293 857.237 391.293 882.354V918.702C391.293 943.995 384.262 963.098 370.201 976.01C356.139 988.922 335.312 995.378 307.719 995.378C280.215 995.378 259.432 988.922 245.37 976.01C231.397 963.098 224.322 943.995 224.145 918.702V882.088ZM304.005 928.916C304.005 931.481 305.243 932.763 307.719 932.763C310.195 932.763 311.433 931.481 311.433 928.916V872.006C311.433 869.442 310.195 868.159 307.719 868.159C305.243 868.159 304.005 869.442 304.005 872.006V928.916ZM478.317 991L475.531 935.549H470.357V991H397.13V810.586H471.153C488.664 810.586 503.035 812.001 514.267 814.831C525.587 817.573 534.475 823.011 540.931 831.148C547.387 839.196 550.615 850.914 550.615 866.302V886.997C550.615 902.385 546.016 913.97 536.818 921.753L551.145 991H478.317ZM473.541 895.885C475.31 895.885 476.504 895.442 477.123 894.558C477.83 893.585 478.184 891.772 478.184 889.119V868.557C478.184 865.816 477.874 864.003 477.255 863.118C476.636 862.145 475.265 861.659 473.143 861.659H470.49V895.885H473.541ZM579.401 865.639H554.727V810.586H680.752V865.639H656.343V991H579.401V865.639ZM685.527 810.586H804.521V860.73H762.734V885.272H796.296V934.488H762.734V990.867L685.527 991V810.586ZM806.511 882.088C806.511 857.06 813.542 838.179 827.604 825.444C841.665 812.62 862.492 806.208 890.085 806.208C917.678 806.208 938.505 812.62 952.567 825.444C966.629 838.267 973.659 857.237 973.659 882.354V918.702C973.659 943.995 966.629 963.098 952.567 976.01C938.505 988.922 917.678 995.378 890.085 995.378C862.581 995.378 841.798 988.922 827.736 976.01C813.763 963.098 806.688 943.995 806.511 918.702V882.088ZM886.371 928.916C886.371 931.481 887.609 932.763 890.085 932.763C892.561 932.763 893.8 931.481 893.8 928.916V872.006C893.8 869.442 892.561 868.159 890.085 868.159C887.609 868.159 886.371 869.442 886.371 872.006V928.916ZM979.496 810.586H1056.84V937.539H1089.34V991H979.496V810.586ZM1095.17 810.586H1172.51V991H1095.17V810.586ZM1178.48 882.088C1178.48 857.06 1185.51 838.179 1199.58 825.444C1213.64 812.62 1234.46 806.208 1262.06 806.208C1289.65 806.208 1310.48 812.62 1324.54 825.444C1338.6 838.267 1345.63 857.237 1345.63 882.354V918.702C1345.63 943.995 1338.6 963.098 1324.54 976.01C1310.48 988.922 1289.65 995.378 1262.06 995.378C1234.55 995.378 1213.77 988.922 1199.71 976.01C1185.73 963.098 1178.66 943.995 1178.48 918.702V882.088ZM1258.34 928.916C1258.34 931.481 1259.58 932.763 1262.06 932.763C1264.53 932.763 1265.77 931.481 1265.77 928.916V872.006C1265.77 869.442 1264.53 868.159 1262.06 868.159C1259.58 868.159 1258.34 869.442 1258.34 872.006V928.916Z" fill="white" fill-opacity="0.04"/>
</g>
</svg>
