<svg width="393" height="850" viewBox="0 0 393 850" fill="none" xmlns="http://www.w3.org/2000/svg">
<mask id="mask0_366_2420" style="mask-type:alpha" maskUnits="userSpaceOnUse" x="-50" y="0" width="486" height="850">
<path d="M-50 0H436V850H-50V0Z" fill="#1929FE"/>
</mask>
<g mask="url(#mask0_366_2420)">
<path d="M-50 0H436V850H-50V0Z" fill="#1929FE"/>
<path d="M42.1142 95.7011C31.4266 95.7011 23.3508 93.1924 17.8868 88.1751C12.4227 83.1578 9.69068 75.7349 9.69068 65.9065V51.7824C9.69068 42.0227 12.4227 34.6513 17.8868 29.6684C23.3508 24.6854 31.4266 22.194 42.1142 22.194C52.5956 22.194 60.5683 24.5995 66.0324 29.4107C71.4964 34.1874 74.3487 41.2666 74.5893 50.6483V57.3495L43.5576 57.4011V47.7617C43.5576 46.7651 43.0593 46.2668 42.0627 46.2668C41.0661 46.2668 40.5678 46.7651 40.5678 47.7617V69.8756C40.5678 70.8722 41.0661 71.3705 42.0627 71.3705C43.0593 71.3705 43.5576 70.8722 43.5576 69.8756V60.494H74.5893V67.1436C74.3144 76.5597 71.4277 83.6733 65.9293 88.4844C60.4652 93.2955 52.5269 95.7011 42.1142 95.7011ZM76.909 23.895H106.137V49.6689H109.023V23.895H138.354V94H109.023V68.8447H106.137V94H76.909V23.895ZM172.582 94L171.499 72.453H169.489V94H141.034V23.895H169.798C176.602 23.895 182.187 24.4449 186.551 25.5446C190.95 26.6099 194.403 28.7234 196.912 31.885C199.421 35.0122 200.675 39.5656 200.675 45.5451V53.5866C200.675 59.5661 198.888 64.0679 195.314 67.0921L200.881 94H172.582ZM170.726 57.0403C171.413 57.0403 171.877 56.8684 172.118 56.5248C172.393 56.1468 172.53 55.4423 172.53 54.4113V46.4214C172.53 45.3561 172.41 44.6516 172.169 44.308C171.929 43.9299 171.396 43.7409 170.571 43.7409H169.54V57.0403H170.726ZM203.098 23.895H233.15V94H203.098V23.895ZM265.625 95.8042C245.762 95.8042 235.796 89.0171 235.728 75.4428V70.752H262.532V75.7521C262.532 76.1301 262.636 76.4738 262.842 76.783C263.082 77.0923 263.477 77.247 264.027 77.247C264.508 77.247 264.869 77.0923 265.11 76.783C265.385 76.4738 265.522 76.1301 265.522 75.7521C265.522 75.0648 265.436 74.3947 265.264 73.7417C265.093 73.0544 264.835 72.4874 264.491 72.0407C263.735 71.0784 262.67 70.2365 261.295 69.5148C259.955 68.7931 257.979 67.8653 255.367 66.7312C251.415 65.0473 248.133 63.415 245.522 61.8342C242.91 60.219 240.659 57.9338 238.769 54.9783C236.879 52.0229 235.934 48.26 235.934 43.6894V42.71C236.14 35.4246 238.511 30.1839 243.047 26.9879C247.584 23.792 254.285 22.194 263.151 22.194C269.577 22.194 274.904 23.0359 279.131 24.7198C283.392 26.4037 286.554 28.7749 288.616 31.8334C290.678 34.8575 291.726 38.4143 291.76 42.5038V46.009H265.986V42.143C265.986 41.7649 265.849 41.4385 265.574 41.1635C265.299 40.8886 264.938 40.7512 264.491 40.7512C264.044 40.7512 263.684 40.9058 263.409 41.2151C263.134 41.49 262.996 41.8337 262.996 42.2461C262.996 42.7272 263.117 43.277 263.357 43.8956C263.632 44.4798 263.959 44.9265 264.337 45.2358C264.955 45.82 265.814 46.3699 266.914 46.8853C268.014 47.3665 269.491 47.9335 271.347 48.5864C275.574 50.1672 279.131 51.8168 282.017 53.535C284.904 55.2189 287.43 57.865 289.595 61.4734C291.794 65.0817 292.894 69.8585 292.894 75.8036V77.0408C292.757 81.1646 291.519 84.6355 289.183 87.4534C286.846 90.2714 283.65 92.3677 279.595 93.7423C275.574 95.1169 270.918 95.8042 265.625 95.8042ZM295.008 51.2669C296.554 48.6552 297.722 46.3527 298.513 44.3595C299.303 42.3663 299.698 40.2357 299.698 37.9676H295.575L295.523 21.6269H320.266V35.9057C320.266 41.6447 318.685 46.7651 315.524 51.2669H295.008ZM352.741 95.8042C332.878 95.8042 322.912 89.0171 322.843 75.4428V70.752H349.648V75.7521C349.648 76.1301 349.751 76.4738 349.957 76.783C350.198 77.0923 350.593 77.247 351.143 77.247C351.624 77.247 351.985 77.0923 352.226 76.783C352.5 76.4738 352.638 76.1301 352.638 75.7521C352.638 75.0648 352.552 74.3947 352.38 73.7417C352.208 73.0544 351.951 72.4874 351.607 72.0407C350.851 71.0784 349.786 70.2365 348.411 69.5148C347.071 68.7931 345.095 67.8653 342.483 66.7312C338.531 65.0473 335.249 63.415 332.637 61.8342C330.026 60.219 327.775 57.9338 325.885 54.9783C323.995 52.0229 323.05 48.26 323.05 43.6894V42.71C323.256 35.4246 325.627 30.1839 330.163 26.9879C334.699 23.792 341.401 22.194 350.267 22.194C356.693 22.194 362.02 23.0359 366.247 24.7198C370.508 26.4037 373.669 28.7749 375.731 31.8334C377.793 34.8575 378.841 38.4143 378.876 42.5038V46.009H353.102V42.143C353.102 41.7649 352.964 41.4385 352.689 41.1635C352.415 40.8886 352.054 40.7512 351.607 40.7512C351.16 40.7512 350.799 40.9058 350.524 41.2151C350.25 41.49 350.112 41.8337 350.112 42.2461C350.112 42.7272 350.232 43.277 350.473 43.8956C350.748 44.4798 351.074 44.9265 351.452 45.2358C352.071 45.82 352.93 46.3699 354.03 46.8853C355.129 47.3665 356.607 47.9335 358.463 48.5864C362.69 50.1672 366.247 51.8168 369.133 53.535C372.02 55.2189 374.546 57.865 376.711 61.4734C378.91 65.0817 380.01 69.8585 380.01 75.8036V77.0408C379.872 81.1646 378.635 84.6355 376.298 87.4534C373.962 90.2714 370.766 92.3677 366.71 93.7423C362.69 95.1169 358.033 95.8042 352.741 95.8042Z" fill="white"/>
<path d="M17.7666 103.356H38.3101C43.1699 103.356 47.1583 103.749 50.2754 104.534C53.4171 105.295 55.8838 106.804 57.6755 109.062C59.4672 111.296 60.3631 114.548 60.3631 118.819V126.477C60.314 130.526 59.3936 133.656 57.6018 135.865C55.8347 138.074 53.4907 139.571 50.5699 140.356C47.6492 141.117 44.078 141.498 39.8564 141.498H39.2305V153.426H17.7666V103.356ZM38.9728 128.906C39.4637 128.906 39.795 128.784 39.9669 128.538C40.1632 128.268 40.2614 127.777 40.2614 127.066V119.445C40.2614 118.684 40.1755 118.181 40.0037 117.935C39.8319 117.665 39.4514 117.53 38.8624 117.53H38.126V128.906H38.9728ZM61.6516 123.2C61.6516 116.254 63.6029 111.014 67.5054 107.479C71.408 103.92 77.1881 102.141 84.8459 102.141C92.5037 102.141 98.2838 103.92 102.186 107.479C106.089 111.038 108.04 116.303 108.04 123.274V133.361C108.04 140.381 106.089 145.682 102.186 149.266C98.2838 152.849 92.5037 154.641 84.8459 154.641C77.2126 154.641 71.4448 152.849 67.5422 149.266C63.6643 145.682 61.7007 140.381 61.6516 133.361V123.2ZM83.815 136.196C83.815 136.908 84.1587 137.264 84.8459 137.264C85.5331 137.264 85.8767 136.908 85.8767 136.196V120.402C85.8767 119.69 85.5331 119.334 84.8459 119.334C84.1587 119.334 83.815 119.69 83.815 120.402V136.196ZM132.192 153.426L131.418 138.037H129.983V153.426H109.66V103.356H130.204C135.063 103.356 139.052 103.749 142.169 104.534C145.31 105.295 147.777 106.804 149.569 109.062C151.361 111.296 152.256 114.548 152.256 118.819V124.562C152.256 128.833 150.98 132.048 148.428 134.208L152.404 153.426H132.192ZM130.866 127.029C131.357 127.029 131.688 126.906 131.86 126.661C132.057 126.391 132.155 125.888 132.155 125.151V119.445C132.155 118.684 132.069 118.181 131.897 117.935C131.725 117.665 131.345 117.53 130.756 117.53H130.019V127.029H130.866ZM160.246 118.635H153.398V103.356H188.373V118.635H181.599V153.426H160.246V118.635ZM189.699 103.356H222.723V117.273H211.126V124.084H220.44V137.742H211.126V153.389L189.699 153.426V103.356ZM223.275 123.2C223.275 116.254 225.226 111.014 229.129 107.479C233.031 103.92 238.812 102.141 246.469 102.141C254.127 102.141 259.907 103.92 263.81 107.479C267.712 111.038 269.664 116.303 269.664 123.274V133.361C269.664 140.381 267.712 145.682 263.81 149.266C259.907 152.849 254.127 154.641 246.469 154.641C238.836 154.641 233.068 152.849 229.166 149.266C225.288 145.682 223.324 140.381 223.275 133.361V123.2ZM245.438 136.196C245.438 136.908 245.782 137.264 246.469 137.264C247.157 137.264 247.5 136.908 247.5 136.196V120.402C247.5 119.69 247.157 119.334 246.469 119.334C245.782 119.334 245.438 119.69 245.438 120.402V136.196ZM271.284 103.356H292.747V138.589H301.767V153.426H271.284V103.356ZM303.387 103.356H324.851V153.426H303.387V103.356ZM326.508 123.2C326.508 116.254 328.459 111.014 332.362 107.479C336.264 103.92 342.044 102.141 349.702 102.141C357.36 102.141 363.14 103.92 367.043 107.479C370.945 111.038 372.896 116.303 372.896 123.274V133.361C372.896 140.381 370.945 145.682 367.043 149.266C363.14 152.849 357.36 154.641 349.702 154.641C342.069 154.641 336.301 152.849 332.399 149.266C328.521 145.682 326.557 140.381 326.508 133.361V123.2ZM348.671 136.196C348.671 136.908 349.015 137.264 349.702 137.264C350.389 137.264 350.733 136.908 350.733 136.196V120.402C350.733 119.69 350.389 119.334 349.702 119.334C349.015 119.334 348.671 119.69 348.671 120.402V136.196Z" fill="white"/>
<path d="M42.1142 233.91C31.4266 233.91 23.3508 231.402 17.8868 226.385C12.4227 221.367 9.69068 213.944 9.69068 204.116V189.992C9.69068 180.232 12.4227 172.861 17.8868 167.878C23.3508 162.895 31.4266 160.403 42.1142 160.403C52.5956 160.403 60.5683 162.809 66.0324 167.62C71.4964 172.397 74.3487 179.476 74.5893 188.858V195.559L43.5576 195.611V185.971C43.5576 184.974 43.0593 184.476 42.0627 184.476C41.0661 184.476 40.5678 184.974 40.5678 185.971V208.085C40.5678 209.082 41.0661 209.58 42.0627 209.58C43.0593 209.58 43.5576 209.082 43.5576 208.085V198.703H74.5893V205.353C74.3144 214.769 71.4277 221.883 65.9293 226.694C60.4652 231.505 52.5269 233.91 42.1142 233.91ZM76.909 162.104H106.137V187.878H109.023V162.104H138.354V232.209H109.023V207.054H106.137V232.209H76.909V162.104ZM172.582 232.209L171.499 210.662H169.489V232.209H141.034V162.104H169.798C176.602 162.104 182.187 162.654 186.551 163.754C190.95 164.819 194.403 166.933 196.912 170.094C199.421 173.222 200.675 177.775 200.675 183.755V191.796C200.675 197.776 198.888 202.277 195.314 205.301L200.881 232.209H172.582ZM170.726 195.25C171.413 195.25 171.877 195.078 172.118 194.734C172.393 194.356 172.53 193.652 172.53 192.621V184.631C172.53 183.566 172.41 182.861 172.169 182.517C171.929 182.139 171.396 181.95 170.571 181.95H169.54V195.25H170.726ZM203.098 162.104H233.15V232.209H203.098V162.104ZM265.625 234.014C245.762 234.014 235.796 227.226 235.728 213.652V208.961H262.532V213.962C262.532 214.34 262.636 214.683 262.842 214.992C263.082 215.302 263.477 215.456 264.027 215.456C264.508 215.456 264.869 215.302 265.11 214.992C265.385 214.683 265.522 214.34 265.522 213.962C265.522 213.274 265.436 212.604 265.264 211.951C265.093 211.264 264.835 210.697 264.491 210.25C263.735 209.288 262.67 208.446 261.295 207.724C259.955 207.003 257.979 206.075 255.367 204.941C251.415 203.257 248.133 201.624 245.522 200.044C242.91 198.428 240.659 196.143 238.769 193.188C236.879 190.232 235.934 186.469 235.934 181.899V180.919C236.14 173.634 238.511 168.393 243.047 165.197C247.584 162.001 254.285 160.403 263.151 160.403C269.577 160.403 274.904 161.245 279.131 162.929C283.392 164.613 286.554 166.984 288.616 170.043C290.678 173.067 291.726 176.624 291.76 180.713V184.218H265.986V180.352C265.986 179.974 265.849 179.648 265.574 179.373C265.299 179.098 264.938 178.961 264.491 178.961C264.044 178.961 263.684 179.115 263.409 179.425C263.134 179.699 262.996 180.043 262.996 180.455C262.996 180.937 263.117 181.486 263.357 182.105C263.632 182.689 263.959 183.136 264.337 183.445C264.955 184.029 265.814 184.579 266.914 185.095C268.014 185.576 269.491 186.143 271.347 186.796C275.574 188.377 279.131 190.026 282.017 191.744C284.904 193.428 287.43 196.074 289.595 199.683C291.794 203.291 292.894 208.068 292.894 214.013V215.25C292.757 219.374 291.519 222.845 289.183 225.663C286.846 228.481 283.65 230.577 279.595 231.952C275.574 233.326 270.918 234.014 265.625 234.014ZM295.008 189.476C296.554 186.865 297.722 184.562 298.513 182.569C299.303 180.576 299.698 178.445 299.698 176.177H295.575L295.523 159.836H320.266V174.115C320.266 179.854 318.685 184.974 315.524 189.476H295.008ZM352.741 234.014C332.878 234.014 322.912 227.226 322.843 213.652V208.961H349.648V213.962C349.648 214.34 349.751 214.683 349.957 214.992C350.198 215.302 350.593 215.456 351.143 215.456C351.624 215.456 351.985 215.302 352.226 214.992C352.5 214.683 352.638 214.34 352.638 213.962C352.638 213.274 352.552 212.604 352.38 211.951C352.208 211.264 351.951 210.697 351.607 210.25C350.851 209.288 349.786 208.446 348.411 207.724C347.071 207.003 345.095 206.075 342.483 204.941C338.531 203.257 335.249 201.624 332.637 200.044C330.026 198.428 327.775 196.143 325.885 193.188C323.995 190.232 323.05 186.469 323.05 181.899V180.919C323.256 173.634 325.627 168.393 330.163 165.197C334.699 162.001 341.401 160.403 350.267 160.403C356.693 160.403 362.02 161.245 366.247 162.929C370.508 164.613 373.669 166.984 375.731 170.043C377.793 173.067 378.841 176.624 378.876 180.713V184.218H353.102V180.352C353.102 179.974 352.964 179.648 352.689 179.373C352.415 179.098 352.054 178.961 351.607 178.961C351.16 178.961 350.799 179.115 350.524 179.425C350.25 179.699 350.112 180.043 350.112 180.455C350.112 180.937 350.232 181.486 350.473 182.105C350.748 182.689 351.074 183.136 351.452 183.445C352.071 184.029 352.93 184.579 354.03 185.095C355.129 185.576 356.607 186.143 358.463 186.796C362.69 188.377 366.247 190.026 369.133 191.744C372.02 193.428 374.546 196.074 376.711 199.683C378.91 203.291 380.01 208.068 380.01 214.013V215.25C379.872 219.374 378.635 222.845 376.298 225.663C373.962 228.481 370.766 230.577 366.71 231.952C362.69 233.326 358.033 234.014 352.741 234.014Z" fill="white" fill-opacity="0.04"/>
<path d="M17.7666 241.565H38.3101C43.1699 241.565 47.1583 241.958 50.2754 242.744C53.4171 243.504 55.8838 245.014 57.6755 247.272C59.4672 249.505 60.3631 252.758 60.3631 257.028V264.686C60.314 268.736 59.3936 271.865 57.6018 274.074C55.8347 276.283 53.4907 277.78 50.5699 278.566C47.6492 279.327 44.078 279.707 39.8564 279.707H39.2305V291.636H17.7666V241.565ZM38.9728 267.116C39.4637 267.116 39.795 266.993 39.9669 266.748C40.1632 266.478 40.2614 265.987 40.2614 265.275V257.654C40.2614 256.893 40.1755 256.39 40.0037 256.145C39.8319 255.875 39.4514 255.74 38.8624 255.74H38.126V267.116H38.9728ZM61.6516 261.409C61.6516 254.463 63.6029 249.223 67.5054 245.689C71.408 242.13 77.1881 240.35 84.8459 240.35C92.5037 240.35 98.2838 242.13 102.186 245.689C106.089 249.248 108.04 254.512 108.04 261.483V271.571C108.04 278.59 106.089 283.892 102.186 287.475C98.2838 291.059 92.5037 292.85 84.8459 292.85C77.2126 292.85 71.4448 291.059 67.5422 287.475C63.6643 283.892 61.7007 278.59 61.6516 271.571V261.409ZM83.815 274.406C83.815 275.117 84.1587 275.473 84.8459 275.473C85.5331 275.473 85.8767 275.117 85.8767 274.406V258.611C85.8767 257.9 85.5331 257.544 84.8459 257.544C84.1587 257.544 83.815 257.9 83.815 258.611V274.406ZM132.192 291.636L131.418 276.246H129.983V291.636H109.66V241.565H130.204C135.063 241.565 139.052 241.958 142.169 242.744C145.31 243.504 147.777 245.014 149.569 247.272C151.361 249.505 152.256 252.758 152.256 257.028V262.772C152.256 267.042 150.98 270.258 148.428 272.417L152.404 291.636H132.192ZM130.866 265.238C131.357 265.238 131.688 265.116 131.86 264.87C132.057 264.6 132.155 264.097 132.155 263.361V257.654C132.155 256.893 132.069 256.39 131.897 256.145C131.725 255.875 131.345 255.74 130.756 255.74H130.019V265.238H130.866ZM160.246 256.844H153.398V241.565H188.373V256.844H181.599V291.636H160.246V256.844ZM189.699 241.565H222.723V255.482H211.126V262.293H220.44V275.952H211.126V291.599L189.699 291.636V241.565ZM223.275 261.409C223.275 254.463 225.226 249.223 229.129 245.689C233.031 242.13 238.812 240.35 246.469 240.35C254.127 240.35 259.907 242.13 263.81 245.689C267.712 249.248 269.664 254.512 269.664 261.483V271.571C269.664 278.59 267.712 283.892 263.81 287.475C259.907 291.059 254.127 292.85 246.469 292.85C238.836 292.85 233.068 291.059 229.166 287.475C225.288 283.892 223.324 278.59 223.275 271.571V261.409ZM245.438 274.406C245.438 275.117 245.782 275.473 246.469 275.473C247.157 275.473 247.5 275.117 247.5 274.406V258.611C247.5 257.9 247.157 257.544 246.469 257.544C245.782 257.544 245.438 257.9 245.438 258.611V274.406ZM271.284 241.565H292.747V276.799H301.767V291.636H271.284V241.565ZM303.387 241.565H324.851V291.636H303.387V241.565ZM326.508 261.409C326.508 254.463 328.459 249.223 332.362 245.689C336.264 242.13 342.044 240.35 349.702 240.35C357.36 240.35 363.14 242.13 367.043 245.689C370.945 249.248 372.896 254.512 372.896 261.483V271.571C372.896 278.59 370.945 283.892 367.043 287.475C363.14 291.059 357.36 292.85 349.702 292.85C342.069 292.85 336.301 291.059 332.399 287.475C328.521 283.892 326.557 278.59 326.508 271.571V261.409ZM348.671 274.406C348.671 275.117 349.015 275.473 349.702 275.473C350.389 275.473 350.733 275.117 350.733 274.406V258.611C350.733 257.9 350.389 257.544 349.702 257.544C349.015 257.544 348.671 257.9 348.671 258.611V274.406Z" fill="white" fill-opacity="0.04"/>
<path d="M42.1142 375.701C31.4266 375.701 23.3508 373.192 17.8868 368.175C12.4227 363.158 9.69068 355.735 9.69068 345.906V331.782C9.69068 322.023 12.4227 314.651 17.8868 309.668C23.3508 304.685 31.4266 302.194 42.1142 302.194C52.5956 302.194 60.5683 304.6 66.0324 309.411C71.4964 314.187 74.3487 321.267 74.5893 330.648V337.35L43.5576 337.401V327.762C43.5576 326.765 43.0593 326.267 42.0627 326.267C41.0661 326.267 40.5678 326.765 40.5678 327.762V349.876C40.5678 350.872 41.0661 351.371 42.0627 351.371C43.0593 351.371 43.5576 350.872 43.5576 349.876V340.494H74.5893V347.144C74.3144 356.56 71.4277 363.673 65.9293 368.484C60.4652 373.296 52.5269 375.701 42.1142 375.701ZM76.909 303.895H106.137V329.669H109.023V303.895H138.354V374H109.023V348.845H106.137V374H76.909V303.895ZM172.582 374L171.499 352.453H169.489V374H141.034V303.895H169.798C176.602 303.895 182.187 304.445 186.551 305.545C190.95 306.61 194.403 308.723 196.912 311.885C199.421 315.012 200.675 319.566 200.675 325.545V333.587C200.675 339.566 198.888 344.068 195.314 347.092L200.881 374H172.582ZM170.726 337.04C171.413 337.04 171.877 336.868 172.118 336.525C172.393 336.147 172.53 335.442 172.53 334.411V326.421C172.53 325.356 172.41 324.652 172.169 324.308C171.929 323.93 171.396 323.741 170.571 323.741H169.54V337.04H170.726ZM203.098 303.895H233.15V374H203.098V303.895ZM265.625 375.804C245.762 375.804 235.796 369.017 235.728 355.443V350.752H262.532V355.752C262.532 356.13 262.636 356.474 262.842 356.783C263.082 357.092 263.477 357.247 264.027 357.247C264.508 357.247 264.869 357.092 265.11 356.783C265.385 356.474 265.522 356.13 265.522 355.752C265.522 355.065 265.436 354.395 265.264 353.742C265.093 353.054 264.835 352.487 264.491 352.041C263.735 351.078 262.67 350.236 261.295 349.515C259.955 348.793 257.979 347.865 255.367 346.731C251.415 345.047 248.133 343.415 245.522 341.834C242.91 340.219 240.659 337.934 238.769 334.978C236.879 332.023 235.934 328.26 235.934 323.689V322.71C236.14 315.425 238.511 310.184 243.047 306.988C247.584 303.792 254.285 302.194 263.151 302.194C269.577 302.194 274.904 303.036 279.131 304.72C283.392 306.404 286.554 308.775 288.616 311.833C290.678 314.858 291.726 318.414 291.76 322.504V326.009H265.986V322.143C265.986 321.765 265.849 321.438 265.574 321.164C265.299 320.889 264.938 320.751 264.491 320.751C264.044 320.751 263.684 320.906 263.409 321.215C263.134 321.49 262.996 321.834 262.996 322.246C262.996 322.727 263.117 323.277 263.357 323.896C263.632 324.48 263.959 324.927 264.337 325.236C264.955 325.82 265.814 326.37 266.914 326.885C268.014 327.366 269.491 327.933 271.347 328.586C275.574 330.167 279.131 331.817 282.017 333.535C284.904 335.219 287.43 337.865 289.595 341.473C291.794 345.082 292.894 349.858 292.894 355.804V357.041C292.757 361.165 291.519 364.635 289.183 367.453C286.846 370.271 283.65 372.368 279.595 373.742C275.574 375.117 270.918 375.804 265.625 375.804ZM295.008 331.267C296.554 328.655 297.722 326.353 298.513 324.36C299.303 322.366 299.698 320.236 299.698 317.968H295.575L295.523 301.627H320.266V315.906C320.266 321.645 318.685 326.765 315.524 331.267H295.008ZM352.741 375.804C332.878 375.804 322.912 369.017 322.843 355.443V350.752H349.648V355.752C349.648 356.13 349.751 356.474 349.957 356.783C350.198 357.092 350.593 357.247 351.143 357.247C351.624 357.247 351.985 357.092 352.226 356.783C352.5 356.474 352.638 356.13 352.638 355.752C352.638 355.065 352.552 354.395 352.38 353.742C352.208 353.054 351.951 352.487 351.607 352.041C350.851 351.078 349.786 350.236 348.411 349.515C347.071 348.793 345.095 347.865 342.483 346.731C338.531 345.047 335.249 343.415 332.637 341.834C330.026 340.219 327.775 337.934 325.885 334.978C323.995 332.023 323.05 328.26 323.05 323.689V322.71C323.256 315.425 325.627 310.184 330.163 306.988C334.699 303.792 341.401 302.194 350.267 302.194C356.693 302.194 362.02 303.036 366.247 304.72C370.508 306.404 373.669 308.775 375.731 311.833C377.793 314.858 378.841 318.414 378.876 322.504V326.009H353.102V322.143C353.102 321.765 352.964 321.438 352.689 321.164C352.415 320.889 352.054 320.751 351.607 320.751C351.16 320.751 350.799 320.906 350.524 321.215C350.25 321.49 350.112 321.834 350.112 322.246C350.112 322.727 350.232 323.277 350.473 323.896C350.748 324.48 351.074 324.927 351.452 325.236C352.071 325.82 352.93 326.37 354.03 326.885C355.129 327.366 356.607 327.933 358.463 328.586C362.69 330.167 366.247 331.817 369.133 333.535C372.02 335.219 374.546 337.865 376.711 341.473C378.91 345.082 380.01 349.858 380.01 355.804V357.041C379.872 361.165 378.635 364.635 376.298 367.453C373.962 370.271 370.766 372.368 366.71 373.742C362.69 375.117 358.033 375.804 352.741 375.804Z" fill="white" fill-opacity="0.04"/>
<path d="M17.7666 383.356H38.3101C43.1699 383.356 47.1583 383.749 50.2754 384.534C53.4171 385.295 55.8838 386.804 57.6755 389.063C59.4672 391.296 60.3631 394.548 60.3631 398.819V406.477C60.314 410.526 59.3936 413.656 57.6018 415.865C55.8347 418.074 53.4907 419.571 50.5699 420.356C47.6492 421.117 44.078 421.498 39.8564 421.498H39.2305V433.426H17.7666V383.356ZM38.9728 408.906C39.4637 408.906 39.795 408.784 39.9669 408.538C40.1632 408.268 40.2614 407.777 40.2614 407.066V399.445C40.2614 398.684 40.1755 398.181 40.0037 397.935C39.8319 397.665 39.4514 397.53 38.8624 397.53H38.126V408.906H38.9728ZM61.6516 403.2C61.6516 396.254 63.6029 391.014 67.5054 387.479C71.408 383.921 77.1881 382.141 84.8459 382.141C92.5037 382.141 98.2838 383.921 102.186 387.479C106.089 391.038 108.04 396.303 108.04 403.274V413.361C108.04 420.381 106.089 425.682 102.186 429.266C98.2838 432.849 92.5037 434.641 84.8459 434.641C77.2126 434.641 71.4448 432.849 67.5422 429.266C63.6643 425.682 61.7007 420.381 61.6516 413.361V403.2ZM83.815 416.196C83.815 416.908 84.1587 417.264 84.8459 417.264C85.5331 417.264 85.8767 416.908 85.8767 416.196V400.402C85.8767 399.69 85.5331 399.334 84.8459 399.334C84.1587 399.334 83.815 399.69 83.815 400.402V416.196ZM132.192 433.426L131.418 418.037H129.983V433.426H109.66V383.356H130.204C135.063 383.356 139.052 383.749 142.169 384.534C145.31 385.295 147.777 386.804 149.569 389.063C151.361 391.296 152.256 394.548 152.256 398.819V404.562C152.256 408.833 150.98 412.048 148.428 414.208L152.404 433.426H132.192ZM130.866 407.029C131.357 407.029 131.688 406.906 131.86 406.661C132.057 406.391 132.155 405.888 132.155 405.151V399.445C132.155 398.684 132.069 398.181 131.897 397.935C131.725 397.665 131.345 397.53 130.756 397.53H130.019V407.029H130.866ZM160.246 398.635H153.398V383.356H188.373V398.635H181.599V433.426H160.246V398.635ZM189.699 383.356H222.723V397.273H211.126V404.084H220.44V417.742H211.126V433.389L189.699 433.426V383.356ZM223.275 403.2C223.275 396.254 225.226 391.014 229.129 387.479C233.031 383.921 238.812 382.141 246.469 382.141C254.127 382.141 259.907 383.921 263.81 387.479C267.712 391.038 269.664 396.303 269.664 403.274V413.361C269.664 420.381 267.712 425.682 263.81 429.266C259.907 432.849 254.127 434.641 246.469 434.641C238.836 434.641 233.068 432.849 229.166 429.266C225.288 425.682 223.324 420.381 223.275 413.361V403.2ZM245.438 416.196C245.438 416.908 245.782 417.264 246.469 417.264C247.157 417.264 247.5 416.908 247.5 416.196V400.402C247.5 399.69 247.157 399.334 246.469 399.334C245.782 399.334 245.438 399.69 245.438 400.402V416.196ZM271.284 383.356H292.747V418.589H301.767V433.426H271.284V383.356ZM303.387 383.356H324.851V433.426H303.387V383.356ZM326.508 403.2C326.508 396.254 328.459 391.014 332.362 387.479C336.264 383.921 342.044 382.141 349.702 382.141C357.36 382.141 363.14 383.921 367.043 387.479C370.945 391.038 372.896 396.303 372.896 403.274V413.361C372.896 420.381 370.945 425.682 367.043 429.266C363.14 432.849 357.36 434.641 349.702 434.641C342.069 434.641 336.301 432.849 332.399 429.266C328.521 425.682 326.557 420.381 326.508 413.361V403.2ZM348.671 416.196C348.671 416.908 349.015 417.264 349.702 417.264C350.389 417.264 350.733 416.908 350.733 416.196V400.402C350.733 399.69 350.389 399.334 349.702 399.334C349.015 399.334 348.671 399.69 348.671 400.402V416.196Z" fill="white" fill-opacity="0.04"/>
<path d="M42.1142 517.492C31.4266 517.492 23.3508 514.983 17.8868 509.966C12.4227 504.948 9.69068 497.525 9.69068 487.697V473.573C9.69068 463.813 12.4227 456.442 17.8868 451.459C23.3508 446.476 31.4266 443.985 42.1142 443.985C52.5956 443.985 60.5683 446.39 66.0324 451.201C71.4964 455.978 74.3487 463.057 74.5893 472.439V479.14L43.5576 479.192V469.552C43.5576 468.556 43.0593 468.057 42.0627 468.057C41.0661 468.057 40.5678 468.556 40.5678 469.552V491.666C40.5678 492.663 41.0661 493.161 42.0627 493.161C43.0593 493.161 43.5576 492.663 43.5576 491.666V482.285H74.5893V488.934C74.3144 498.35 71.4277 505.464 65.9293 510.275C60.4652 515.086 52.5269 517.492 42.1142 517.492ZM76.909 445.686H106.137V471.46H109.023V445.686H138.354V515.791H109.023V490.635H106.137V515.791H76.909V445.686ZM172.582 515.791L171.499 494.244H169.489V515.791H141.034V445.686H169.798C176.602 445.686 182.187 446.235 186.551 447.335C190.95 448.4 194.403 450.514 196.912 453.676C199.421 456.803 200.675 461.356 200.675 467.336V475.377C200.675 481.357 198.888 485.859 195.314 488.883L200.881 515.791H172.582ZM170.726 478.831C171.413 478.831 171.877 478.659 172.118 478.315C172.393 477.937 172.53 477.233 172.53 476.202V468.212C172.53 467.147 172.41 466.442 172.169 466.099C171.929 465.721 171.396 465.532 170.571 465.532H169.54V478.831H170.726ZM203.098 445.686H233.15V515.791H203.098V445.686ZM265.625 517.595C245.762 517.595 235.796 510.808 235.728 497.233V492.543H262.532V497.543C262.532 497.921 262.636 498.264 262.842 498.574C263.082 498.883 263.477 499.038 264.027 499.038C264.508 499.038 264.869 498.883 265.11 498.574C265.385 498.264 265.522 497.921 265.522 497.543C265.522 496.855 265.436 496.185 265.264 495.532C265.093 494.845 264.835 494.278 264.491 493.831C263.735 492.869 262.67 492.027 261.295 491.305C259.955 490.584 257.979 489.656 255.367 488.522C251.415 486.838 248.133 485.206 245.522 483.625C242.91 482.01 240.659 479.724 238.769 476.769C236.879 473.814 235.934 470.051 235.934 465.48V464.501C236.14 457.215 238.511 451.974 243.047 448.779C247.584 445.583 254.285 443.985 263.151 443.985C269.577 443.985 274.904 444.827 279.131 446.51C283.392 448.194 286.554 450.565 288.616 453.624C290.678 456.648 291.726 460.205 291.76 464.294V467.8H265.986V463.934C265.986 463.556 265.849 463.229 265.574 462.954C265.299 462.679 264.938 462.542 264.491 462.542C264.044 462.542 263.684 462.696 263.409 463.006C263.134 463.281 262.996 463.624 262.996 464.037C262.996 464.518 263.117 465.068 263.357 465.686C263.632 466.27 263.959 466.717 264.337 467.026C264.955 467.611 265.814 468.16 266.914 468.676C268.014 469.157 269.491 469.724 271.347 470.377C275.574 471.958 279.131 473.607 282.017 475.326C284.904 477.009 287.43 479.656 289.595 483.264C291.794 486.872 292.894 491.649 292.894 497.594V498.831C292.757 502.955 291.519 506.426 289.183 509.244C286.846 512.062 283.65 514.158 279.595 515.533C275.574 516.907 270.918 517.595 265.625 517.595ZM295.008 473.057C296.554 470.446 297.722 468.143 298.513 466.15C299.303 464.157 299.698 462.026 299.698 459.758H295.575L295.523 443.418H320.266V457.696C320.266 463.435 318.685 468.556 315.524 473.057H295.008ZM352.741 517.595C332.878 517.595 322.912 510.808 322.843 497.233V492.543H349.648V497.543C349.648 497.921 349.751 498.264 349.957 498.574C350.198 498.883 350.593 499.038 351.143 499.038C351.624 499.038 351.985 498.883 352.226 498.574C352.5 498.264 352.638 497.921 352.638 497.543C352.638 496.855 352.552 496.185 352.38 495.532C352.208 494.845 351.951 494.278 351.607 493.831C350.851 492.869 349.786 492.027 348.411 491.305C347.071 490.584 345.095 489.656 342.483 488.522C338.531 486.838 335.249 485.206 332.637 483.625C330.026 482.01 327.775 479.724 325.885 476.769C323.995 473.814 323.05 470.051 323.05 465.48V464.501C323.256 457.215 325.627 451.974 330.163 448.779C334.699 445.583 341.401 443.985 350.267 443.985C356.693 443.985 362.02 444.827 366.247 446.51C370.508 448.194 373.669 450.565 375.731 453.624C377.793 456.648 378.841 460.205 378.876 464.294V467.8H353.102V463.934C353.102 463.556 352.964 463.229 352.689 462.954C352.415 462.679 352.054 462.542 351.607 462.542C351.16 462.542 350.799 462.696 350.524 463.006C350.25 463.281 350.112 463.624 350.112 464.037C350.112 464.518 350.232 465.068 350.473 465.686C350.748 466.27 351.074 466.717 351.452 467.026C352.071 467.611 352.93 468.16 354.03 468.676C355.129 469.157 356.607 469.724 358.463 470.377C362.69 471.958 366.247 473.607 369.133 475.326C372.02 477.009 374.546 479.656 376.711 483.264C378.91 486.872 380.01 491.649 380.01 497.594V498.831C379.872 502.955 378.635 506.426 376.298 509.244C373.962 512.062 370.766 514.158 366.71 515.533C362.69 516.907 358.033 517.595 352.741 517.595Z" fill="white" fill-opacity="0.04"/>
<path d="M17.7666 525.147H38.3101C43.1699 525.147 47.1583 525.539 50.2754 526.325C53.4171 527.086 55.8838 528.595 57.6755 530.853C59.4672 533.087 60.3631 536.339 60.3631 540.609V548.267C60.314 552.317 59.3936 555.446 57.6018 557.655C55.8347 559.864 53.4907 561.361 50.5699 562.147C47.6492 562.908 44.078 563.288 39.8564 563.288H39.2305V575.217H17.7666V525.147ZM38.9728 550.697C39.4637 550.697 39.795 550.574 39.9669 550.329C40.1632 550.059 40.2614 549.568 40.2614 548.856V541.235C40.2614 540.474 40.1755 539.971 40.0037 539.726C39.8319 539.456 39.4514 539.321 38.8624 539.321H38.126V550.697H38.9728ZM61.6516 544.991C61.6516 538.045 63.6029 532.804 67.5054 529.27C71.408 525.711 77.1881 523.932 84.8459 523.932C92.5037 523.932 98.2838 525.711 102.186 529.27C106.089 532.829 108.04 538.094 108.04 545.064V555.152C108.04 562.171 106.089 567.473 102.186 571.056C98.2838 574.64 92.5037 576.432 84.8459 576.432C77.2126 576.432 71.4448 574.64 67.5422 571.056C63.6643 567.473 61.7007 562.171 61.6516 555.152V544.991ZM83.815 557.987C83.815 558.698 84.1587 559.054 84.8459 559.054C85.5331 559.054 85.8767 558.698 85.8767 557.987V542.192C85.8767 541.481 85.5331 541.125 84.8459 541.125C84.1587 541.125 83.815 541.481 83.815 542.192V557.987ZM132.192 575.217L131.418 559.827H129.983V575.217H109.66V525.147H130.204C135.063 525.147 139.052 525.539 142.169 526.325C145.31 527.086 147.777 528.595 149.569 530.853C151.361 533.087 152.256 536.339 152.256 540.609V546.353C152.256 550.623 150.98 553.839 148.428 555.999L152.404 575.217H132.192ZM130.866 548.819C131.357 548.819 131.688 548.697 131.86 548.451C132.057 548.181 132.155 547.678 132.155 546.942V541.235C132.155 540.474 132.069 539.971 131.897 539.726C131.725 539.456 131.345 539.321 130.756 539.321H130.019V548.819H130.866ZM160.246 540.425H153.398V525.147H188.373V540.425H181.599V575.217H160.246V540.425ZM189.699 525.147H222.723V539.063H211.126V545.874H220.44V559.533H211.126V575.18L189.699 575.217V525.147ZM223.275 544.991C223.275 538.045 225.226 532.804 229.129 529.27C233.031 525.711 238.812 523.932 246.469 523.932C254.127 523.932 259.907 525.711 263.81 529.27C267.712 532.829 269.664 538.094 269.664 545.064V555.152C269.664 562.171 267.712 567.473 263.81 571.056C259.907 574.64 254.127 576.432 246.469 576.432C238.836 576.432 233.068 574.64 229.166 571.056C225.288 567.473 223.324 562.171 223.275 555.152V544.991ZM245.438 557.987C245.438 558.698 245.782 559.054 246.469 559.054C247.157 559.054 247.5 558.698 247.5 557.987V542.192C247.5 541.481 247.157 541.125 246.469 541.125C245.782 541.125 245.438 541.481 245.438 542.192V557.987ZM271.284 525.147H292.747V560.38H301.767V575.217H271.284V525.147ZM303.387 525.147H324.851V575.217H303.387V525.147ZM326.508 544.991C326.508 538.045 328.459 532.804 332.362 529.27C336.264 525.711 342.044 523.932 349.702 523.932C357.36 523.932 363.14 525.711 367.043 529.27C370.945 532.829 372.896 538.094 372.896 545.064V555.152C372.896 562.171 370.945 567.473 367.043 571.056C363.14 574.64 357.36 576.432 349.702 576.432C342.069 576.432 336.301 574.64 332.399 571.056C328.521 567.473 326.557 562.171 326.508 555.152V544.991ZM348.671 557.987C348.671 558.698 349.015 559.054 349.702 559.054C350.389 559.054 350.733 558.698 350.733 557.987V542.192C350.733 541.481 350.389 541.125 349.702 541.125C349.015 541.125 348.671 541.481 348.671 542.192V557.987Z" fill="white" fill-opacity="0.04"/>
<path d="M42.1142 659.282C31.4266 659.282 23.3508 656.774 17.8868 651.756C12.4227 646.739 9.69068 639.316 9.69068 629.488V615.364C9.69068 605.604 12.4227 598.233 17.8868 593.25C23.3508 588.267 31.4266 585.775 42.1142 585.775C52.5956 585.775 60.5683 588.181 66.0324 592.992C71.4964 597.769 74.3487 604.848 74.5893 614.23V620.931L43.5576 620.982V611.343C43.5576 610.346 43.0593 609.848 42.0627 609.848C41.0661 609.848 40.5678 610.346 40.5678 611.343V633.457C40.5678 634.453 41.0661 634.952 42.0627 634.952C43.0593 634.952 43.5576 634.453 43.5576 633.457V624.075H74.5893V630.725C74.3144 640.141 71.4277 647.254 65.9293 652.066C60.4652 656.877 52.5269 659.282 42.1142 659.282ZM76.909 587.476H106.137V613.25H109.023V587.476H138.354V657.581H109.023V632.426H106.137V657.581H76.909V587.476ZM172.582 657.581L171.499 636.034H169.489V657.581H141.034V587.476H169.798C176.602 587.476 182.187 588.026 186.551 589.126C190.95 590.191 194.403 592.305 196.912 595.466C199.421 598.593 200.675 603.147 200.675 609.126V617.168C200.675 623.147 198.888 627.649 195.314 630.673L200.881 657.581H172.582ZM170.726 620.621C171.413 620.621 171.877 620.45 172.118 620.106C172.393 619.728 172.53 619.023 172.53 617.992V610.003C172.53 608.937 172.41 608.233 172.169 607.889C171.929 607.511 171.396 607.322 170.571 607.322H169.54V620.621H170.726ZM203.098 587.476H233.15V657.581H203.098V587.476ZM265.625 659.385C245.762 659.385 235.796 652.598 235.728 639.024V634.333H262.532V639.333C262.532 639.711 262.636 640.055 262.842 640.364C263.082 640.674 263.477 640.828 264.027 640.828C264.508 640.828 264.869 640.674 265.11 640.364C265.385 640.055 265.522 639.711 265.522 639.333C265.522 638.646 265.436 637.976 265.264 637.323C265.093 636.636 264.835 636.069 264.491 635.622C263.735 634.66 262.67 633.818 261.295 633.096C259.955 632.374 257.979 631.446 255.367 630.312C251.415 628.629 248.133 626.996 245.522 625.415C242.91 623.8 240.659 621.515 238.769 618.56C236.879 615.604 235.934 611.841 235.934 607.271V606.291C236.14 599.006 238.511 593.765 243.047 590.569C247.584 587.373 254.285 585.775 263.151 585.775C269.577 585.775 274.904 586.617 279.131 588.301C283.392 589.985 286.554 592.356 288.616 595.415C290.678 598.439 291.726 601.996 291.76 606.085V609.59H265.986V605.724C265.986 605.346 265.849 605.02 265.574 604.745C265.299 604.47 264.938 604.332 264.491 604.332C264.044 604.332 263.684 604.487 263.409 604.796C263.134 605.071 262.996 605.415 262.996 605.827C262.996 606.308 263.117 606.858 263.357 607.477C263.632 608.061 263.959 608.508 264.337 608.817C264.955 609.401 265.814 609.951 266.914 610.467C268.014 610.948 269.491 611.515 271.347 612.168C275.574 613.748 279.131 615.398 282.017 617.116C284.904 618.8 287.43 621.446 289.595 625.055C291.794 628.663 292.894 633.44 292.894 639.385V640.622C292.757 644.746 291.519 648.217 289.183 651.035C286.846 653.853 283.65 655.949 279.595 657.323C275.574 658.698 270.918 659.385 265.625 659.385ZM295.008 614.848C296.554 612.236 297.722 609.934 298.513 607.941C299.303 605.948 299.698 603.817 299.698 601.549H295.575L295.523 585.208H320.266V599.487C320.266 605.226 318.685 610.346 315.524 614.848H295.008ZM352.741 659.385C332.878 659.385 322.912 652.598 322.843 639.024V634.333H349.648V639.333C349.648 639.711 349.751 640.055 349.957 640.364C350.198 640.674 350.593 640.828 351.143 640.828C351.624 640.828 351.985 640.674 352.226 640.364C352.5 640.055 352.638 639.711 352.638 639.333C352.638 638.646 352.552 637.976 352.38 637.323C352.208 636.636 351.951 636.069 351.607 635.622C350.851 634.66 349.786 633.818 348.411 633.096C347.071 632.374 345.095 631.446 342.483 630.312C338.531 628.629 335.249 626.996 332.637 625.415C330.026 623.8 327.775 621.515 325.885 618.56C323.995 615.604 323.05 611.841 323.05 607.271V606.291C323.256 599.006 325.627 593.765 330.163 590.569C334.699 587.373 341.401 585.775 350.267 585.775C356.693 585.775 362.02 586.617 366.247 588.301C370.508 589.985 373.669 592.356 375.731 595.415C377.793 598.439 378.841 601.996 378.876 606.085V609.59H353.102V605.724C353.102 605.346 352.964 605.02 352.689 604.745C352.415 604.47 352.054 604.332 351.607 604.332C351.16 604.332 350.799 604.487 350.524 604.796C350.25 605.071 350.112 605.415 350.112 605.827C350.112 606.308 350.232 606.858 350.473 607.477C350.748 608.061 351.074 608.508 351.452 608.817C352.071 609.401 352.93 609.951 354.03 610.467C355.129 610.948 356.607 611.515 358.463 612.168C362.69 613.748 366.247 615.398 369.133 617.116C372.02 618.8 374.546 621.446 376.711 625.055C378.91 628.663 380.01 633.44 380.01 639.385V640.622C379.872 644.746 378.635 648.217 376.298 651.035C373.962 653.853 370.766 655.949 366.71 657.323C362.69 658.698 358.033 659.385 352.741 659.385Z" fill="white" fill-opacity="0.04"/>
<path d="M17.7666 666.937H38.3101C43.1699 666.937 47.1583 667.33 50.2754 668.115C53.4171 668.876 55.8838 670.386 57.6755 672.644C59.4672 674.877 60.3631 678.129 60.3631 682.4V690.058C60.314 694.108 59.3936 697.237 57.6018 699.446C55.8347 701.655 53.4907 703.152 50.5699 703.938C47.6492 704.698 44.078 705.079 39.8564 705.079H39.2305V717.007H17.7666V666.937ZM38.9728 692.488C39.4637 692.488 39.795 692.365 39.9669 692.12C40.1632 691.85 40.2614 691.359 40.2614 690.647V683.026C40.2614 682.265 40.1755 681.762 40.0037 681.516C39.8319 681.246 39.4514 681.111 38.8624 681.111H38.126V692.488H38.9728ZM61.6516 686.781C61.6516 679.835 63.6029 674.595 67.5054 671.061C71.408 667.502 77.1881 665.722 84.8459 665.722C92.5037 665.722 98.2838 667.502 102.186 671.061C106.089 674.62 108.04 679.884 108.04 686.855V696.942C108.04 703.962 106.089 709.264 102.186 712.847C98.2838 716.431 92.5037 718.222 84.8459 718.222C77.2126 718.222 71.4448 716.431 67.5422 712.847C63.6643 709.264 61.7007 703.962 61.6516 696.942V686.781ZM83.815 699.777C83.815 700.489 84.1587 700.845 84.8459 700.845C85.5331 700.845 85.8767 700.489 85.8767 699.777V683.983C85.8767 683.271 85.5331 682.915 84.8459 682.915C84.1587 682.915 83.815 683.271 83.815 683.983V699.777ZM132.192 717.007L131.418 701.618H129.983V717.007H109.66V666.937H130.204C135.063 666.937 139.052 667.33 142.169 668.115C145.31 668.876 147.777 670.386 149.569 672.644C151.361 674.877 152.256 678.129 152.256 682.4V688.143C152.256 692.414 150.98 695.629 148.428 697.789L152.404 717.007H132.192ZM130.866 690.61C131.357 690.61 131.688 690.487 131.86 690.242C132.057 689.972 132.155 689.469 132.155 688.732V683.026C132.155 682.265 132.069 681.762 131.897 681.516C131.725 681.246 131.345 681.111 130.756 681.111H130.019V690.61H130.866ZM160.246 682.216H153.398V666.937H188.373V682.216H181.599V717.007H160.246V682.216ZM189.699 666.937H222.723V680.854H211.126V687.665H220.44V701.324H211.126V716.971L189.699 717.007V666.937ZM223.275 686.781C223.275 679.835 225.226 674.595 229.129 671.061C233.031 667.502 238.812 665.722 246.469 665.722C254.127 665.722 259.907 667.502 263.81 671.061C267.712 674.62 269.664 679.884 269.664 686.855V696.942C269.664 703.962 267.712 709.264 263.81 712.847C259.907 716.431 254.127 718.222 246.469 718.222C238.836 718.222 233.068 716.431 229.166 712.847C225.288 709.264 223.324 703.962 223.275 696.942V686.781ZM245.438 699.777C245.438 700.489 245.782 700.845 246.469 700.845C247.157 700.845 247.5 700.489 247.5 699.777V683.983C247.5 683.271 247.157 682.915 246.469 682.915C245.782 682.915 245.438 683.271 245.438 683.983V699.777ZM271.284 666.937H292.747V702.17H301.767V717.007H271.284V666.937ZM303.387 666.937H324.851V717.007H303.387V666.937ZM326.508 686.781C326.508 679.835 328.459 674.595 332.362 671.061C336.264 667.502 342.044 665.722 349.702 665.722C357.36 665.722 363.14 667.502 367.043 671.061C370.945 674.62 372.896 679.884 372.896 686.855V696.942C372.896 703.962 370.945 709.264 367.043 712.847C363.14 716.431 357.36 718.222 349.702 718.222C342.069 718.222 336.301 716.431 332.399 712.847C328.521 709.264 326.557 703.962 326.508 696.942V686.781ZM348.671 699.777C348.671 700.489 349.015 700.845 349.702 700.845C350.389 700.845 350.733 700.489 350.733 699.777V683.983C350.733 683.271 350.389 682.915 349.702 682.915C349.015 682.915 348.671 683.271 348.671 683.983V699.777Z" fill="white" fill-opacity="0.04"/>
<path d="M42.1142 801.073C31.4266 801.073 23.3508 798.564 17.8868 793.547C12.4227 788.53 9.69068 781.107 9.69068 771.278V757.154C9.69068 747.394 12.4227 740.023 17.8868 735.04C23.3508 730.057 31.4266 727.566 42.1142 727.566C52.5956 727.566 60.5683 729.971 66.0324 734.782C71.4964 739.559 74.3487 746.638 74.5893 756.02V762.721L43.5576 762.773V753.133C43.5576 752.137 43.0593 751.639 42.0627 751.639C41.0661 751.639 40.5678 752.137 40.5678 753.133V775.247C40.5678 776.244 41.0661 776.742 42.0627 776.742C43.0593 776.742 43.5576 776.244 43.5576 775.247V765.866H74.5893V772.515C74.3144 781.931 71.4277 789.045 65.9293 793.856C60.4652 798.667 52.5269 801.073 42.1142 801.073ZM76.909 729.267H106.137V755.041H109.023V729.267H138.354V799.372H109.023V774.216H106.137V799.372H76.909V729.267ZM172.582 799.372L171.499 777.825H169.489V799.372H141.034V729.267H169.798C176.602 729.267 182.187 729.817 186.551 730.916C190.95 731.982 194.403 734.095 196.912 737.257C199.421 740.384 200.675 744.937 200.675 750.917V758.958C200.675 764.938 198.888 769.44 195.314 772.464L200.881 799.372H172.582ZM170.726 762.412C171.413 762.412 171.877 762.24 172.118 761.897C172.393 761.519 172.53 760.814 172.53 759.783V751.793C172.53 750.728 172.41 750.023 172.169 749.68C171.929 749.302 171.396 749.113 170.571 749.113H169.54V762.412H170.726ZM203.098 729.267H233.15V799.372H203.098V729.267ZM265.625 801.176C245.762 801.176 235.796 794.389 235.728 780.815V776.124H262.532V781.124C262.532 781.502 262.636 781.846 262.842 782.155C263.082 782.464 263.477 782.619 264.027 782.619C264.508 782.619 264.869 782.464 265.11 782.155C265.385 781.846 265.522 781.502 265.522 781.124C265.522 780.437 265.436 779.766 265.264 779.113C265.093 778.426 264.835 777.859 264.491 777.412C263.735 776.45 262.67 775.608 261.295 774.887C259.955 774.165 257.979 773.237 255.367 772.103C251.415 770.419 248.133 768.787 245.522 767.206C242.91 765.591 240.659 763.306 238.769 760.35C236.879 757.395 235.934 753.632 235.934 749.061V748.082C236.14 740.796 238.511 735.556 243.047 732.36C247.584 729.164 254.285 727.566 263.151 727.566C269.577 727.566 274.904 728.408 279.131 730.092C283.392 731.775 286.554 734.147 288.616 737.205C290.678 740.229 291.726 743.786 291.76 747.876V751.381H265.986V747.515C265.986 747.137 265.849 746.81 265.574 746.535C265.299 746.26 264.938 746.123 264.491 746.123C264.044 746.123 263.684 746.278 263.409 746.587C263.134 746.862 262.996 747.205 262.996 747.618C262.996 748.099 263.117 748.649 263.357 749.267C263.632 749.852 263.959 750.298 264.337 750.608C264.955 751.192 265.814 751.742 266.914 752.257C268.014 752.738 269.491 753.305 271.347 753.958C275.574 755.539 279.131 757.189 282.017 758.907C284.904 760.591 287.43 763.237 289.595 766.845C291.794 770.453 292.894 775.23 292.894 781.175V782.413C292.757 786.536 291.519 790.007 289.183 792.825C286.846 795.643 283.65 797.739 279.595 799.114C275.574 800.489 270.918 801.176 265.625 801.176ZM295.008 756.639C296.554 754.027 297.722 751.724 298.513 749.731C299.303 747.738 299.698 745.607 299.698 743.339H295.575L295.523 726.999H320.266V741.277C320.266 747.016 318.685 752.137 315.524 756.639H295.008ZM352.741 801.176C332.878 801.176 322.912 794.389 322.843 780.815V776.124H349.648V781.124C349.648 781.502 349.751 781.846 349.957 782.155C350.198 782.464 350.593 782.619 351.143 782.619C351.624 782.619 351.985 782.464 352.226 782.155C352.5 781.846 352.638 781.502 352.638 781.124C352.638 780.437 352.552 779.766 352.38 779.113C352.208 778.426 351.951 777.859 351.607 777.412C350.851 776.45 349.786 775.608 348.411 774.887C347.071 774.165 345.095 773.237 342.483 772.103C338.531 770.419 335.249 768.787 332.637 767.206C330.026 765.591 327.775 763.306 325.885 760.35C323.995 757.395 323.05 753.632 323.05 749.061V748.082C323.256 740.796 325.627 735.556 330.163 732.36C334.699 729.164 341.401 727.566 350.267 727.566C356.693 727.566 362.02 728.408 366.247 730.092C370.508 731.775 373.669 734.147 375.731 737.205C377.793 740.229 378.841 743.786 378.876 747.876V751.381H353.102V747.515C353.102 747.137 352.964 746.81 352.689 746.535C352.415 746.26 352.054 746.123 351.607 746.123C351.16 746.123 350.799 746.278 350.524 746.587C350.25 746.862 350.112 747.205 350.112 747.618C350.112 748.099 350.232 748.649 350.473 749.267C350.748 749.852 351.074 750.298 351.452 750.608C352.071 751.192 352.93 751.742 354.03 752.257C355.129 752.738 356.607 753.305 358.463 753.958C362.69 755.539 366.247 757.189 369.133 758.907C372.02 760.591 374.546 763.237 376.711 766.845C378.91 770.453 380.01 775.23 380.01 781.175V782.413C379.872 786.536 378.635 790.007 376.298 792.825C373.962 795.643 370.766 797.739 366.71 799.114C362.69 800.489 358.033 801.176 352.741 801.176Z" fill="white" fill-opacity="0.04"/>
<path d="M17.7666 808.728H38.3101C43.1699 808.728 47.1583 809.12 50.2754 809.906C53.4171 810.667 55.8838 812.176 57.6755 814.434C59.4672 816.668 60.3631 819.92 60.3631 824.191V831.848C60.314 835.898 59.3936 839.028 57.6018 841.236C55.8347 843.445 53.4907 844.943 50.5699 845.728C47.6492 846.489 44.078 846.869 39.8564 846.869H39.2305V858.798H17.7666V808.728ZM38.9728 834.278C39.4637 834.278 39.795 834.155 39.9669 833.91C40.1632 833.64 40.2614 833.149 40.2614 832.437V824.816C40.2614 824.056 40.1755 823.552 40.0037 823.307C39.8319 823.037 39.4514 822.902 38.8624 822.902H38.126V834.278H38.9728ZM61.6516 828.572C61.6516 821.626 63.6029 816.386 67.5054 812.851C71.408 809.292 77.1881 807.513 84.8459 807.513C92.5037 807.513 98.2838 809.292 102.186 812.851C106.089 816.41 108.04 821.675 108.04 828.645V838.733C108.04 845.753 106.089 851.054 102.186 854.638C98.2838 858.221 92.5037 860.013 84.8459 860.013C77.2126 860.013 71.4448 858.221 67.5422 854.638C63.6643 851.054 61.7007 845.753 61.6516 838.733V828.572ZM83.815 841.568C83.815 842.28 84.1587 842.636 84.8459 842.636C85.5331 842.636 85.8767 842.28 85.8767 841.568V825.774C85.8767 825.062 85.5331 824.706 84.8459 824.706C84.1587 824.706 83.815 825.062 83.815 825.774V841.568ZM132.192 858.798L131.418 843.409H129.983V858.798H109.66V808.728H130.204C135.063 808.728 139.052 809.12 142.169 809.906C145.31 810.667 147.777 812.176 149.569 814.434C151.361 816.668 152.256 819.92 152.256 824.191V829.934C152.256 834.205 150.98 837.42 148.428 839.58L152.404 858.798H132.192ZM130.866 832.401C131.357 832.401 131.688 832.278 131.86 832.032C132.057 831.762 132.155 831.259 132.155 830.523V824.816C132.155 824.056 132.069 823.552 131.897 823.307C131.725 823.037 131.345 822.902 130.756 822.902H130.019V832.401H130.866ZM160.246 824.006H153.398V808.728H188.373V824.006H181.599V858.798H160.246V824.006ZM189.699 808.728H222.723V822.644H211.126V829.455H220.44V843.114H211.126V858.761L189.699 858.798V808.728ZM223.275 828.572C223.275 821.626 225.226 816.386 229.129 812.851C233.031 809.292 238.812 807.513 246.469 807.513C254.127 807.513 259.907 809.292 263.81 812.851C267.712 816.41 269.664 821.675 269.664 828.645V838.733C269.664 845.753 267.712 851.054 263.81 854.638C259.907 858.221 254.127 860.013 246.469 860.013C238.836 860.013 233.068 858.221 229.166 854.638C225.288 851.054 223.324 845.753 223.275 838.733V828.572ZM245.438 841.568C245.438 842.28 245.782 842.636 246.469 842.636C247.157 842.636 247.5 842.28 247.5 841.568V825.774C247.5 825.062 247.157 824.706 246.469 824.706C245.782 824.706 245.438 825.062 245.438 825.774V841.568ZM271.284 808.728H292.747V843.961H301.767V858.798H271.284V808.728ZM303.387 808.728H324.851V858.798H303.387V808.728ZM326.508 828.572C326.508 821.626 328.459 816.386 332.362 812.851C336.264 809.292 342.044 807.513 349.702 807.513C357.36 807.513 363.14 809.292 367.043 812.851C370.945 816.41 372.896 821.675 372.896 828.645V838.733C372.896 845.753 370.945 851.054 367.043 854.638C363.14 858.221 357.36 860.013 349.702 860.013C342.069 860.013 336.301 858.221 332.399 854.638C328.521 851.054 326.557 845.753 326.508 838.733V828.572ZM348.671 841.568C348.671 842.28 349.015 842.636 349.702 842.636C350.389 842.636 350.733 842.28 350.733 841.568V825.774C350.733 825.062 350.389 824.706 349.702 824.706C349.015 824.706 348.671 825.062 348.671 825.774V841.568Z" fill="white" fill-opacity="0.04"/>
</g>
</svg>
