<svg width="37" height="37" viewBox="0 0 37 37" fill="none" xmlns="http://www.w3.org/2000/svg">
<path d="M31.3221 6.40653C28.9638 5.32446 26.4349 4.52724 23.7908 4.07064C23.7427 4.06183 23.6946 4.08385 23.6698 4.1279C23.3445 4.70635 22.9843 5.461 22.732 6.05414C19.8881 5.62838 17.0588 5.62838 14.2732 6.05414C14.0209 5.44781 13.6476 4.70635 13.3209 4.1279C13.2961 4.08532 13.248 4.0633 13.1998 4.07064C10.5572 4.52578 8.02832 5.323 5.66861 6.40653C5.64818 6.41534 5.63067 6.43003 5.61905 6.44911C0.822312 13.6153 -0.491715 20.6054 0.152903 27.5088C0.155819 27.5426 0.174779 27.5749 0.20103 27.5954C3.36578 29.9196 6.43138 31.3305 9.44005 32.2657C9.48821 32.2804 9.53923 32.2628 9.56987 32.2232C10.2816 31.2513 10.916 30.2265 11.4599 29.1488C11.492 29.0857 11.4614 29.0108 11.3958 28.9858C10.3895 28.6041 9.4313 28.1387 8.50958 27.6101C8.43668 27.5676 8.43084 27.4633 8.49791 27.4134C8.69187 27.268 8.88589 27.1168 9.0711 26.9641C9.10461 26.9362 9.1513 26.9303 9.1907 26.9479C15.246 29.7126 21.8015 29.7126 27.7854 26.9479C27.8248 26.9289 27.8715 26.9348 27.9064 26.9626C28.0917 27.1153 28.2857 27.268 28.4811 27.4134C28.5482 27.4633 28.5438 27.5676 28.4709 27.6101C27.5492 28.1489 26.591 28.6041 25.5832 28.9844C25.5176 29.0093 25.4884 29.0857 25.5205 29.1488C26.0761 30.2249 26.7106 31.2497 27.4091 32.2217C27.4383 32.2628 27.4908 32.2804 27.5389 32.2657C30.5622 31.3305 33.6278 29.9196 36.7925 27.5954C36.8203 27.5749 36.8378 27.5441 36.8407 27.5103C37.6122 19.5292 35.5485 12.5964 31.3702 6.45056C31.3599 6.43003 31.3425 6.41534 31.3221 6.40653ZM12.3642 23.3054C10.5411 23.3054 9.039 21.6317 9.039 19.5762C9.039 17.5207 10.512 15.847 12.3642 15.847C14.2309 15.847 15.7185 17.5354 15.6894 19.5762C15.6894 21.6317 14.2163 23.3054 12.3642 23.3054ZM24.6586 23.3054C22.8356 23.3054 21.3334 21.6317 21.3334 19.5762C21.3334 17.5207 22.8064 15.847 24.6586 15.847C26.5254 15.847 28.0129 17.5354 27.9838 19.5762C27.9838 21.6317 26.5254 23.3054 24.6586 23.3054Z" fill="white"/>
</svg>
