<svg width="37" height="37" viewBox="0 0 37 37" fill="none" xmlns="http://www.w3.org/2000/svg">
<g clip-path="url(#clip0_354_1063)">
<path d="M34.2611 0H2.73164C1.22129 0 0 1.19238 0 2.6666V34.3262C0 35.8004 1.22129 37 2.73164 37H34.2611C35.7715 37 37 35.8004 37 34.3334V2.6666C37 1.19238 35.7715 0 34.2611 0ZM10.9771 31.5295H5.48496V13.8678H10.9771V31.5295ZM8.23105 11.4613C6.46777 11.4613 5.04414 10.0377 5.04414 8.28164C5.04414 6.52559 6.46777 5.10195 8.23105 5.10195C9.98711 5.10195 11.4107 6.52559 11.4107 8.28164C11.4107 10.0305 9.98711 11.4613 8.23105 11.4613ZM31.5295 31.5295H26.0445V22.9443C26.0445 20.8992 26.0084 18.2615 23.19 18.2615C20.3355 18.2615 19.902 20.4945 19.902 22.7998V31.5295H14.4242V13.8678H19.6852V16.2814H19.7574C20.4873 14.8939 22.2795 13.427 24.9461 13.427C30.5033 13.427 31.5295 17.0836 31.5295 21.8387V31.5295Z" fill="white"/>
</g>
<defs>
<clipPath id="clip0_354_1063">
<rect width="37" height="37" fill="white"/>
</clipPath>
</defs>
</svg>
