<svg width="337" height="399" viewBox="0 0 337 399" fill="none" xmlns="http://www.w3.org/2000/svg">
<path d="M50.7538 107.927C41.2739 107.927 32.8879 105.694 25.5957 101.227L23.1163 105.451H0V6.55428H41.4198V25.6345L40.253 31.8975C43.5102 27.4309 49.0766 25.1976 56.9522 25.1976C64.4388 25.1976 70.0781 28.0378 73.8701 33.7181C77.662 39.3985 79.558 47.7977 79.558 58.9157V74.209C79.558 85.327 77.1273 93.7262 72.2658 99.4066C67.4529 105.087 60.2823 107.927 50.7538 107.927ZM39.0862 81.4187C39.9613 81.4187 40.6905 80.9332 41.2739 79.9622V56.2212C41.2739 53.2596 40.5933 51.7788 39.2321 51.7788C38.3084 51.7788 37.5549 52.2401 36.9715 53.1625V76.9036C36.9715 79.9137 37.6764 81.4187 39.0862 81.4187Z" fill="#1929FE"/>
<path d="M121.561 107.854C108.581 107.854 98.7608 105.305 92.1006 100.208C85.489 95.1099 82.1832 87.5604 82.1832 77.559V27.8921H119.373V77.7047C119.373 79.8409 120.078 80.909 121.488 80.909C122.898 80.909 123.603 79.8409 123.603 77.7047V27.8921H160.72V78.4329C160.72 88.143 157.414 95.474 150.803 100.426C144.24 105.378 134.493 107.854 121.561 107.854Z" fill="#1929FE"/>
<path d="M184.93 28.3291C179.145 28.3291 174.673 27.9164 171.513 27.091C168.353 26.2657 166.092 24.8577 164.731 22.8672C163.418 20.8281 162.762 17.9393 162.762 14.2009C162.762 10.414 163.443 7.52529 164.804 5.53473C166.165 3.49562 168.426 2.06339 171.586 1.23803C174.746 0.412677 179.243 0 185.076 0C190.91 0 195.407 0.412677 198.567 1.23803C201.727 2.06339 203.987 3.49562 205.349 5.53473C206.71 7.52529 207.39 10.414 207.39 14.2009C207.39 17.9393 206.71 20.8281 205.349 22.8672C203.987 24.8577 201.703 26.2657 198.494 27.091C195.334 27.9164 190.813 28.3291 184.93 28.3291ZM164.221 29.1301C171.124 30.1497 178.222 30.6595 185.514 30.6595C189.549 30.6595 193.341 30.5138 196.89 30.2225C200.439 29.9312 203.428 29.5671 205.859 29.1301V105.451H164.221V29.1301Z" fill="#1929FE"/>
<path d="M209.724 6.40863H251.362V105.451H209.724V6.40863Z" fill="#1929FE"/>
<path d="M276.302 108C269.107 108 263.662 105.16 259.967 99.4794C256.273 93.7991 254.425 85.3756 254.425 74.209V58.9157C254.425 47.7977 256.321 39.3985 260.113 33.7181C263.954 28.0378 269.593 25.1976 277.031 25.1976C280.969 25.1976 284.348 25.7802 287.167 26.9454C289.987 28.062 292.199 29.7127 293.803 31.8975L292.563 25.6345V6.55428H333.983V105.451H298.616L294.97 97.7316C292.296 104.577 286.073 108 276.302 108ZM294.168 81.2003C294.848 81.2003 295.359 80.9575 295.699 80.472C296.088 79.938 296.282 79.1854 296.282 78.2144V52.7256C295.65 52.143 294.97 51.8517 294.241 51.8517C293.56 51.8517 293.05 52.4343 292.709 53.5995C292.369 54.7161 292.199 56.3911 292.199 58.6244V74.7188C292.199 76.8065 292.369 78.4086 292.709 79.5253C293.05 80.6419 293.536 81.2003 294.168 81.2003Z" fill="#1929FE"/>
<path d="M21.3486 202.611C17.4671 202.611 13.8859 201.779 10.605 200.116C7.37036 198.452 4.78265 196.118 2.84186 193.114C0.947288 190.064 0 186.528 0 182.508V174.397C0.0462092 168.713 1.29386 164.6 3.74294 162.058C6.23824 159.47 9.77324 157.852 14.3479 157.205C18.9689 156.558 25.9696 156.235 35.35 156.235C35.6735 156.235 36.1587 156.258 36.8056 156.304C37.4525 156.304 38.446 156.304 39.7861 156.304V149.372C39.7861 147.939 39.6475 146.922 39.3702 146.322C39.1392 145.721 38.5847 145.42 37.7067 145.42C36.4128 145.42 35.7659 146.437 35.7659 148.471V153.947L3.535 154.016V148.609C3.58121 142.832 4.87507 138.165 7.41657 134.606C10.0043 131.048 14.0938 128.413 19.6851 126.704C25.2764 124.994 32.693 124.139 41.9348 124.139C48.0806 124.139 53.6026 124.924 58.5008 126.496C63.4452 128.067 67.373 130.586 70.2841 134.052C73.2415 137.472 74.7202 141.839 74.7202 147.154V200.323H41.5882L38.0532 192.837C36.7594 196.072 34.7031 198.521 31.8843 200.185C29.0656 201.802 25.5537 202.611 21.3486 202.611ZM37.4294 180.289C38.0301 180.289 38.5615 180.058 39.0236 179.596C39.4857 179.088 39.7399 178.372 39.7861 177.447V167.049H39.0236C37.6836 167.141 36.8056 167.465 36.3897 168.019C35.9738 168.574 35.7659 169.406 35.7659 170.515V178.418C35.7659 178.972 35.9045 179.411 36.1818 179.735C36.5052 180.058 36.9211 180.243 37.4294 180.289Z" fill="#1929FE"/>
<path d="M132.667 124C139.737 124 145.051 126.727 148.609 132.18C152.213 137.587 154.015 145.605 154.015 156.235V170.792C154.015 181.375 152.144 189.371 148.401 194.778C144.658 200.139 139.113 202.819 131.765 202.819C127.052 202.819 121.715 201.733 115.754 199.561V220.773H78.3938V126.496H111.457L114.992 134.26C116.193 130.886 118.272 128.344 121.23 126.634C124.233 124.878 128.046 124 132.667 124ZM117.625 152.977C117.625 151.821 117.441 150.943 117.071 150.342C116.747 149.695 116.262 149.372 115.615 149.372C114.968 149.372 114.46 149.695 114.09 150.342C113.721 150.989 113.536 151.937 113.536 153.185V174.05C113.767 176.407 114.483 177.586 115.685 177.586C116.47 177.586 117.117 177.17 117.625 176.338V152.977Z" fill="#1929FE"/>
<path d="M210.714 124C217.784 124 223.098 126.727 226.656 132.18C230.26 137.587 232.062 145.605 232.062 156.235V170.792C232.062 181.375 230.191 189.371 226.448 194.778C222.705 200.139 217.16 202.819 209.813 202.819C205.099 202.819 199.762 201.733 193.801 199.561V220.773H156.441V126.496H189.504L193.039 134.26C194.24 130.886 196.32 128.344 199.277 126.634C202.281 124.878 206.093 124 210.714 124ZM195.673 152.977C195.673 151.821 195.488 150.943 195.118 150.342C194.795 149.695 194.31 149.372 193.663 149.372C193.016 149.372 192.507 149.695 192.138 150.342C191.768 150.989 191.583 151.937 191.583 153.185V174.05C191.814 176.407 192.53 177.586 193.732 177.586C194.517 177.586 195.164 177.17 195.673 176.338V152.977Z" fill="#1929FE"/>
<path d="M269.284 202.75C245.532 202.75 233.61 195.448 233.518 180.844V175.784L266.026 176.754V181.884C266.026 183.224 266.65 183.894 267.898 183.894C268.545 183.894 269.03 183.732 269.353 183.409C269.723 183.085 269.908 182.508 269.908 181.676C269.908 180.012 269.261 178.256 267.967 176.407C267.228 175.76 266.142 175.183 264.709 174.674C263.323 174.12 261.405 173.473 258.956 172.733C254.012 171.301 249.83 169.799 246.41 168.227C243.037 166.61 240.08 164.137 237.538 160.81C234.997 157.483 233.726 153.092 233.726 147.639V146.322C233.726 138.511 236.429 132.873 241.836 129.407C247.288 125.941 255.49 124.208 266.442 124.208C289.223 124.208 300.614 131.51 300.614 146.114V150.342L269.353 149.857V144.727C269.353 144.311 269.168 143.919 268.799 143.549C268.475 143.179 268.013 142.994 267.412 142.994C266.627 142.994 266.095 143.202 265.818 143.618C265.587 144.034 265.472 144.45 265.472 144.866C265.472 145.883 265.68 146.761 266.095 147.5C266.511 148.24 267.204 148.887 268.175 149.441C269.007 150.365 270.162 151.105 271.641 151.659C273.165 152.214 275.291 152.838 278.017 153.531C282.823 154.825 286.82 156.258 290.009 157.829C293.243 159.4 296.039 162.035 298.396 165.732C300.799 169.383 302 174.42 302 180.844V182.508C302 186.944 300.614 190.688 297.841 193.738C295.069 196.742 291.233 198.983 286.335 200.462C281.437 201.987 275.753 202.75 269.284 202.75Z" fill="#1929FE"/>
<path d="M40.9146 319.909C21.0488 319.909 11.0773 313.796 11 301.568V297.331L38.1898 298.144V302.439C38.1898 303.561 38.7115 304.122 39.7551 304.122C40.2962 304.122 40.702 303.987 40.9725 303.716C41.2817 303.445 41.4363 302.961 41.4363 302.265C41.4363 300.872 40.8952 299.401 39.8131 297.854C39.1947 297.312 38.2864 296.828 37.0883 296.403C35.9288 295.938 34.3249 295.397 32.2764 294.778C28.141 293.578 24.6432 292.32 21.7832 291.005C18.9618 289.651 16.4882 287.58 14.3625 284.794C12.2368 282.008 11.1739 278.333 11.1739 273.767V272.664C11.1739 266.125 13.4349 261.404 17.9569 258.502C22.5175 255.6 29.3777 254.149 38.5376 254.149C57.5917 254.149 67.1188 260.262 67.1188 272.49V276.03L40.9725 275.624V271.329C40.9725 270.981 40.8179 270.652 40.5087 270.342C40.2382 270.033 39.8517 269.878 39.3493 269.878C38.6922 269.878 38.2478 270.052 38.0159 270.4C37.8226 270.748 37.726 271.097 37.726 271.445C37.726 272.296 37.8999 273.031 38.2478 273.651C38.5956 274.27 39.1753 274.811 39.987 275.276C40.6827 276.05 41.6489 276.669 42.8857 277.133C44.1611 277.597 45.939 278.12 48.2193 278.7C52.2388 279.784 55.582 280.983 58.2488 282.299C60.9542 283.614 63.2925 285.82 65.2636 288.915C67.2734 291.972 68.2783 296.19 68.2783 301.568V302.961C68.2783 306.676 67.1188 309.81 64.7998 312.364C62.4809 314.879 59.273 316.756 55.1762 317.994C51.0793 319.271 46.3255 319.909 40.9146 319.909Z" fill="#1929FE"/>
<path d="M70.8871 239H103.99L104.048 255.658C106.213 255.116 108.184 254.729 109.962 254.497C111.739 254.265 113.826 254.149 116.223 254.149C120.783 254.149 124.339 254.942 126.89 256.528C129.441 258.115 131.257 260.746 132.339 264.422C133.46 268.098 134.021 273.225 134.021 279.803V317.878H103.816V280.267C103.816 278.333 103.7 277.017 103.468 276.32C103.275 275.585 102.869 275.218 102.251 275.218C101.71 275.218 101.304 275.585 101.034 276.32C100.763 277.017 100.589 278.274 100.512 280.093V317.878H70.8871V239Z" fill="#1929FE"/>
<path d="M154.601 319.793C151.355 319.793 148.36 319.097 145.616 317.704C142.91 316.311 140.746 314.357 139.122 311.842C137.538 309.288 136.746 306.328 136.746 302.961V296.17C136.784 291.411 137.828 287.967 139.876 285.839C141.963 283.672 144.92 282.318 148.746 281.776C152.611 281.235 158.466 280.964 166.312 280.964C166.583 280.964 166.989 280.983 167.53 281.022C168.071 281.022 168.902 281.022 170.023 281.022V275.218C170.023 274.018 169.907 273.167 169.675 272.664C169.481 272.161 169.018 271.909 168.283 271.909C167.201 271.909 166.66 272.761 166.66 274.463V279.048L139.702 279.106V274.579C139.741 269.742 140.823 265.834 142.949 262.855C145.113 259.875 148.534 257.67 153.21 256.238C157.887 254.807 164.09 254.091 171.82 254.091C176.96 254.091 181.579 254.748 185.676 256.064C189.811 257.38 193.096 259.489 195.531 262.391C198.005 265.254 199.241 268.911 199.241 273.36V317.878H171.53L168.573 311.609C167.491 314.318 165.771 316.369 163.414 317.762C161.056 319.116 158.119 319.793 154.601 319.793ZM168.051 301.104C168.554 301.104 168.998 300.911 169.385 300.524C169.771 300.098 169.984 299.498 170.023 298.724V290.018H169.385C168.264 290.096 167.53 290.366 167.182 290.831C166.834 291.295 166.66 291.992 166.66 292.92V299.537C166.66 300.001 166.776 300.369 167.008 300.64C167.278 300.911 167.626 301.065 168.051 301.104Z" fill="#1929FE"/>
<path d="M247.708 253.975C253.621 253.975 258.066 256.258 261.042 260.823C264.056 265.351 265.564 272.064 265.564 280.964V293.152C265.564 302.013 263.998 308.707 260.868 313.235C257.737 317.723 253.099 319.967 246.954 319.967C243.012 319.967 238.548 319.058 233.562 317.239V335H202.314V256.064H229.968L232.924 262.565C233.929 259.74 235.668 257.612 238.142 256.18C240.654 254.71 243.843 253.975 247.708 253.975ZM235.127 278.236C235.127 277.268 234.973 276.533 234.664 276.03C234.393 275.489 233.987 275.218 233.446 275.218C232.905 275.218 232.48 275.489 232.171 276.03C231.861 276.572 231.707 277.365 231.707 278.41V295.88C231.9 297.854 232.499 298.84 233.504 298.84C234.161 298.84 234.702 298.492 235.127 297.796V278.236Z" fill="#1929FE"/>
<path d="M297.043 294.139V303.426C297.043 304.548 297.623 305.109 298.783 305.109C299.865 305.109 300.406 304.548 300.406 303.426V297.505H328.929V302.613C327.345 308.262 324.001 312.538 318.9 315.44C313.837 318.342 307.131 319.793 298.783 319.793C288.309 319.793 280.386 317.53 275.013 313.002C269.641 308.475 266.955 301.781 266.955 292.92V280.79C266.955 272.006 269.622 265.37 274.955 260.882C280.328 256.393 288.27 254.149 298.783 254.149C309.257 254.149 317.16 256.296 322.494 260.591C327.866 264.886 330.552 271.252 330.552 279.687C330.552 281.854 330.282 286.671 329.741 294.139H297.043ZM298.783 271.097C297.623 271.097 297.043 271.658 297.043 272.78V281.776H300.406V272.78C300.406 271.658 299.865 271.097 298.783 271.097Z" fill="#1929FE"/>
<path d="M25.293 379.613V384.019C25.293 384.551 25.5684 384.818 26.1192 384.818C26.6333 384.818 26.8903 384.551 26.8903 384.019V381.21H40.4397V383.633C39.687 386.314 38.0989 388.343 35.6754 389.719C33.2703 391.096 30.0849 391.785 26.1192 391.785C21.1437 391.785 17.38 390.711 14.828 388.563C12.276 386.415 11 383.239 11 379.034V373.279C11 369.111 12.2668 365.963 14.8004 363.833C17.3524 361.703 21.1254 360.639 26.1192 360.639C31.0946 360.639 34.8492 361.657 37.3828 363.695C39.9348 365.733 41.2108 368.753 41.2108 372.756C41.2108 373.784 41.0823 376.069 40.8253 379.613H25.293ZM26.1192 368.68C25.5684 368.68 25.293 368.946 25.293 369.478V373.747H26.8903V369.478C26.8903 368.946 26.6333 368.68 26.1192 368.68Z" fill="#1929FE"/>
<path d="M43.8271 376.281L40.2469 361.547H55.6966L56.33 371.792H56.7982L57.5968 361.547H73.0189L69.3011 375.84L73.432 390.876H57.6244L56.9359 380.907H56.4402L55.6691 390.876H39.8338L43.8271 376.281Z" fill="#1929FE"/>
<path d="M95.8767 360.556C98.6857 360.556 100.797 361.639 102.211 363.806C103.643 365.954 104.359 369.139 104.359 373.361V379.145C104.359 383.349 103.615 386.525 102.128 388.673C100.641 390.803 98.4379 391.867 95.5187 391.867C93.646 391.867 91.5255 391.436 89.1571 390.573V399H74.3133V361.547H87.4496L88.8541 364.632C89.3315 363.291 90.1577 362.282 91.3327 361.602C92.5261 360.905 94.0407 360.556 95.8767 360.556ZM89.9006 372.067C89.9006 371.608 89.8272 371.259 89.6803 371.021C89.5518 370.764 89.359 370.635 89.102 370.635C88.845 370.635 88.643 370.764 88.4961 371.021C88.3493 371.278 88.2758 371.654 88.2758 372.15V380.439C88.3676 381.375 88.6522 381.843 89.1295 381.843C89.4417 381.843 89.6987 381.678 89.9006 381.348V372.067Z" fill="#1929FE"/>
<path d="M119.313 379.613V384.019C119.313 384.551 119.588 384.818 120.139 384.818C120.653 384.818 120.91 384.551 120.91 384.019V381.21H134.46V383.633C133.707 386.314 132.119 388.343 129.695 389.719C127.29 391.096 124.105 391.785 120.139 391.785C115.164 391.785 111.4 390.711 108.848 388.563C106.296 386.415 105.02 383.239 105.02 379.034V373.279C105.02 369.111 106.287 365.963 108.82 363.833C111.372 361.703 115.145 360.639 120.139 360.639C125.114 360.639 128.869 361.657 131.403 363.695C133.955 365.733 135.231 368.753 135.231 372.756C135.231 373.784 135.102 376.069 134.845 379.613H119.313ZM120.139 368.68C119.588 368.68 119.313 368.946 119.313 369.478V373.747H120.91V369.478C120.91 368.946 120.653 368.68 120.139 368.68Z" fill="#1929FE"/>
<path d="M136.36 361.547H148.753L150.68 363.53C151.451 361.951 152.672 361.162 154.343 361.162C155.445 361.162 156.381 361.281 157.152 361.52V371.627C157.115 371.608 156.546 371.599 155.445 371.599C153.223 371.599 152.112 372.792 152.112 375.179V390.876H136.36V361.547Z" fill="#1929FE"/>
<path d="M165.965 361.713C163.78 361.713 162.091 361.557 160.897 361.244C159.704 360.932 158.85 360.4 158.336 359.647C157.841 358.876 157.593 357.784 157.593 356.37C157.593 354.938 157.85 353.846 158.364 353.093C158.878 352.322 159.732 351.78 160.925 351.468C162.118 351.156 163.817 351 166.02 351C168.223 351 169.921 351.156 171.115 351.468C172.308 351.78 173.162 352.322 173.676 353.093C174.19 353.846 174.447 354.938 174.447 356.37C174.447 357.784 174.19 358.876 173.676 359.647C173.162 360.4 172.299 360.932 171.087 361.244C169.894 361.557 168.186 361.713 165.965 361.713ZM158.144 362.015C160.751 362.401 163.431 362.594 166.185 362.594C167.709 362.594 169.141 362.539 170.481 362.429C171.821 362.318 172.951 362.181 173.869 362.015V390.876H158.144V362.015Z" fill="#1929FE"/>
<path d="M189.318 379.613V384.019C189.318 384.551 189.594 384.818 190.144 384.818C190.658 384.818 190.915 384.551 190.915 384.019V381.21H204.465V383.633C203.712 386.314 202.124 388.343 199.701 389.719C197.295 391.096 194.11 391.785 190.144 391.785C185.169 391.785 181.405 390.711 178.853 388.563C176.301 386.415 175.025 383.239 175.025 379.034V373.279C175.025 369.111 176.292 365.963 178.826 363.833C181.378 361.703 185.151 360.639 190.144 360.639C195.12 360.639 198.874 361.657 201.408 363.695C203.96 365.733 205.236 368.753 205.236 372.756C205.236 373.784 205.108 376.069 204.85 379.613H189.318ZM190.144 368.68C189.594 368.68 189.318 368.946 189.318 369.478V373.747H190.915V369.478C190.915 368.946 190.658 368.68 190.144 368.68Z" fill="#1929FE"/>
<path d="M206.365 361.547H219.143L220.713 363.943C221.319 362.97 222.228 362.172 223.44 361.547C224.651 360.923 226.139 360.611 227.901 360.611C230.857 360.611 233.005 361.602 234.345 363.585C235.686 365.568 236.356 368.625 236.356 372.756V390.876H222.008V372.976C222.008 372.242 221.98 371.709 221.925 371.379C221.87 371.03 221.787 370.819 221.677 370.745C221.585 370.653 221.438 370.608 221.236 370.608C220.906 370.608 220.686 370.782 220.576 371.131C220.484 371.461 220.438 372.122 220.438 373.114V390.876H206.365V361.547Z" fill="#1929FE"/>
<path d="M252.604 391.785C247.628 391.785 243.865 390.711 241.313 388.563C238.761 386.415 237.485 383.239 237.485 379.034V373.279C237.485 369.111 238.752 365.963 241.285 363.833C243.837 361.703 247.61 360.639 252.604 360.639C257.451 360.639 261.141 361.657 263.675 363.695C266.227 365.733 267.567 368.753 267.696 372.756V375.482H253.375V372.067C253.375 371.535 253.118 371.269 252.604 371.269C252.053 371.269 251.778 371.535 251.778 372.067V380.384C251.778 380.916 252.053 381.182 252.604 381.182C253.118 381.182 253.375 380.916 253.375 380.384V376.749H267.696V379.503C267.567 383.56 266.236 386.626 263.702 388.701C261.169 390.757 257.469 391.785 252.604 391.785Z" fill="#1929FE"/>
<path d="M282.842 379.613V384.019C282.842 384.551 283.118 384.818 283.669 384.818C284.183 384.818 284.44 384.551 284.44 384.019V381.21H297.989V383.633C297.236 386.314 295.648 388.343 293.225 389.719C290.82 391.096 287.634 391.785 283.669 391.785C278.693 391.785 274.929 390.711 272.377 388.563C269.825 386.415 268.549 383.239 268.549 379.034V373.279C268.549 369.111 269.816 365.963 272.35 363.833C274.902 361.703 278.675 360.639 283.669 360.639C288.644 360.639 292.399 361.657 294.932 363.695C297.484 365.733 298.76 368.753 298.76 372.756C298.76 373.784 298.632 376.069 298.375 379.613H282.842ZM283.669 368.68C283.118 368.68 282.842 368.946 282.842 369.478V373.747H284.44V369.478C284.44 368.946 284.183 368.68 283.669 368.68Z" fill="#1929FE"/>
<path d="M313.742 391.84C304.305 391.84 299.568 388.939 299.531 383.138V381.127L312.447 381.513V383.551C312.447 384.083 312.695 384.349 313.191 384.349C313.448 384.349 313.641 384.285 313.769 384.157C313.916 384.028 313.99 383.799 313.99 383.468C313.99 382.807 313.732 382.11 313.218 381.375C312.925 381.118 312.493 380.889 311.924 380.687C311.373 380.466 310.611 380.209 309.638 379.916C307.674 379.347 306.012 378.75 304.654 378.126C303.313 377.483 302.138 376.501 301.129 375.179C300.119 373.857 299.614 372.113 299.614 369.947V369.423C299.614 366.321 300.688 364.081 302.836 362.704C305.002 361.327 308.261 360.639 312.613 360.639C321.664 360.639 326.189 363.539 326.189 369.341V371.021L313.769 370.828V368.79C313.769 368.625 313.696 368.469 313.549 368.322C313.42 368.175 313.237 368.102 312.998 368.102C312.686 368.102 312.475 368.184 312.365 368.349C312.273 368.515 312.227 368.68 312.227 368.845C312.227 369.249 312.31 369.598 312.475 369.892C312.64 370.185 312.915 370.442 313.301 370.663C313.631 371.03 314.09 371.324 314.678 371.544C315.284 371.764 316.128 372.012 317.212 372.287C319.121 372.801 320.709 373.371 321.976 373.995C323.261 374.619 324.372 375.666 325.308 377.134C326.263 378.585 326.74 380.586 326.74 383.138V383.799C326.74 385.561 326.189 387.048 325.088 388.26C323.986 389.453 322.462 390.344 320.516 390.931C318.57 391.537 316.312 391.84 313.742 391.84Z" fill="#1929FE"/>
<path d="M308.982 183H337L328.955 215.107H306L308.982 183Z" fill="#1929FE"/>
</svg>
