<svg width="37" height="37" viewBox="0 0 37 37" fill="none" xmlns="http://www.w3.org/2000/svg">
<path d="M31.3221 6.40665C28.9638 5.32458 26.4349 4.52736 23.7908 4.07076C23.7427 4.06195 23.6946 4.08397 23.6698 4.12802C23.3445 4.70648 22.9843 5.46112 22.732 6.05427C19.8881 5.6285 17.0588 5.6285 14.2732 6.05427C14.0209 5.44793 13.6476 4.70648 13.3209 4.12802C13.2961 4.08544 13.248 4.06342 13.1998 4.07076C10.5572 4.5259 8.02832 5.32312 5.66861 6.40665C5.64818 6.41546 5.63067 6.43015 5.61905 6.44923C0.822312 13.6155 -0.491715 20.6055 0.152903 27.509C0.155819 27.5427 0.174779 27.575 0.20103 27.5956C3.36578 29.9197 6.43138 31.3306 9.44005 32.2659C9.48821 32.2805 9.53923 32.2629 9.56987 32.2233C10.2816 31.2514 10.916 30.2266 11.4599 29.1489C11.492 29.0858 11.4614 29.0109 11.3958 28.9859C10.3895 28.6042 9.4313 28.1388 8.50958 27.6103C8.43668 27.5677 8.43084 27.4634 8.49791 27.4135C8.69187 27.2681 8.88589 27.1169 9.0711 26.9642C9.10461 26.9363 9.1513 26.9305 9.1907 26.9481C15.246 29.7127 21.8015 29.7127 27.7854 26.9481C27.8248 26.929 27.8715 26.9349 27.9064 26.9628C28.0917 27.1154 28.2857 27.2681 28.4811 27.4135C28.5482 27.4634 28.5438 27.5677 28.4709 27.6103C27.5492 28.1491 26.591 28.6042 25.5832 28.9845C25.5176 29.0094 25.4884 29.0858 25.5205 29.1489C26.0761 30.2251 26.7106 31.2499 27.4091 32.2218C27.4383 32.2629 27.4908 32.2805 27.5389 32.2659C30.5622 31.3306 33.6278 29.9197 36.7925 27.5956C36.8203 27.575 36.8378 27.5442 36.8407 27.5104C37.6122 19.5293 35.5485 12.5965 31.3702 6.45069C31.3599 6.43015 31.3425 6.41546 31.3221 6.40665ZM12.3642 23.3055C10.5411 23.3055 9.039 21.6318 9.039 19.5763C9.039 17.5208 10.512 15.8471 12.3642 15.8471C14.2309 15.8471 15.7185 17.5355 15.6894 19.5763C15.6894 21.6318 14.2163 23.3055 12.3642 23.3055ZM24.6586 23.3055C22.8356 23.3055 21.3334 21.6318 21.3334 19.5763C21.3334 17.5208 22.8064 15.8471 24.6586 15.8471C26.5254 15.8471 28.0129 17.5355 27.9838 19.5763C27.9838 21.6318 26.5254 23.3055 24.6586 23.3055Z" fill="white"/>
</svg>
