<svg width="1440" height="295" viewBox="0 0 1440 295" fill="none" xmlns="http://www.w3.org/2000/svg">
<path d="M161.924 0C215.885 0 256.93 12.386 285.061 37.1572C313.191 61.7515 327.876 98.2002 329.114 146.504V181.007L169.354 181.272V131.642C169.354 126.511 166.79 123.944 161.659 123.944C156.528 123.944 153.963 126.51 153.963 131.642V245.501C153.963 250.632 156.529 253.197 161.659 253.197C166.79 253.197 169.354 250.632 169.354 245.501V197.197H329.114V231.435C328.41 255.559 324.375 276.747 317.012 295H6.81934C4.06493 288.063 1.79146 280.702 0 272.917V104.824C6.34981 77.4225 18.7479 55.3092 37.1953 38.4844C65.3256 12.8285 106.902 7.0147e-05 161.924 0ZM491.526 141.462H506.388V8.75879H657.39V295H506.388V240.192H491.526V295H341.056V8.75879H491.526V141.462ZM819.271 8.75879C854.302 8.75879 883.052 11.589 905.521 17.251C928.166 22.736 945.946 33.6183 958.861 49.8965C971.776 65.9977 978.234 89.4416 978.234 120.229V161.633C978.234 192.42 969.034 215.599 950.635 231.169L963.84 295H829.85L828.029 258.771H817.68V295H671.189V8.75879H819.271ZM1145.42 295H990.707V8.75879H1145.42V295ZM1299.88 0C1332.96 0 1360.38 4.33495 1382.14 13.0049C1404.08 21.6748 1420.36 33.8835 1430.97 49.6309C1441.59 65.2013 1446.98 83.5148 1447.16 104.57V122.617H1314.47V102.712C1314.47 100.766 1313.76 99.0853 1312.35 97.6699C1310.93 96.2544 1309.08 95.5459 1306.78 95.5459C1304.48 95.5459 1302.62 96.3422 1301.2 97.9346C1299.79 99.3501 1299.08 101.12 1299.08 103.243C1299.08 105.72 1299.7 108.552 1300.94 111.736C1302.35 114.744 1304.03 117.044 1305.98 118.637C1309.16 121.645 1313.59 124.476 1319.25 127.13C1324.91 129.607 1332.52 132.526 1342.07 135.888C1363.83 144.027 1382.14 152.52 1397 161.367C1411.87 170.037 1424.87 183.661 1436.02 202.239C1447.34 220.818 1453 245.412 1453 276.022V282.393C1452.86 286.736 1452.47 290.938 1451.85 295H1160.49C1159.33 288.439 1158.73 281.495 1158.69 274.165V250.013H1296.69V275.757C1296.69 277.703 1297.22 279.473 1298.28 281.065C1299.52 282.658 1301.56 283.454 1304.39 283.454C1306.86 283.454 1308.72 282.658 1309.96 281.065C1311.38 279.473 1312.08 277.703 1312.08 275.757C1312.08 272.218 1311.64 268.768 1310.76 265.406C1309.87 261.868 1308.54 258.948 1306.78 256.647C1302.88 251.693 1297.4 247.358 1290.32 243.643C1283.42 239.927 1273.25 235.149 1259.8 229.311C1239.46 220.641 1222.56 212.237 1209.12 204.098C1195.67 195.782 1184.08 184.014 1174.35 168.798C1164.62 153.581 1159.75 134.207 1159.75 110.675V105.632C1160.82 68.1211 1173.02 41.1378 1196.38 24.6826C1219.73 8.22749 1254.23 5.85886e-05 1299.88 0ZM817.944 179.415H824.049C827.587 179.415 829.975 178.53 831.214 176.761C832.629 174.814 833.337 171.187 833.337 165.879V124.741C833.337 119.256 832.718 115.629 831.479 113.859C830.241 111.913 827.498 110.939 823.252 110.939H817.944V179.415Z" fill="white"/>
</svg>
