<svg width="536" height="184" viewBox="0 0 536 184" fill="none" xmlns="http://www.w3.org/2000/svg">
<path d="M0 38.9104H49.0296L50.6449 92.3298L51.025 116.599H53.4955L53.7805 92.3298L55.4909 38.9104H97.5841L99.1994 92.3298L99.5795 116.599H102.05L102.335 92.3298L104.045 38.9104H153.075L129.795 179.384H79.3405L77.7252 105.915H75.1597L73.8295 179.384H23.2796L0 38.9104Z" fill="black"/>
<path d="M199.824 183.736C182.657 183.736 169.672 178.812 160.867 168.963C152.125 159.027 147.754 144.386 147.754 125.041V93.3849C147.754 74.0397 152.125 59.3988 160.867 49.4624C169.672 39.5259 182.657 34.5577 199.824 34.5577C217.054 34.5577 230.04 39.5259 238.782 49.4624C247.587 59.3109 251.989 73.9078 251.989 93.2531V125.041C251.989 144.386 247.587 159.027 238.782 168.963C230.04 178.812 217.054 183.736 199.824 183.736ZM199.824 134.933C201.661 134.933 202.58 132.999 202.58 129.13V89.2961C202.58 85.3391 201.661 83.3606 199.824 83.3606C197.987 83.3606 197.069 85.3391 197.069 89.2961V129.13C197.069 132.999 197.987 134.933 199.824 134.933Z" fill="black"/>
<path d="M256.17 38.9104H298.929L305.58 48.4072C308.24 40.8449 312.453 37.0638 318.217 37.0638C322.018 37.0638 325.249 37.6354 327.909 38.7785V87.1857C327.783 87.0977 325.819 87.0538 322.018 87.0538C314.353 87.0538 310.521 92.7694 310.521 104.201V179.384H256.17V38.9104Z" fill="black"/>
<path d="M331.33 0H386.536L383.115 91.934L385.395 91.2746L390.526 38.9104H442.977L431.575 104.069L444.117 179.384H390.622L385.205 130.185L383.115 129.525L384.54 179.384H331.33V0Z" fill="black"/>
<path d="M491.151 184C458.592 184 442.248 170.107 442.122 142.32V132.691L486.685 134.538V144.298C486.685 146.848 487.541 148.123 489.251 148.123C490.138 148.123 490.803 147.816 491.246 147.2C491.753 146.584 492.006 145.485 492.006 143.903C492.006 140.737 491.12 137.395 489.346 133.878C488.332 132.647 486.844 131.548 484.88 130.581C482.98 129.525 480.351 128.294 476.993 126.887C470.215 124.162 464.483 121.304 459.795 118.314C455.171 115.236 451.117 110.532 447.633 104.201C444.149 97.8695 442.407 89.5159 442.407 79.1398V76.6337C442.407 61.773 446.112 51.0452 453.524 44.4502C460.999 37.8552 472.243 34.5577 487.255 34.5577C518.485 34.5577 534.1 48.4511 534.1 76.238V84.2839L491.246 83.3606V73.6C491.246 72.8086 490.993 72.0612 490.486 71.3577C490.043 70.6542 489.409 70.3025 488.586 70.3025C487.509 70.3025 486.78 70.6982 486.4 71.4896C486.084 72.281 485.925 73.0724 485.925 73.8638C485.925 75.7983 486.21 77.4691 486.78 78.876C487.35 80.2829 488.301 81.514 489.631 82.5692C490.771 84.3278 492.355 85.7348 494.382 86.79C496.472 87.8452 499.386 89.0323 503.124 90.3513C509.712 92.8134 515.191 95.5393 519.562 98.529C523.996 101.519 527.828 106.531 531.059 113.566C534.353 120.512 536 130.097 536 142.32V145.485C536 153.927 534.1 161.049 530.299 166.853C526.498 172.569 521.24 176.833 514.526 179.647C507.811 182.549 500.02 184 491.151 184Z" fill="black"/>
</svg>
