<svg width="330" height="130" viewBox="0 0 330 130" fill="none" xmlns="http://www.w3.org/2000/svg">
<path d="M19.2427 129.907C15.744 129.907 12.5161 128.786 9.55888 126.545C6.64332 124.303 4.31087 121.159 2.56153 117.112C0.853843 113.003 0 108.24 0 102.823V91.8966C0.0416509 84.2385 1.16622 78.6973 3.37372 75.273C5.62287 71.7864 8.80916 69.6073 12.9326 68.7356C17.0977 67.864 23.4078 67.4282 31.8629 67.4282C32.1545 67.4282 32.5918 67.4593 33.1749 67.5216C33.758 67.5216 34.6535 67.5216 35.8614 67.5216V58.1825C35.8614 56.2524 35.7365 54.8827 35.4866 54.0733C35.2783 53.2639 34.7785 52.8592 33.9871 52.8592C32.8209 52.8592 32.2378 54.2289 32.2378 56.9684V64.3463L3.18629 64.4397V57.1552C3.22794 49.3726 4.39417 43.0843 6.68497 38.2902C9.01742 33.4962 12.7035 29.9473 17.7433 27.6437C22.783 25.34 29.468 24.1882 37.7982 24.1882C43.3377 24.1882 48.315 25.2466 52.73 27.3635C57.1867 29.4804 60.727 32.8736 63.351 37.5431C66.0167 42.1504 67.3495 48.034 67.3495 55.194V126.825H37.4858L34.2995 116.739C33.1333 121.097 31.2798 124.397 28.7391 126.638C26.1984 128.817 23.0329 129.907 19.2427 129.907ZM33.7372 99.8348C34.2787 99.8348 34.7577 99.5235 35.1742 98.9009C35.5907 98.216 35.8198 97.251 35.8614 96.0058V81.9971H35.1742C33.9663 82.1217 33.1749 82.5575 32.8001 83.3046C32.4252 84.0517 32.2378 85.1724 32.2378 86.6667V97.3132C32.2378 98.0603 32.3627 98.6518 32.6126 99.0876C32.9042 99.5235 33.2791 99.7725 33.7372 99.8348Z" fill="black"/>
<path d="M114.144 130C106.022 130 98.8376 127.136 92.5899 121.408L90.4657 126.825H70.6607V0H106.147V24.4684L105.148 32.5C107.938 26.772 112.707 23.908 119.455 23.908C125.869 23.908 130.7 27.5503 133.949 34.8348C137.198 42.1193 138.822 52.8903 138.822 67.148V86.7601C138.822 101.018 136.74 111.789 132.575 119.073C128.451 126.358 122.308 130 114.144 130ZM104.148 96.0058C104.898 96.0058 105.523 95.3831 106.022 94.1379V63.6925C106.022 59.8946 105.439 57.9957 104.273 57.9957C103.482 57.9957 102.836 58.5872 102.336 59.7701V90.2155C102.336 94.0757 102.94 96.0058 104.148 96.0058Z" fill="black"/>
<path d="M175.246 129.907C163.959 129.907 155.42 126.42 149.631 119.447C143.883 112.411 141.009 102.045 141.009 88.3477V65.9339C141.009 52.2366 143.883 41.8702 149.631 34.8348C155.42 27.7993 163.959 24.2816 175.246 24.2816C186.575 24.2816 195.114 27.7993 200.861 34.8348C206.651 41.808 209.546 52.1432 209.546 65.8405V88.3477C209.546 102.045 206.651 112.411 200.861 119.447C195.114 126.42 186.575 129.907 175.246 129.907ZM175.246 95.352C176.454 95.352 177.058 93.9823 177.058 91.2428V63.0388C177.058 60.2371 176.454 58.8362 175.246 58.8362C174.038 58.8362 173.434 60.2371 173.434 63.0388V91.2428C173.434 93.9823 174.038 95.352 175.246 95.352Z" fill="black"/>
<path d="M245.782 129.907C234.661 129.907 226.248 126.638 220.541 120.101C214.877 113.563 212.045 103.882 212.045 91.056V27.3635H243.908V91.2428C243.908 93.9823 244.512 95.352 245.719 95.352C246.927 95.352 247.531 93.9823 247.531 91.2428V27.3635H279.332V92.1767C279.332 104.629 276.499 114.03 270.835 120.381C265.212 126.731 256.861 129.907 245.782 129.907Z" fill="black"/>
<path d="M307.821 126.825C301.24 126.825 296.242 124.023 292.827 118.42C289.453 112.754 287.766 104.442 287.766 93.4842V61.171H281.581V31.4727L290.015 23.1609L298.324 2.89512L323.128 2.80172V27.3635H330V61.171H323.065V88.5345C323.065 91.2739 323.794 92.6437 325.252 92.6437H329.875L329.938 126.825H307.821Z" fill="black"/>
</svg>
