<svg width="288" height="288" viewBox="0 0 288 288" fill="none" xmlns="http://www.w3.org/2000/svg">
<rect x="0.5" y="0.5" width="287" height="287" stroke="#1929FE"/>
<path d="M192.971 171.137C189.444 172.034 187.263 171.176 185.307 168.237C180.913 161.655 176.064 155.374 171.385 148.978C170.781 148.151 170.155 147.338 169.374 146.31C163.836 153.781 158.306 160.897 153.116 168.299C151.26 170.944 149.311 172.096 145.846 171.16L166.667 143.216L147.284 117.979C150.618 117.329 152.923 117.662 154.965 120.647C159.474 127.237 164.447 133.509 169.405 140.145C174.393 133.533 179.305 127.252 183.945 120.724C185.809 118.079 187.813 117.074 191.162 118.048C188.625 121.413 186.142 124.723 183.644 128.01C180.272 132.442 176.961 136.928 173.465 141.267C172.22 142.814 172.421 143.819 173.535 145.281C180.001 153.781 186.389 162.366 192.971 171.137ZM96.0287 142.752C96.5856 139.96 96.9568 137.114 97.7303 134.376C102.371 117.801 121.397 110.91 134.469 121.181C142.126 127.206 144.028 135.698 143.649 145.273H100.491C99.8417 162.451 112.209 172.823 127.972 167.533C133.502 165.677 136.758 161.345 138.39 155.931C139.217 153.217 140.586 152.791 143.139 153.565C141.832 160.34 138.869 166.002 132.682 169.544C123.401 174.85 110.152 173.133 103.183 165.762C99.0683 161.43 97.3203 156.04 96.5469 150.216C96.4309 149.288 96.1911 148.375 96.0055 147.454C96.021 145.887 96.0287 144.319 96.0287 142.752V142.752ZM100.569 141.6H139.573C139.318 129.178 131.584 120.353 121.011 120.276C109.409 120.183 101.072 128.799 100.569 141.6V141.6Z" fill="black"/>
</svg>
