<svg width="288" height="288" viewBox="0 0 288 288" fill="none" xmlns="http://www.w3.org/2000/svg">
<rect x="0.5" y="0.5" width="287" height="287" stroke="#1929FE"/>
<g clip-path="url(#clip0_364_1258)">
<path d="M111.708 94H176.292C178.618 93.9978 180.921 94.466 183.071 95.378C185.22 96.2899 187.173 97.6277 188.818 99.3146C190.463 101.002 191.767 103.005 192.657 105.209C193.546 107.414 194.002 109.777 194 112.162V175.838C194.002 178.223 193.546 180.586 192.657 182.791C191.767 184.995 190.463 186.998 188.818 188.685C187.173 190.372 185.22 191.71 183.071 192.622C180.921 193.534 178.618 194.002 176.292 194H111.708C109.382 194.002 107.079 193.534 104.929 192.622C102.78 191.71 100.827 190.372 99.1818 188.685C97.537 186.998 96.2327 184.995 95.3435 182.791C94.4544 180.586 93.9978 178.223 94 175.838V112.162C93.9978 109.777 94.4544 107.414 95.3435 105.209C96.2327 103.005 97.537 101.002 99.1818 99.3146C100.827 97.6277 102.78 96.2899 104.929 95.378C107.079 94.466 109.382 93.9978 111.708 94Z" fill="#000B1D"/>
<path d="M134.417 174.5C140.17 174.5 144.834 169.836 144.834 164.083V153.667H134.417C128.664 153.667 124 158.33 124 164.083C124 169.836 128.664 174.5 134.417 174.5Z" fill="#0ACF83"/>
<path d="M124 143.25C124 137.497 128.664 132.833 134.417 132.833H144.834V153.667H134.417C128.664 153.667 124 149.003 124 143.25Z" fill="#A259FF"/>
<path d="M124 122.417C124 116.664 128.664 112 134.417 112H144.834V132.833H134.417C128.664 132.833 124 128.17 124 122.417Z" fill="#F24E1E"/>
<path d="M144.833 112H155.25C161.003 112 165.667 116.664 165.667 122.417C165.667 128.17 161.003 132.833 155.25 132.833H144.833V112Z" fill="#FF7262"/>
<path d="M165.667 143.25C165.667 149.003 161.003 153.667 155.25 153.667C149.497 153.667 144.833 149.003 144.833 143.25C144.833 137.497 149.497 132.833 155.25 132.833C161.003 132.833 165.667 137.497 165.667 143.25Z" fill="#1ABCFE"/>
</g>
<defs>
<clipPath id="clip0_364_1258">
<rect width="100" height="100" fill="white" transform="translate(94 94)"/>
</clipPath>
</defs>
</svg>
