<svg width="288" height="288" viewBox="0 0 288 288" fill="none" xmlns="http://www.w3.org/2000/svg">
<rect x="0.5" y="0.5" width="287" height="287" stroke="#1929FE"/>
<g clip-path="url(#clip0_364_1249)">
<path d="M110.594 92H178.406C180.849 91.9976 183.268 92.4893 185.524 93.4469C187.781 94.4044 189.832 95.809 191.559 97.5804C193.286 99.3517 194.656 101.455 195.589 103.77C196.523 106.085 197.002 108.565 197 111.071V177.929C197.002 180.435 196.523 182.915 195.589 185.23C194.656 187.545 193.286 189.648 191.559 191.42C189.832 193.191 187.781 194.596 185.524 195.553C183.268 196.511 180.849 197.002 178.406 197H110.594C108.151 197.002 105.732 196.511 103.476 195.553C101.219 194.596 99.1679 193.191 97.4409 191.42C95.7138 189.648 94.3443 187.545 93.4107 185.23C92.4771 182.915 91.9977 180.435 92 177.929V111.071C91.9977 108.565 92.4771 106.085 93.4107 103.77C94.3443 101.455 95.7138 99.3517 97.4409 97.5804C99.1679 95.809 101.219 94.4044 103.476 93.4469C105.732 92.4893 108.151 91.9976 110.594 92Z" fill="#F16529"/>
<path d="M128.225 123.479H144.534V111.95H115.625L115.901 115.043L118.735 146.814H144.534V135.285H129.279L128.225 123.479ZM130.823 152.579H119.25L120.865 170.681L144.481 177.237L144.534 177.222V165.227L144.484 165.241L131.644 161.774L130.823 152.579Z" fill="#EBEBEB"/>
<path d="M144.495 146.814H158.691L157.353 161.767L144.494 165.237V177.232L168.13 170.681L168.303 168.733L171.013 138.381L171.294 135.285H144.495V146.814ZM144.495 123.451V123.479H172.343L172.574 120.888L173.099 115.043L173.375 111.95H144.495V123.451V123.451Z" fill="white"/>
</g>
<defs>
<clipPath id="clip0_364_1249">
<rect width="105" height="105" fill="white" transform="translate(92 92)"/>
</clipPath>
</defs>
</svg>
