<svg width="288" height="288" viewBox="0 0 288 288" fill="none" xmlns="http://www.w3.org/2000/svg">
<rect x="0.5" y="0.5" width="287" height="287" stroke="#1929FE"/>
<g clip-path="url(#clip0_364_1253)">
<path d="M110.594 92H178.406C180.849 91.9976 183.268 92.4893 185.524 93.4469C187.781 94.4044 189.832 95.809 191.559 97.5804C193.286 99.3517 194.656 101.455 195.589 103.77C196.523 106.085 197.002 108.565 197 111.071V177.929C197.002 180.435 196.523 182.915 195.589 185.23C194.656 187.545 193.286 189.648 191.559 191.42C189.832 193.191 187.781 194.596 185.524 195.553C183.268 196.511 180.849 197.002 178.406 197H110.594C108.151 197.002 105.732 196.511 103.476 195.553C101.219 194.596 99.1679 193.191 97.4409 191.42C95.7138 189.648 94.3443 187.545 93.4107 185.23C92.4771 182.915 91.9977 180.435 92 177.929V111.071C91.9977 108.565 92.4771 106.085 93.4107 103.77C94.3443 101.455 95.7138 99.3517 97.4409 97.5804C99.1679 95.809 101.219 94.4044 103.476 93.4469C105.732 92.4893 108.151 91.9976 110.594 92Z" fill="#F0F0F0"/>
<path d="M134.811 164.112C134.811 164.112 132.065 165.709 136.766 166.25C142.462 166.9 145.373 166.806 151.65 165.618C151.65 165.618 153.3 166.653 155.605 167.549C141.534 173.58 123.759 167.2 134.811 164.112Z" fill="#5382A1"/>
<path d="M133.092 156.242C133.092 156.242 130.011 158.523 134.716 159.009C140.801 159.637 145.606 159.688 153.92 158.087C153.92 158.087 155.07 159.253 156.878 159.891C139.866 164.866 120.917 160.283 133.092 156.242Z" fill="#5382A1"/>
<path d="M147.587 142.894C151.054 146.885 146.676 150.477 146.676 150.477C146.676 150.477 155.479 145.933 151.436 140.242C147.66 134.935 144.765 132.298 160.441 123.206C160.441 123.206 135.834 129.352 147.587 142.894Z" fill="#E76F00"/>
<path d="M166.197 169.933C166.197 169.933 168.23 171.607 163.958 172.903C155.836 175.363 130.154 176.106 123.02 173.001C120.455 171.885 125.264 170.337 126.777 170.012C128.355 169.67 129.257 169.734 129.257 169.734C126.405 167.725 110.822 173.679 121.341 175.384C150.03 180.037 173.638 173.289 166.197 169.933Z" fill="#5382A1"/>
<path d="M136.132 148.088C136.132 148.088 123.069 151.191 131.506 152.318C135.069 152.795 142.171 152.687 148.786 152.133C154.192 151.677 159.621 150.707 159.621 150.707C159.621 150.707 157.714 151.523 156.335 152.465C143.069 155.954 117.442 154.331 124.82 150.762C131.059 147.746 136.132 148.088 136.132 148.088Z" fill="#5382A1"/>
<path d="M159.567 161.188C173.052 154.18 166.817 147.446 162.465 148.353C161.398 148.575 160.923 148.768 160.923 148.768C160.923 148.768 161.319 148.147 162.075 147.879C170.685 144.852 177.306 156.806 159.296 161.541C159.296 161.541 159.505 161.355 159.567 161.188Z" fill="#5382A1"/>
<path d="M151.436 108.525C151.436 108.525 158.905 115.996 144.353 127.484C132.684 136.7 141.692 141.954 144.348 147.958C137.537 141.812 132.538 136.402 135.891 131.367C140.814 123.976 154.45 120.392 151.436 108.525Z" fill="#E76F00"/>
<path d="M137.457 180.177C150.402 181.006 170.279 179.717 170.75 173.592C170.75 173.592 169.845 175.914 160.052 177.758C149.004 179.837 135.377 179.595 127.296 178.262C127.296 178.262 128.95 179.631 137.457 180.177Z" fill="#5382A1"/>
</g>
<defs>
<clipPath id="clip0_364_1253">
<rect width="105" height="105" fill="white" transform="translate(92 92)"/>
</clipPath>
</defs>
</svg>
