<svg width="288" height="288" viewBox="0 0 288 288" fill="none" xmlns="http://www.w3.org/2000/svg">
<rect x="0.5" y="0.5" width="287" height="287" stroke="#1929FE"/>
<g clip-path="url(#clip0_364_1248)">
<path d="M110.594 92H178.406C180.849 91.9976 183.268 92.4893 185.524 93.4469C187.781 94.4044 189.832 95.809 191.559 97.5804C193.286 99.3517 194.656 101.455 195.589 103.77C196.523 106.085 197.002 108.565 197 111.071V177.929C197.002 180.435 196.523 182.915 195.589 185.23C194.656 187.545 193.286 189.648 191.559 191.42C189.832 193.191 187.781 194.596 185.524 195.553C183.268 196.511 180.849 197.002 178.406 197H110.594C108.151 197.002 105.732 196.511 103.476 195.553C101.219 194.596 99.1679 193.191 97.4409 191.42C95.7138 189.648 94.3443 187.545 93.4107 185.23C92.4771 182.915 91.9977 180.435 92 177.929V111.071C91.9977 108.565 92.4771 106.085 93.4107 103.77C94.3443 101.455 95.7138 99.3517 97.4409 97.5804C99.1679 95.809 101.219 94.4044 103.476 93.4469C105.732 92.4893 108.151 91.9976 110.594 92Z" fill="#F7DF1E"/>
<path d="M162.712 174.159C164.827 177.612 167.578 180.15 172.445 180.15C176.533 180.15 179.145 178.107 179.145 175.284C179.145 171.9 176.462 170.702 171.962 168.734L169.495 167.675C162.375 164.642 157.645 160.842 157.645 152.809C157.645 145.409 163.283 139.775 172.095 139.775C178.368 139.775 182.878 141.959 186.128 147.675L178.445 152.609C176.753 149.575 174.928 148.38 172.095 148.38C169.205 148.38 167.373 150.214 167.373 152.609C167.373 155.569 169.207 156.767 173.44 158.6L175.907 159.657C184.29 163.252 189.023 166.917 189.023 175.157C189.023 184.04 182.045 188.907 172.673 188.907C163.51 188.907 157.59 184.54 154.693 178.817L162.712 174.159ZM127.857 175.014C129.407 177.764 130.817 180.089 134.207 180.089C137.448 180.089 139.493 178.82 139.493 173.889V140.339H149.36V174.022C149.36 184.239 143.37 188.889 134.627 188.889C126.727 188.889 122.152 184.8 119.825 179.876L127.857 175.014Z" fill="black"/>
</g>
<defs>
<clipPath id="clip0_364_1248">
<rect width="105" height="105" fill="white" transform="translate(92 92)"/>
</clipPath>
</defs>
</svg>
