<svg width="288" height="288" viewBox="0 0 288 288" fill="none" xmlns="http://www.w3.org/2000/svg">
<rect x="0.5" y="0.5" width="287" height="287" stroke="#1929FE"/>
<path d="M144.521 203C142.935 203 141.361 202.589 139.971 201.798L125.491 193.324C123.328 192.129 124.384 191.706 125.097 191.462C127.981 190.464 128.566 190.239 131.644 188.511C131.968 188.329 132.391 188.393 132.722 188.586L143.846 195.111C144.248 195.326 144.818 195.326 145.191 195.111L188.565 170.364C188.967 170.139 189.227 169.677 189.227 169.205V119.732C189.227 119.239 188.967 118.799 188.556 118.552L145.199 93.826C144.797 93.5899 144.265 93.5899 143.864 93.826L100.515 118.552C100.095 118.788 99.828 119.249 99.828 119.721V169.194C99.828 169.666 100.089 170.117 100.501 170.343L112.379 177.125C118.828 180.312 122.769 176.556 122.769 172.779V123.95C122.769 123.252 123.323 122.716 124.029 122.716H129.522C130.206 122.716 130.771 123.252 130.771 123.95V172.8C130.771 181.3 126.081 186.182 117.927 186.182C115.419 186.182 113.443 186.182 107.928 183.5L96.5492 177.018C93.7372 175.408 92 172.403 92 169.194V119.721C92 116.502 93.7372 113.497 96.5492 111.909L139.967 87.151C142.714 85.6163 146.362 85.6163 149.087 87.151L192.451 111.92C195.252 113.519 197 116.513 197 119.732V169.205C197 172.414 195.252 175.408 192.451 177.018L149.087 201.776C147.697 202.57 146.123 202.977 144.516 202.977" fill="#689F63"/>
<path d="M157.918 168.91C138.94 168.91 134.961 160.299 134.961 153.076C134.961 152.389 135.521 151.842 136.217 151.842H141.819C142.438 151.842 142.959 152.288 143.057 152.892C143.904 158.534 146.423 161.38 157.899 161.38C167.041 161.38 170.928 159.339 170.928 154.548C170.928 151.79 169.82 149.74 155.619 148.366C143.741 147.207 136.402 144.621 136.402 135.231C136.402 126.581 143.785 121.43 156.151 121.43C170.037 121.43 176.921 126.195 177.789 136.433C177.822 136.787 177.692 137.13 177.453 137.388C177.214 137.635 176.877 137.785 176.53 137.785H170.895C170.309 137.785 169.798 137.377 169.679 136.819C168.322 130.884 165.043 128.985 156.129 128.985C146.151 128.985 144.99 132.419 144.99 134.995C144.99 138.117 146.358 139.03 159.821 140.79C173.153 142.539 179.483 145.007 179.483 154.269C179.483 163.605 171.601 168.96 157.855 168.96L157.918 168.91Z" fill="#689F63"/>
</svg>
