<svg width="288" height="288" viewBox="0 0 288 288" fill="none" xmlns="http://www.w3.org/2000/svg">
<rect x="0.5" y="0.5" width="287" height="287" stroke="#1929FE"/>
<g clip-path="url(#clip0_364_1254)">
<path d="M110.594 92H178.406C180.849 91.9976 183.268 92.4893 185.524 93.4469C187.781 94.4044 189.832 95.809 191.559 97.5804C193.286 99.3517 194.656 101.455 195.589 103.77C196.523 106.085 197.002 108.565 197 111.071V177.929C197.002 180.435 196.523 182.915 195.589 185.23C194.656 187.545 193.286 189.648 191.559 191.42C189.832 193.191 187.781 194.596 185.524 195.553C183.268 196.511 180.849 197.002 178.406 197H110.594C108.151 197.002 105.732 196.511 103.476 195.553C101.219 194.596 99.1679 193.191 97.4409 191.42C95.7138 189.648 94.3443 187.545 93.4107 185.23C92.4771 182.915 91.9977 180.435 92 177.929V111.071C91.9977 108.565 92.4771 106.085 93.4107 103.77C94.3443 101.455 95.7138 99.3517 97.4409 97.5804C99.1679 95.809 101.219 94.4044 103.476 93.4469C105.732 92.4893 108.151 91.9976 110.594 92Z" fill="#777BB3"/>
<path d="M116.769 150.635C119.323 150.635 121.228 150.164 122.434 149.236C123.627 148.317 124.451 146.726 124.883 144.506C125.286 142.431 125.133 140.982 124.428 140.2C123.707 139.401 122.148 138.996 119.795 138.996H115.715L113.453 150.635H116.769ZM103.425 164.971C103.236 164.971 103.056 164.886 102.935 164.74C102.815 164.594 102.766 164.401 102.802 164.215L108.796 133.373C108.854 133.075 109.116 132.86 109.42 132.86H122.339C126.399 132.86 129.421 133.962 131.321 136.137C133.231 138.323 133.821 141.379 133.074 145.219C132.77 146.784 132.247 148.237 131.52 149.538C130.793 150.84 129.831 152.045 128.661 153.12C127.261 154.431 125.677 155.381 123.956 155.94C122.263 156.492 120.088 156.771 117.492 156.771H112.261L110.767 164.457C110.709 164.756 110.448 164.971 110.144 164.971H103.425Z" fill="black"/>
<path d="M116.238 139.631H119.795C122.635 139.631 123.621 140.254 123.957 140.626C124.513 141.242 124.618 142.542 124.26 144.385C123.859 146.449 123.114 147.911 122.047 148.733C120.955 149.574 119.179 150 116.77 150H114.223L116.238 139.631ZM122.339 132.225H109.419C108.812 132.225 108.289 132.656 108.173 133.252L102.179 164.094C102.106 164.466 102.204 164.851 102.445 165.144C102.686 165.437 103.046 165.606 103.425 165.606H110.143C110.751 165.606 111.274 165.175 111.39 164.579L112.784 157.406H117.492C120.154 157.406 122.396 157.116 124.153 156.543C125.96 155.956 127.623 154.961 129.095 153.584C130.312 152.465 131.315 151.208 132.074 149.848C132.834 148.488 133.38 146.971 133.697 145.34C134.483 141.298 133.845 138.061 131.799 135.719C129.774 133.401 126.591 132.225 122.339 132.225ZM112.683 151.27H116.77C119.478 151.27 121.496 150.759 122.822 149.739C124.148 148.718 125.042 147.014 125.507 144.627C125.951 142.335 125.749 140.717 124.899 139.775C124.048 138.833 122.347 138.362 119.795 138.362H115.192L112.683 151.27ZM122.339 133.495C126.226 133.495 129.061 134.515 130.843 136.555C132.625 138.595 133.162 141.442 132.451 145.098C132.158 146.604 131.663 147.981 130.966 149.229C130.269 150.477 129.358 151.618 128.232 152.653C126.89 153.909 125.4 154.803 123.76 155.336C122.12 155.871 120.031 156.137 117.492 156.137H111.737L110.143 164.336H103.425L109.419 133.495H122.339Z" fill="white"/>
<path d="M148.478 156.771C148.289 156.771 148.109 156.687 147.989 156.54C147.868 156.394 147.819 156.202 147.855 156.016L150.507 142.369C150.759 141.071 150.697 140.14 150.332 139.746C150.108 139.506 149.437 139.102 147.453 139.102H142.649L139.315 156.258C139.257 156.556 138.996 156.771 138.692 156.771H132.026C131.836 156.771 131.657 156.687 131.536 156.54C131.416 156.394 131.367 156.202 131.403 156.016L137.397 125.174C137.455 124.875 137.717 124.66 138.02 124.66H144.686C144.876 124.66 145.055 124.745 145.176 124.891C145.297 125.037 145.345 125.23 145.309 125.416L143.863 132.86H149.031C152.968 132.86 155.637 133.554 157.192 134.982C158.777 136.438 159.271 138.768 158.662 141.905L155.873 156.258C155.815 156.556 155.554 156.771 155.25 156.771H148.478Z" fill="black"/>
<path d="M144.686 124.025H138.02C137.412 124.025 136.89 124.456 136.774 125.052L130.78 155.894C130.707 156.267 130.805 156.652 131.046 156.944C131.287 157.237 131.647 157.406 132.026 157.406H138.692C139.299 157.406 139.822 156.975 139.938 156.379L143.172 139.737H147.453C149.434 139.737 149.85 140.16 149.866 140.178C149.987 140.308 150.145 140.907 149.884 142.248L147.232 155.894C147.16 156.267 147.257 156.652 147.499 156.944C147.74 157.237 148.099 157.406 148.478 157.406H155.25C155.858 157.406 156.38 156.975 156.496 156.379L159.285 142.027C159.939 138.658 159.38 136.13 157.622 134.514C155.944 132.974 153.134 132.225 149.031 132.225H144.632L145.932 125.537C146.005 125.165 145.907 124.78 145.666 124.487C145.425 124.195 145.065 124.025 144.686 124.025ZM144.686 125.295L143.092 133.495H149.031C152.767 133.495 155.344 134.147 156.762 135.449C158.181 136.753 158.606 138.865 158.039 141.784L155.25 156.136H148.478L151.13 142.49C151.432 140.938 151.321 139.879 150.797 139.315C150.273 138.75 149.158 138.467 147.453 138.467H142.125L138.692 156.136H132.026L138.02 125.295H144.686Z" fill="white"/>
<path d="M169.209 150.635C171.762 150.635 173.668 150.164 174.874 149.236C176.067 148.317 176.891 146.726 177.323 144.506C177.726 142.431 177.572 140.982 176.867 140.2C176.146 139.401 174.587 138.996 172.234 138.996H168.154L165.892 150.635H169.209ZM155.865 164.971C155.675 164.971 155.495 164.886 155.375 164.74C155.254 164.594 155.205 164.401 155.241 164.215L161.236 133.373C161.294 133.075 161.555 132.86 161.859 132.86H174.778C178.839 132.86 181.861 133.962 183.761 136.137C185.67 138.323 186.26 141.379 185.513 145.219C185.209 146.784 184.687 148.237 183.96 149.538C183.232 150.84 182.27 152.045 181.101 153.12C179.701 154.431 178.116 155.381 176.395 155.94C174.702 156.492 172.527 156.771 169.931 156.771H164.7L163.206 164.457C163.148 164.756 162.887 164.971 162.583 164.971H155.865Z" fill="black"/>
<path d="M168.678 139.631H172.234C175.074 139.631 176.061 140.254 176.396 140.626C176.952 141.242 177.057 142.542 176.7 144.385C176.298 146.449 175.553 147.911 174.487 148.733C173.394 149.574 171.619 150 169.209 150H166.663L168.678 139.631ZM174.778 132.225H161.859C161.251 132.225 160.729 132.656 160.613 133.252L154.618 164.094C154.546 164.466 154.644 164.851 154.885 165.144C155.126 165.437 155.485 165.606 155.865 165.606H162.583C163.191 165.606 163.714 165.175 163.829 164.579L165.223 157.406H169.931C172.594 157.406 174.835 157.116 176.593 156.543C178.4 155.956 180.063 154.96 181.535 153.584C182.752 152.464 183.754 151.208 184.514 149.848C185.274 148.488 185.82 146.971 186.136 145.34C186.923 141.298 186.284 138.06 184.239 135.719C182.213 133.401 179.03 132.225 174.778 132.225ZM165.122 151.27H169.209C171.918 151.27 173.935 150.759 175.261 149.739C176.587 148.718 177.481 147.014 177.946 144.627C178.391 142.335 178.188 140.717 177.338 139.775C176.488 138.833 174.787 138.362 172.234 138.362H167.631L165.122 151.27ZM174.778 133.495C178.665 133.495 181.5 134.515 183.283 136.555C185.065 138.595 185.601 141.442 184.89 145.098C184.597 146.604 184.102 147.981 183.406 149.229C182.708 150.477 181.797 151.618 180.671 152.653C179.33 153.909 177.839 154.803 176.199 155.336C174.559 155.871 172.471 156.137 169.931 156.137H164.177L162.583 164.336H155.865L161.859 133.495H174.778Z" fill="white"/>
</g>
<defs>
<clipPath id="clip0_364_1254">
<rect width="105" height="105" fill="white" transform="translate(92 92)"/>
</clipPath>
</defs>
</svg>
