<svg width="288" height="288" viewBox="0 0 288 288" fill="none" xmlns="http://www.w3.org/2000/svg">
<rect x="0.5" y="0.5" width="287" height="287" stroke="#1929FE"/>
<path d="M143.254 98C119.599 98 121.076 108.258 121.076 108.258L121.103 118.885H143.676V122.076H112.137C112.137 122.076 97 120.36 97 144.228C97 168.096 110.212 167.249 110.212 167.249H118.096V156.173C118.096 156.173 117.671 142.962 131.097 142.962C144.523 142.962 153.486 142.962 153.486 142.962C153.486 142.962 166.065 143.165 166.065 130.805C166.065 118.445 166.065 110.368 166.065 110.368C166.065 110.368 167.974 98 143.254 98ZM130.807 105.146C133.053 105.146 134.868 106.962 134.868 109.207C134.868 111.453 133.053 113.269 130.807 113.269C128.561 113.269 126.746 111.453 126.746 109.207C126.746 106.962 128.561 105.146 130.807 105.146Z" fill="url(#paint0_linear_364_1251)"/>
<path d="M143.926 190.695C167.581 190.695 166.103 180.436 166.103 180.436L166.077 169.809H143.504V166.618H175.043C175.043 166.618 190.18 168.335 190.18 144.467C190.18 120.599 176.968 121.445 176.968 121.445H169.083V132.521C169.083 132.521 169.508 145.733 156.083 145.733C142.657 145.733 133.694 145.733 133.694 145.733C133.694 145.733 121.115 145.529 121.115 157.89C121.115 170.25 121.115 178.327 121.115 178.327C121.115 178.327 119.205 190.695 143.926 190.695ZM156.373 183.548C154.127 183.548 152.312 181.733 152.312 179.487C152.312 177.241 154.127 175.426 156.373 175.426C158.619 175.426 160.434 177.241 160.434 179.487C160.434 181.733 158.619 183.548 156.373 183.548Z" fill="url(#paint1_linear_364_1251)"/>
<defs>
<linearGradient id="paint0_linear_364_1251" x1="105.955" y1="106.102" x2="152.029" y2="152.331" gradientUnits="userSpaceOnUse">
<stop stop-color="#387EB8"/>
<stop offset="1" stop-color="#366994"/>
</linearGradient>
<linearGradient id="paint1_linear_364_1251" x1="134.298" y1="135.511" x2="183.782" y2="182.92" gradientUnits="userSpaceOnUse">
<stop stop-color="#FFE052"/>
<stop offset="1" stop-color="#FFC331"/>
</linearGradient>
</defs>
</svg>
