<svg width="288" height="288" viewBox="0 0 288 288" fill="none" xmlns="http://www.w3.org/2000/svg">
<rect x="0.5" y="0.5" width="287" height="287" stroke="#1929FE"/>
<g clip-path="url(#clip0_364_1247)">
<path d="M110.594 92H178.406C180.849 91.9976 183.268 92.4893 185.524 93.4469C187.781 94.4044 189.832 95.809 191.559 97.5804C193.286 99.3517 194.656 101.455 195.589 103.77C196.523 106.085 197.002 108.565 197 111.071V177.929C197.002 180.435 196.523 182.915 195.589 185.23C194.656 187.545 193.286 189.648 191.559 191.42C189.832 193.191 187.781 194.596 185.524 195.553C183.268 196.511 180.849 197.002 178.406 197H110.594C108.151 197.002 105.732 196.511 103.476 195.553C101.219 194.596 99.1679 193.191 97.4409 191.42C95.7138 189.648 94.3443 187.545 93.4107 185.23C92.4771 182.915 91.9977 180.435 92 177.929V111.071C91.9977 108.565 92.4771 106.085 93.4107 103.77C94.3443 101.455 95.7138 99.3517 97.4409 97.5804C99.1679 95.809 101.219 94.4044 103.476 93.4469C105.732 92.4893 108.151 91.9976 110.594 92Z" fill="#000B1D"/>
<g clip-path="url(#clip1_364_1247)">
<path d="M144.5 151.443C148.532 151.443 151.8 148.217 151.8 144.238C151.8 140.259 148.532 137.033 144.5 137.033C140.468 137.033 137.2 140.259 137.2 144.238C137.2 148.217 140.468 151.443 144.5 151.443Z" fill="#61DAFB"/>
<path fill-rule="evenodd" clip-rule="evenodd" d="M109.552 139.742C107.781 141.32 107.037 142.843 107.037 144.238C107.037 145.634 107.781 147.156 109.552 148.734C111.323 150.312 113.981 151.81 117.412 153.103C124.26 155.684 133.837 157.316 144.5 157.316C155.163 157.316 164.74 155.684 171.588 153.103C175.019 151.81 177.677 150.312 179.448 148.734C181.219 147.156 181.963 145.634 181.963 144.238C181.963 142.843 181.219 141.32 179.448 139.742C177.677 138.164 175.019 136.666 171.588 135.373C164.74 132.792 155.163 131.16 144.5 131.16C133.837 131.16 124.26 132.792 117.412 135.373C113.981 136.666 111.323 138.164 109.552 139.742ZM116.194 132.226C123.522 129.465 133.53 127.792 144.5 127.792C155.47 127.792 165.478 129.465 172.806 132.226C176.464 133.605 179.542 135.288 181.735 137.242C183.928 139.196 185.376 141.557 185.376 144.238C185.376 146.919 183.928 149.28 181.735 151.234C179.542 153.189 176.464 154.871 172.806 156.25C165.478 159.012 155.47 160.685 144.5 160.685C133.53 160.685 123.522 159.012 116.194 156.25C112.536 154.871 109.458 153.189 107.265 151.234C105.072 149.28 103.624 146.919 103.624 144.238C103.624 141.557 105.072 139.196 107.265 137.242C109.458 135.288 112.536 133.605 116.194 132.226Z" fill="#61DAFB"/>
<path fill-rule="evenodd" clip-rule="evenodd" d="M130.971 112.116C128.7 111.391 126.993 111.516 125.768 112.214C124.544 112.912 123.58 114.309 123.081 116.612C122.582 118.915 122.597 121.936 123.178 125.515C124.338 132.66 127.694 141.662 133.026 150.777C138.357 159.892 144.577 167.263 150.266 171.826C153.116 174.112 155.759 175.636 158.029 176.36C160.3 177.085 162.007 176.96 163.232 176.263C164.456 175.565 165.42 174.168 165.919 171.865C166.418 169.562 166.403 166.54 165.822 162.961C164.662 155.816 161.306 146.814 155.974 137.699C150.643 128.584 144.423 121.214 138.734 116.65C135.884 114.364 133.241 112.841 130.971 112.116ZM140.886 114.036C146.973 118.919 153.445 126.638 158.93 136.015C164.415 145.392 167.951 154.784 169.192 162.429C169.811 166.245 169.874 169.717 169.256 172.569C168.638 175.421 167.29 177.839 164.938 179.18C162.586 180.52 159.79 180.463 156.979 179.565C154.168 178.668 151.153 176.878 148.114 174.44C142.027 169.557 135.555 161.839 130.07 152.461C124.585 143.084 121.049 133.693 119.808 126.048C119.189 122.231 119.126 118.759 119.744 115.907C120.362 113.056 121.71 110.637 124.062 109.297C126.414 107.956 129.21 108.013 132.021 108.911C134.832 109.809 137.847 111.598 140.886 114.036Z" fill="#61DAFB"/>
<path fill-rule="evenodd" clip-rule="evenodd" d="M165.919 116.612C165.42 114.309 164.456 112.912 163.232 112.214C162.007 111.516 160.3 111.391 158.029 112.116C155.759 112.841 153.116 114.364 150.266 116.65C144.577 121.214 138.357 128.584 133.026 137.699C127.694 146.814 124.338 155.816 123.178 162.961C122.597 166.54 122.582 169.562 123.081 171.864C123.58 174.168 124.544 175.565 125.768 176.263C126.993 176.96 128.7 177.085 130.971 176.36C133.241 175.636 135.884 174.112 138.734 171.826C144.423 167.262 150.643 159.892 155.974 150.777C161.306 141.662 164.662 132.66 165.822 125.515C166.403 121.936 166.418 118.915 165.919 116.612ZM169.192 126.048C167.951 133.693 164.414 143.084 158.93 152.461C153.445 161.838 146.973 169.557 140.886 174.44C137.847 176.878 134.832 178.668 132.021 179.565C129.21 180.463 126.414 180.52 124.062 179.18C121.71 177.839 120.362 175.421 119.744 172.569C119.126 169.717 119.189 166.245 119.808 162.428C121.049 154.784 124.585 145.392 130.07 136.015C135.555 126.638 142.027 118.919 148.114 114.036C151.153 111.598 154.168 109.809 156.979 108.911C159.79 108.013 162.586 107.956 164.938 109.297C167.29 110.637 168.638 113.056 169.256 115.907C169.874 118.759 169.811 122.231 169.192 126.048Z" fill="#61DAFB"/>
</g>
</g>
<defs>
<clipPath id="clip0_364_1247">
<rect width="105" height="105" fill="white" transform="translate(92 92)"/>
</clipPath>
<clipPath id="clip1_364_1247">
<rect width="81.9" height="71.925" fill="white" transform="translate(103.55 108.275)"/>
</clipPath>
</defs>
</svg>
