<svg width="288" height="288" viewBox="0 0 288 288" fill="none" xmlns="http://www.w3.org/2000/svg">
<rect x="0.5" y="0.5" width="287" height="287" stroke="#1929FE"/>
<path d="M110.594 92H178.406C180.849 91.9976 183.268 92.4893 185.524 93.4469C187.781 94.4044 189.832 95.809 191.559 97.5804C193.286 99.3517 194.656 101.455 195.589 103.77C196.523 106.085 197.002 108.565 197 111.071V177.929C197.002 180.435 196.523 182.915 195.589 185.23C194.656 187.545 193.286 189.648 191.559 191.42C189.832 193.191 187.781 194.596 185.524 195.553C183.268 196.511 180.849 197.002 178.406 197H110.594C108.151 197.002 105.732 196.511 103.476 195.553C101.219 194.596 99.1679 193.191 97.4409 191.42C95.7138 189.648 94.3443 187.545 93.4107 185.23C92.4771 182.915 91.9977 180.435 92 177.929V111.071C91.9977 108.565 92.4771 106.085 93.4107 103.77C94.3443 101.455 95.7138 99.3517 97.4409 97.5804C99.1679 95.809 101.219 94.4044 103.476 93.4469C105.732 92.4893 108.151 91.9976 110.594 92Z" fill="#000B1D"/>
<path d="M178.336 115.95L163.331 108.725C161.594 107.889 159.518 108.242 158.155 109.605L109.033 154.392C107.712 155.597 107.713 157.677 109.036 158.88L113.049 162.527C114.13 163.511 115.759 163.583 116.924 162.7L176.078 117.824C178.062 116.319 180.913 117.734 180.913 120.225V120.051C180.913 118.302 179.911 116.708 178.336 115.95Z" fill="#0065A9"/>
<g filter="url(#filter0_d_364_1263)">
<path d="M178.336 173.05L163.33 180.275C161.594 181.112 159.518 180.759 158.155 179.396L109.033 134.608C107.712 133.403 107.713 131.323 109.036 130.12L113.049 126.473C114.13 125.489 115.759 125.417 116.924 126.301L176.078 171.176C178.062 172.682 180.913 171.266 180.913 168.775V168.949C180.913 170.698 179.911 172.292 178.336 173.05Z" fill="#007ACC"/>
</g>
<g filter="url(#filter1_d_364_1263)">
<path d="M163.331 180.277C161.594 181.112 159.518 180.759 158.155 179.396C159.834 181.075 162.706 179.886 162.706 177.51V111.49C162.706 109.114 159.834 107.925 158.155 109.604C159.518 108.241 161.594 107.888 163.331 108.724L178.334 115.938C179.91 116.697 180.913 118.291 180.913 120.04V168.96C180.913 170.709 179.91 172.304 178.334 173.062L163.331 180.277Z" fill="#1F9CF0"/>
</g>
<g style="mix-blend-mode:overlay" opacity="0.25">
<path style="mix-blend-mode:overlay" fill-rule="evenodd" clip-rule="evenodd" d="M159.685 180.416C160.832 180.862 162.14 180.834 163.298 180.277L178.291 173.062C179.867 172.304 180.869 170.709 180.869 168.96V120.04C180.869 118.291 179.867 116.697 178.291 115.938L163.298 108.724C161.778 107.993 160 108.172 158.667 109.141C158.476 109.28 158.295 109.434 158.124 109.605L129.421 135.791L116.918 126.301C115.755 125.417 114.127 125.49 113.046 126.473L109.036 130.121C107.713 131.323 107.712 133.403 109.032 134.608L119.875 144.5L109.032 154.392C107.712 155.597 107.713 157.677 109.036 158.88L113.046 162.527C114.127 163.511 115.755 163.583 116.918 162.7L129.421 153.209L158.124 179.396C158.578 179.85 159.112 180.192 159.685 180.416ZM162.673 127.968L140.894 144.5L162.673 161.032V127.968Z" fill="url(#paint0_linear_364_1263)"/>
</g>
<defs>
<filter id="filter0_d_364_1263" x="99.7097" y="117.35" width="89.5365" height="71.7075" filterUnits="userSpaceOnUse" color-interpolation-filters="sRGB">
<feFlood flood-opacity="0" result="BackgroundImageFix"/>
<feColorMatrix in="SourceAlpha" type="matrix" values="0 0 0 0 0 0 0 0 0 0 0 0 0 0 0 0 0 0 127 0" result="hardAlpha"/>
<feOffset/>
<feGaussianBlur stdDeviation="4.16667"/>
<feColorMatrix type="matrix" values="0 0 0 0 0 0 0 0 0 0 0 0 0 0 0 0 0 0 0.25 0"/>
<feBlend mode="overlay" in2="BackgroundImageFix" result="effect1_dropShadow_364_1263"/>
<feBlend mode="normal" in="SourceGraphic" in2="effect1_dropShadow_364_1263" result="shape"/>
</filter>
<filter id="filter1_d_364_1263" x="149.821" y="99.9417" width="39.4246" height="89.1169" filterUnits="userSpaceOnUse" color-interpolation-filters="sRGB">
<feFlood flood-opacity="0" result="BackgroundImageFix"/>
<feColorMatrix in="SourceAlpha" type="matrix" values="0 0 0 0 0 0 0 0 0 0 0 0 0 0 0 0 0 0 127 0" result="hardAlpha"/>
<feOffset/>
<feGaussianBlur stdDeviation="4.16667"/>
<feColorMatrix type="matrix" values="0 0 0 0 0 0 0 0 0 0 0 0 0 0 0 0 0 0 0.25 0"/>
<feBlend mode="overlay" in2="BackgroundImageFix" result="effect1_dropShadow_364_1263"/>
<feBlend mode="normal" in="SourceGraphic" in2="effect1_dropShadow_364_1263" result="shape"/>
</filter>
<linearGradient id="paint0_linear_364_1263" x1="144.456" y1="108.275" x2="144.456" y2="180.725" gradientUnits="userSpaceOnUse">
<stop stop-color="white"/>
<stop offset="1" stop-color="white" stop-opacity="0"/>
</linearGradient>
</defs>
</svg>
