<svg width="1440" height="900" viewBox="0 0 1440 900" fill="none" xmlns="http://www.w3.org/2000/svg">
<g clip-path="url(#clip0_180_1457)">
<path d="M1440 0H0V900H1440V0Z" fill="#FFE5E5"/>
<mask id="mask0_180_1457" style="mask-type:luminance" maskUnits="userSpaceOnUse" x="620" y="286" width="200" height="177">
<path d="M819.22 286.965H620.78V462.035H819.22V286.965Z" fill="white"/>
</mask>
<g mask="url(#mask0_180_1457)">
<path d="M685.29 329.855V332.905H682.29C675.153 332.923 668.314 335.767 663.268 340.813C658.222 345.859 655.379 352.698 655.36 359.835V365.125C655.359 367.596 655.696 370.055 656.36 372.435L654.27 371.955C639.51 368.555 640.66 358.465 641.04 355.145C642.2 344.915 649.94 333.085 661.24 324.245C671.25 316.545 682.926 311.298 695.33 308.925C692.201 311.443 689.674 314.63 687.937 318.252C686.2 321.873 685.295 325.838 685.29 329.855Z" fill="#7B61AA"/>
<path d="M795.89 380.185C794.846 381.306 793.545 382.157 792.1 382.665H777.38V397.665C777.33 399.944 776.407 402.117 774.8 403.735C774.338 404.236 773.776 404.635 773.151 404.907C772.526 405.179 771.852 405.318 771.17 405.315H770.17C761.44 405.315 753.88 408.835 748.9 415.235C745.964 419.072 744.044 423.588 743.32 428.365C740.208 424.334 736.837 420.51 733.23 416.915C736.696 414.425 739.519 411.146 741.465 407.348C743.411 403.55 744.424 399.343 744.42 395.075V392.025H747.42C754.557 392.007 761.396 389.163 766.442 384.117C771.488 379.071 774.332 372.232 774.35 365.095V359.805C774.332 352.668 771.488 345.829 766.442 340.783C761.396 335.737 754.557 332.893 747.42 332.875H744.42V329.825C744.422 325.808 743.525 321.842 741.794 318.217C740.064 314.592 737.544 311.4 734.42 308.875C752.272 312.304 768.484 321.553 780.52 335.175C794.52 350.965 799.07 367.345 799.15 371.525C799.232 373.115 798.984 374.705 798.423 376.195C797.863 377.685 797 379.044 795.89 380.185Z" fill="#7B61AA"/>
<path d="M724.38 371.985V395.105C724.377 396.924 723.654 398.667 722.368 399.953C721.082 401.239 719.339 401.962 717.52 401.965H717.36C718.79 404.195 721.22 406.585 725.36 410.055C728.078 408.617 730.352 406.465 731.937 403.831C733.523 401.196 734.361 398.18 734.36 395.105V382.015H747.44C751.92 382.012 756.215 380.232 759.384 377.066C762.552 373.899 764.335 369.605 764.34 365.125V359.835C764.335 355.354 762.553 351.059 759.384 347.891C756.216 344.723 751.921 342.94 747.44 342.935H734.41V329.855C734.405 325.376 732.624 321.082 729.458 317.914C726.292 314.746 721.999 312.963 717.52 312.955H712.22C707.741 312.963 703.448 314.746 700.282 317.914C697.116 321.082 695.335 325.376 695.33 329.855V342.935H682.25C677.77 342.94 673.474 344.723 670.306 347.891C667.138 351.059 665.355 355.354 665.35 359.835V365.125C665.355 369.605 667.138 373.899 670.306 377.066C673.475 380.232 677.77 382.012 682.25 382.015H695.33C695.33 382.015 695.33 389.645 695.33 390.425C695.25 404.215 696.1 412.145 715.42 427.875C721.75 433.025 727.19 440.195 731.98 446.515C738.46 455.055 743.75 462.035 750.06 462.035C751.054 462.034 752.04 461.868 752.98 461.545C762.69 458.315 766.67 448.945 763.38 437.095C762.74 434.805 762.74 430.195 764.77 427.605C765.21 427.035 766.55 425.325 770.55 425.425C773.93 425.493 777.289 424.883 780.428 423.631C783.568 422.379 786.425 420.51 788.83 418.135C793.228 413.823 796.129 408.216 797.11 402.135C802.099 400.728 806.624 398.018 810.22 394.285C813.189 391.24 815.515 387.63 817.062 383.669C818.608 379.707 819.342 375.476 819.22 371.225C819.06 362.315 812.49 341.055 795.55 321.935C781.42 305.965 756 286.965 714.89 286.965C682.99 286.965 661.36 298.645 648.84 308.435C633.22 320.645 622.84 337.265 621.06 352.875C618.93 371.565 629.22 386.055 647.99 391.075C656.99 402.215 667.23 411.925 688.68 411.995C687.262 408.776 686.309 405.372 685.85 401.885C669.95 401.055 662.85 393.685 654.78 383.505L653.69 382.125L651.98 381.735C637.05 378.295 629.42 368.195 630.98 354.015C632.45 341.015 641.42 326.935 654.98 316.345C666.26 307.525 685.81 297.005 714.85 297.005C752.2 297.005 775.24 314.155 787.99 328.545C803.7 346.285 808.99 365.055 809.14 371.365C809.25 374.285 808.763 377.197 807.709 379.922C806.655 382.647 805.056 385.129 803.01 387.215C799.32 390.975 794.92 392.685 792.39 392.685H787.39V397.685C787.344 402.667 785.331 407.43 781.79 410.935C780.352 412.38 778.636 413.518 776.745 414.279C774.854 415.041 772.828 415.41 770.79 415.365C763.29 415.185 759.07 418.555 756.84 421.365C752.05 427.515 752.61 435.795 753.7 439.715C754.95 444.185 755.89 449.655 751.77 451.325C747.65 452.995 743.38 444.885 739.97 440.385C734.83 433.615 728.97 425.935 721.75 420.025C705.26 406.595 705.28 401.865 705.35 390.415C705.35 389.625 705.35 371.915 705.35 371.915H682.25C681.349 371.915 680.457 371.738 679.625 371.393C678.793 371.048 678.036 370.543 677.399 369.906C676.762 369.269 676.257 368.512 675.912 367.68C675.568 366.848 675.39 365.956 675.39 365.055V359.765C675.39 358.864 675.568 357.972 675.912 357.14C676.257 356.307 676.762 355.551 677.399 354.914C678.036 354.277 678.793 353.772 679.625 353.427C680.457 353.082 681.349 352.905 682.25 352.905H705.36V329.855C705.363 328.036 706.086 326.293 707.372 325.007C708.658 323.721 710.401 322.998 712.22 322.995H717.52C719.339 322.998 721.082 323.721 722.368 325.007C723.654 326.293 724.377 328.036 724.38 329.855V352.975H747.49C749.309 352.975 751.054 353.698 752.341 354.984C753.627 356.271 754.35 358.016 754.35 359.835V365.125C754.35 366.026 754.173 366.918 753.828 367.75C753.483 368.582 752.978 369.339 752.341 369.976C751.704 370.613 750.948 371.118 750.115 371.463C749.283 371.808 748.391 371.985 747.49 371.985H724.38Z" fill="#7A6F72"/>
</g>
<path d="M558.637 582.578H566.967C566.8 585.308 566.048 587.732 564.71 589.85C563.392 591.967 561.544 593.62 559.166 594.809C556.807 595.998 553.965 596.592 550.641 596.592C548.04 596.592 545.709 596.146 543.647 595.255C541.586 594.345 539.821 593.045 538.354 591.354C536.905 589.664 535.8 587.621 535.038 585.225C534.277 582.829 533.896 580.145 533.896 577.173V574.359C533.896 571.387 534.286 568.703 535.066 566.307C535.865 563.893 536.998 561.84 538.465 560.15C539.951 558.46 541.725 557.159 543.787 556.249C545.848 555.339 548.152 554.884 550.696 554.884C554.077 554.884 556.928 555.497 559.25 556.723C561.59 557.949 563.401 559.639 564.683 561.794C565.983 563.948 566.763 566.4 567.023 569.149H558.665C558.572 567.514 558.247 566.131 557.689 564.998C557.132 563.846 556.287 562.982 555.154 562.407C554.04 561.812 552.554 561.515 550.696 561.515C549.303 561.515 548.087 561.775 547.047 562.295C546.006 562.815 545.133 563.605 544.428 564.663C543.722 565.722 543.192 567.059 542.839 568.675C542.505 570.273 542.338 572.149 542.338 574.303V577.173C542.338 579.272 542.496 581.12 542.812 582.717C543.127 584.296 543.61 585.634 544.26 586.729C544.929 587.807 545.783 588.624 546.824 589.181C547.882 589.72 549.155 589.989 550.641 589.989C552.387 589.989 553.826 589.711 554.959 589.153C556.092 588.596 556.956 587.77 557.55 586.674C558.163 585.578 558.525 584.213 558.637 582.578ZM594.656 562.407L583.623 596.035H574.735L589.808 555.469H595.464L594.656 562.407ZM603.822 596.035L592.761 562.407L591.87 555.469H597.581L612.738 596.035H603.822ZM603.32 580.934V587.482H581.895V580.934H603.32ZM648.283 589.515V596.035H627.861V589.515H648.283ZM630.563 555.469V596.035H622.205V555.469H630.563ZM662.598 555.469H669.675L680.095 585.253L690.515 555.469H697.591L682.936 596.035H677.253L662.598 555.469ZM658.781 555.469H665.83L667.111 584.5V596.035H658.781V555.469ZM694.36 555.469H701.436V596.035H693.078V584.5L694.36 555.469ZM735.588 585.42C735.588 584.696 735.477 584.045 735.254 583.47C735.05 582.875 734.66 582.337 734.084 581.854C733.508 581.352 732.7 580.86 731.66 580.377C730.62 579.894 729.273 579.393 727.62 578.873C725.781 578.278 724.035 577.61 722.382 576.867C720.748 576.124 719.299 575.26 718.036 574.275C716.791 573.272 715.807 572.112 715.083 570.793C714.377 569.474 714.024 567.942 714.024 566.196C714.024 564.505 714.395 562.973 715.138 561.599C715.881 560.206 716.921 559.017 718.259 558.032C719.596 557.029 721.175 556.259 722.995 555.72C724.834 555.181 726.849 554.912 729.041 554.912C732.032 554.912 734.641 555.451 736.87 556.528C739.099 557.605 740.826 559.082 742.052 560.958C743.297 562.834 743.919 564.979 743.919 567.394H735.616C735.616 566.205 735.366 565.165 734.864 564.273C734.381 563.363 733.638 562.648 732.635 562.128C731.651 561.608 730.406 561.348 728.902 561.348C727.453 561.348 726.246 561.571 725.28 562.017C724.314 562.444 723.59 563.029 723.107 563.772C722.624 564.496 722.382 565.313 722.382 566.224C722.382 566.911 722.549 567.533 722.884 568.09C723.237 568.647 723.757 569.168 724.444 569.65C725.131 570.133 725.976 570.588 726.979 571.016C727.982 571.443 729.143 571.861 730.462 572.269C732.672 572.938 734.613 573.69 736.285 574.526C737.975 575.362 739.387 576.3 740.52 577.34C741.653 578.38 742.507 579.56 743.083 580.879C743.659 582.197 743.947 583.693 743.947 585.364C743.947 587.129 743.603 588.708 742.916 590.101C742.229 591.494 741.235 592.673 739.935 593.639C738.635 594.605 737.084 595.338 735.282 595.84C733.48 596.341 731.465 596.592 729.236 596.592C727.23 596.592 725.252 596.332 723.302 595.812C721.351 595.273 719.578 594.465 717.98 593.388C716.401 592.311 715.138 590.936 714.191 589.265C713.244 587.593 712.77 585.615 712.77 583.33H721.156C721.156 584.593 721.351 585.661 721.741 586.534C722.132 587.407 722.679 588.113 723.385 588.652C724.11 589.19 724.964 589.581 725.949 589.822C726.952 590.063 728.047 590.184 729.236 590.184C730.685 590.184 731.874 589.98 732.802 589.571C733.75 589.163 734.446 588.596 734.892 587.872C735.356 587.147 735.588 586.33 735.588 585.42ZM771.134 581.575H760.797V575.056H771.134C772.731 575.056 774.031 574.796 775.034 574.275C776.037 573.737 776.771 572.994 777.235 572.047C777.7 571.099 777.932 570.031 777.932 568.843C777.932 567.635 777.7 566.511 777.235 565.471C776.771 564.431 776.037 563.595 775.034 562.964C774.031 562.332 772.731 562.017 771.134 562.017H763.695V596.035H755.336V555.469H771.134C774.31 555.469 777.031 556.045 779.297 557.197C781.582 558.33 783.328 559.899 784.535 561.905C785.742 563.911 786.346 566.205 786.346 568.787C786.346 571.406 785.742 573.672 784.535 575.585C783.328 577.498 781.582 578.975 779.297 580.015C777.031 581.055 774.31 581.575 771.134 581.575ZM809.688 562.407L798.655 596.035H789.767L804.84 555.469H810.496L809.688 562.407ZM818.854 596.035L807.793 562.407L806.902 555.469H812.613L827.77 596.035H818.854ZM818.353 580.934V587.482H796.928V580.934H818.353ZM860.25 582.578H868.581C868.414 585.308 867.661 587.732 866.324 589.85C865.005 591.967 863.157 593.62 860.78 594.809C858.421 595.998 855.579 596.592 852.254 596.592C849.654 596.592 847.323 596.146 845.261 595.255C843.199 594.345 841.435 593.045 839.967 591.354C838.519 589.664 837.414 587.621 836.652 585.225C835.89 582.829 835.51 580.145 835.51 577.173V574.359C835.51 571.387 835.9 568.703 836.68 566.307C837.479 563.893 838.612 561.84 840.079 560.15C841.565 558.46 843.339 557.159 845.4 556.249C847.462 555.339 849.765 554.884 852.31 554.884C855.69 554.884 858.542 555.497 860.863 556.723C863.204 557.949 865.015 559.639 866.296 561.794C867.596 563.948 868.377 566.4 868.637 569.149H860.278C860.185 567.514 859.86 566.131 859.303 564.998C858.746 563.846 857.901 562.982 856.768 562.407C855.653 561.812 854.167 561.515 852.31 561.515C850.917 561.515 849.7 561.775 848.66 562.295C847.62 562.815 846.747 563.605 846.041 564.663C845.335 565.722 844.806 567.059 844.453 568.675C844.119 570.273 843.952 572.149 843.952 574.303V577.173C843.952 579.272 844.109 581.12 844.425 582.717C844.741 584.296 845.224 585.634 845.874 586.729C846.543 587.807 847.397 588.624 848.437 589.181C849.496 589.72 850.768 589.989 852.254 589.989C854 589.989 855.44 589.711 856.573 589.153C857.706 588.596 858.569 587.77 859.164 586.674C859.777 585.578 860.139 584.213 860.25 582.578ZM906.996 589.515V596.035H885.403V589.515H906.996ZM888.134 555.469V596.035H879.775V555.469H888.134ZM904.182 571.991V578.343H885.403V571.991H904.182ZM906.968 555.469V562.017H885.403V555.469H906.968Z" fill="#594488"/>
</g>
<defs>
<clipPath id="clip0_180_1457">
<rect width="1440" height="900" fill="white"/>
</clipPath>
</defs>
</svg>
