<svg width="105" height="105" viewBox="0 0 105 105" fill="none" xmlns="http://www.w3.org/2000/svg">
<g clip-path="url(#clip0_364_1204)">
<path d="M18.5938 8.46316e-06H86.4062C88.8487 -0.00235256 91.2675 0.489309 93.5245 1.44686C95.7814 2.4044 97.8321 3.80904 99.5591 5.58037C101.286 7.3517 102.656 9.45495 103.589 11.7698C104.523 14.0846 105.002 16.5655 105 19.0705V85.9295C105.002 88.4345 104.523 90.9154 103.589 93.2302C102.656 95.545 101.286 97.6483 99.5591 99.4196C97.8321 101.191 95.7814 102.596 93.5245 103.553C91.2675 104.511 88.8487 105.002 86.4062 105H18.5938C16.1513 105.002 13.7324 104.511 11.4755 103.553C9.21858 102.596 7.1679 101.191 5.44086 99.4196C3.71381 97.6483 2.34429 95.545 1.41068 93.2302C0.477077 90.9154 -0.00229374 88.4345 8.25158e-06 85.9295V19.0705C-0.00229374 16.5655 0.477077 14.0846 1.41068 11.7698C2.34429 9.45495 3.71381 7.3517 5.44086 5.58037C7.1679 3.80904 9.21858 2.4044 11.4755 1.44686C13.7324 0.489309 16.1513 -0.00235256 18.5938 8.46316e-06Z" fill="#2965F1"/>
<path d="M25.7014 43.2851L26.7346 54.8142H52.5345V43.2851H25.7014ZM23.625 19.9501L24.673 31.4791H52.5345V19.9501H23.625ZM52.5345 73.2274L52.4839 73.2407L39.6441 69.7738L38.8232 60.5789H27.2497L28.8648 78.6813L52.4814 85.2369L52.5345 85.2225V73.2274Z" fill="#EBEBEB"/>
<path d="M79.294 43.2851L81.3751 19.9501H52.4949V31.4791H68.7403L67.6913 43.2851H52.4949V54.8142H66.6917L65.3531 69.7665L52.4945 73.2371V85.2315L76.1299 78.6813L76.3031 76.7334L79.0128 46.381L79.294 43.2851Z" fill="white"/>
</g>
<defs>
<clipPath id="clip0_364_1204">
<rect width="105" height="105" fill="white"/>
</clipPath>
</defs>
</svg>
