<svg width="99" height="99" viewBox="0 0 99 99" fill="none" xmlns="http://www.w3.org/2000/svg">
<path d="M97.9713 76.1371C94.4445 77.0343 92.2634 76.1758 90.3066 73.2368C85.9135 66.6548 81.064 60.3745 76.3847 53.9782C75.7814 53.1506 75.1549 52.3385 74.3738 51.3098C68.836 58.7812 63.3059 65.8968 58.1161 73.2986C56.2599 75.9438 54.3108 77.0962 50.8458 76.1603L71.6667 48.216L52.2844 22.9788C55.6179 22.3291 57.9228 22.6617 59.9646 25.6471C64.4738 32.2368 69.447 38.5094 74.4047 45.1455C79.3934 38.5326 84.3047 32.2523 88.9453 25.7245C90.8093 23.0793 92.8125 22.0739 96.1615 23.0484C93.6246 26.4128 91.1419 29.7232 88.6437 33.0103C85.2715 37.4421 81.9612 41.928 78.4653 46.267C77.22 47.8139 77.4211 48.8193 78.5349 50.2811C85.0008 58.7812 91.3894 67.3664 97.9713 76.1371ZM1.0287 47.752C1.58557 44.9599 1.95682 42.1136 2.73026 39.3757C7.37088 22.8009 26.3974 15.9096 39.4685 26.1808C47.1256 32.2059 49.0282 40.6982 48.6492 50.2734H5.49143C4.84174 67.4514 17.209 77.8232 32.9717 72.5329C38.5017 70.6767 41.7579 66.3454 43.3899 60.9314C44.2174 58.2166 45.5864 57.7912 48.1388 58.5646C46.8317 65.34 43.8694 71.0015 37.6819 74.5439C28.4007 79.8496 15.1517 78.1326 8.18299 70.7617C4.06831 66.4305 2.32034 61.0396 1.5469 55.2157C1.43088 54.2875 1.19112 53.3749 1.00549 52.4545C1.02096 50.887 1.0287 49.3195 1.0287 47.752V47.752ZM5.56877 46.5996H44.5732C44.318 34.1782 36.5836 25.3532 26.0107 25.2759C14.4092 25.1831 6.07151 33.7992 5.56877 46.5996V46.5996Z" fill="black"/>
</svg>
