<svg width="100" height="100" viewBox="0 0 100 100" fill="none" xmlns="http://www.w3.org/2000/svg">
<g clip-path="url(#clip0_366_1306)">
<path d="M17.7083 8.06015e-06H82.2917C84.6178 -0.00224053 86.9215 0.466009 89.0709 1.37796C91.2204 2.28991 93.1734 3.62765 94.8182 5.31463C96.4631 7.00162 97.7674 9.00471 98.6565 11.2093C99.5457 13.4139 100.002 15.7766 100 18.1624V81.8376C100.002 84.2234 99.5457 86.5861 98.6565 88.7907C97.7674 90.9953 96.4631 92.9984 94.8182 94.6854C93.1734 96.3723 91.2204 97.7101 89.0709 98.622C86.9215 99.534 84.6178 100.002 82.2917 100H17.7083C15.3822 100.002 13.0785 99.534 10.9291 98.622C8.7796 97.7101 6.82658 96.3723 5.18177 94.6854C3.53696 92.9984 2.23266 90.9953 1.34351 88.7907C0.454359 86.5861 -0.00218452 84.2234 7.85865e-06 81.8376V18.1624C-0.00218452 15.7766 0.454359 13.4139 1.34351 11.2093C2.23266 9.00471 3.53696 7.00162 5.18177 5.31463C6.82658 3.62765 8.7796 2.28991 10.9291 1.37796C13.0785 0.466009 15.3822 -0.00224053 17.7083 8.06015e-06Z" fill="#000B1D"/>
<path d="M40.4169 80.5001C46.1699 80.5001 50.8336 75.8364 50.8336 70.0834V59.6667H40.4169C34.6639 59.6667 30.0002 64.3304 30.0002 70.0834C30.0002 75.8364 34.6639 80.5001 40.4169 80.5001Z" fill="#0ACF83"/>
<path d="M30.0002 49.2502C30.0002 43.4972 34.6639 38.8335 40.4169 38.8335H50.8336V59.6668H40.4169C34.6639 59.6668 30.0002 55.0031 30.0002 49.2502Z" fill="#A259FF"/>
<path d="M30.0002 28.4168C30.0002 22.6638 34.6639 18.0001 40.4169 18.0001H50.8336V38.8335H40.4169C34.6639 38.8335 30.0002 34.1698 30.0002 28.4168Z" fill="#F24E1E"/>
<path d="M50.8335 18H61.2502C67.0031 18 71.6668 22.6637 71.6668 28.4167C71.6668 34.1696 67.0031 38.8333 61.2502 38.8333H50.8335V18Z" fill="#FF7262"/>
<path d="M71.6668 49.2502C71.6668 55.0031 67.0031 59.6668 61.2502 59.6668C55.4972 59.6668 50.8335 55.0031 50.8335 49.2502C50.8335 43.4972 55.4972 38.8335 61.2502 38.8335C67.0031 38.8335 71.6668 43.4972 71.6668 49.2502Z" fill="#1ABCFE"/>
</g>
<defs>
<clipPath id="clip0_366_1306">
<rect width="100" height="100" fill="white"/>
</clipPath>
</defs>
</svg>
