<svg width="105" height="105" viewBox="0 0 105 105" fill="none" xmlns="http://www.w3.org/2000/svg">
<g clip-path="url(#clip0_366_1764)">
<path d="M18.5938 8.46316e-06H86.4062C88.8487 -0.00235256 91.2675 0.489309 93.5245 1.44686C95.7814 2.4044 97.8321 3.80904 99.5591 5.58037C101.286 7.3517 102.656 9.45495 103.589 11.7698C104.523 14.0846 105.002 16.5655 105 19.0705V85.9295C105.002 88.4345 104.523 90.9154 103.589 93.2302C102.656 95.5451 101.286 97.6483 99.5591 99.4196C97.8321 101.191 95.7814 102.596 93.5245 103.553C91.2675 104.511 88.8487 105.002 86.4062 105H18.5938C16.1513 105.002 13.7325 104.511 11.4755 103.553C9.21858 102.596 7.1679 101.191 5.44086 99.4196C3.71381 97.6483 2.34429 95.5451 1.41068 93.2302C0.477077 90.9154 -0.00229374 88.4345 8.25158e-06 85.9295V19.0705C-0.00229374 16.5655 0.477077 14.0846 1.41068 11.7698C2.34429 9.45495 3.71381 7.3517 5.44086 5.58037C7.1679 3.80904 9.21858 2.4044 11.4755 1.44686C13.7325 0.489309 16.1513 -0.00235256 18.5938 8.46316e-06Z" fill="#F7DF1E"/>
<path d="M70.7119 82.1587C72.8269 85.6121 75.5785 88.1504 80.4452 88.1504C84.5335 88.1504 87.1452 86.1071 87.1452 83.2837C87.1452 79.9004 84.4619 78.7021 79.9619 76.7337L77.4952 75.6754C70.3752 72.6421 65.6452 68.8421 65.6452 60.8087C65.6452 53.4087 71.2835 47.7754 80.0952 47.7754C86.3685 47.7754 90.8785 49.9587 94.1285 55.6754L86.4452 60.6087C84.7535 57.5754 82.9285 56.3804 80.0952 56.3804C77.2052 56.3804 75.3735 58.2137 75.3735 60.6087C75.3735 63.5687 77.2069 64.7671 81.4402 66.6004L83.9069 67.6571C92.2902 71.2521 97.0235 74.9171 97.0235 83.1571C97.0235 92.0404 90.0452 96.9071 80.6735 96.9071C71.5102 96.9071 65.5902 92.5404 62.6935 86.8171L70.7119 82.1587ZM35.8569 83.0137C37.4069 85.7637 38.8169 88.0887 42.2069 88.0887C45.4485 88.0887 47.4935 86.8204 47.4935 81.8887V48.3387H57.3602V82.0221C57.3602 92.2387 51.3702 96.8887 42.6269 96.8887C34.7269 96.8887 30.1519 92.8004 27.8252 87.8762L35.8569 83.0137Z" fill="black"/>
</g>
<defs>
<clipPath id="clip0_366_1764">
<rect width="105" height="105" fill="white"/>
</clipPath>
</defs>
</svg>
