<svg width="105" height="117" viewBox="0 0 105 117" fill="none" xmlns="http://www.w3.org/2000/svg">
<path d="M52.5206 117C50.9355 117 49.3612 116.589 47.9715 115.798L33.4912 107.324C31.3285 106.129 32.3838 105.706 33.0971 105.462C35.9808 104.464 36.566 104.239 39.644 102.511C39.9675 102.329 40.391 102.393 40.7221 102.586L51.8464 109.111C52.2481 109.326 52.8181 109.326 53.1905 109.111L96.565 84.364C96.9667 84.1387 97.2273 83.6772 97.2273 83.205V33.7322C97.2273 33.2386 96.9667 32.7985 96.5563 32.5517L53.1992 7.82604C52.7975 7.58995 52.2655 7.58995 51.8638 7.82604L8.5153 32.5517C8.09513 32.7878 7.82805 33.2493 7.82805 33.7215V83.1943C7.82805 83.6665 8.08862 84.1172 8.50119 84.3426L20.379 91.125C26.8281 94.3123 30.7693 90.5562 30.7693 86.7787V37.9497C30.7693 37.2522 31.323 36.7156 32.0287 36.7156H37.5225C38.2065 36.7156 38.7711 37.2522 38.7711 37.9497V86.8001C38.7711 95.2996 34.0808 100.182 25.927 100.182C23.419 100.182 21.443 100.182 15.9275 97.4996L4.54917 91.0177C1.73715 89.4079 0 86.4031 0 83.1943V33.7215C0 30.502 1.73715 27.4971 4.54917 25.9088L47.9671 1.15097C50.714 -0.383656 54.362 -0.383656 57.0872 1.15097L100.451 25.9196C103.252 27.5186 105 30.5127 105 33.7322V83.205C105 86.4138 103.252 89.4079 100.451 91.0177L57.0872 115.776C55.6974 116.57 54.1232 116.977 52.5163 116.977" fill="#689F63"/>
<path d="M65.9184 82.9098C46.94 82.9098 42.9609 74.2987 42.9609 67.0763C42.9609 66.3895 43.5211 65.8422 44.2171 65.8422H49.8194C50.4382 65.8422 50.9594 66.2875 51.0571 66.8917C51.904 72.5344 54.4228 75.3804 65.8989 75.3804C75.0406 75.3804 78.9275 73.3393 78.9275 68.5476C78.9275 65.7896 77.8201 63.7398 63.6189 62.3662C51.7411 61.2072 44.4016 58.6209 44.4016 49.2307C44.4016 40.581 51.7845 35.4298 64.1509 35.4298C78.0372 35.4298 84.9207 40.1946 85.7893 50.4326C85.8219 50.7868 85.6916 51.1302 85.4527 51.3877C85.2139 51.6346 84.8773 51.7848 84.5298 51.7848H78.895C78.3087 51.7848 77.7984 51.377 77.679 50.819C76.3218 44.8844 73.0429 42.9849 64.1292 42.9849C54.1514 42.9849 52.9897 46.419 52.9897 48.9946C52.9897 52.1175 54.3577 53.0297 67.8206 54.7897C81.1533 56.5389 87.483 59.0072 87.483 68.2686C87.483 77.6051 79.6007 82.9602 65.8555 82.9602L65.9184 82.9098Z" fill="#689F63"/>
</svg>
