<svg width="105" height="105" viewBox="0 0 105 105" fill="none" xmlns="http://www.w3.org/2000/svg">
<g clip-path="url(#clip0_366_1756)">
<path d="M18.5938 8.46316e-06H86.4062C88.8487 -0.00235256 91.2675 0.489309 93.5245 1.44686C95.7814 2.4044 97.8321 3.80904 99.5591 5.58037C101.286 7.3517 102.656 9.45495 103.589 11.7698C104.523 14.0846 105.002 16.5655 105 19.0705V85.9295C105.002 88.4345 104.523 90.9154 103.589 93.2302C102.656 95.5451 101.286 97.6483 99.5591 99.4196C97.8321 101.191 95.7814 102.596 93.5245 103.553C91.2675 104.511 88.8487 105.002 86.4062 105H18.5938C16.1513 105.002 13.7325 104.511 11.4755 103.553C9.21858 102.596 7.1679 101.191 5.44086 99.4196C3.71381 97.6483 2.34429 95.5451 1.41068 93.2302C0.477077 90.9154 -0.00229374 88.4345 8.25158e-06 85.9295V19.0705C-0.00229374 16.5655 0.477077 14.0846 1.41068 11.7698C2.34429 9.45495 3.71381 7.3517 5.44086 5.58037C7.1679 3.80904 9.21858 2.4044 11.4755 1.44686C13.7325 0.489309 16.1513 -0.00235256 18.5938 8.46316e-06Z" fill="#000B1D"/>
<g clip-path="url(#clip1_366_1756)">
<path d="M52.5 59.4433C56.5315 59.4433 59.7998 56.2173 59.7998 52.2379C59.7998 48.2585 56.5315 45.0326 52.5 45.0326C48.4684 45.0326 45.2002 48.2585 45.2002 52.2379C45.2002 56.2173 48.4684 59.4433 52.5 59.4433Z" fill="#61DAFB"/>
<path fill-rule="evenodd" clip-rule="evenodd" d="M17.5517 47.7422C15.7806 49.3204 15.0365 50.8425 15.0365 52.2382C15.0365 53.6338 15.7806 55.156 17.5517 56.7341C19.3227 58.3121 21.9811 59.8104 25.4114 61.1032C32.2602 63.6844 41.8369 65.3162 52.4998 65.3162C63.1628 65.3162 72.7395 63.6844 79.5883 61.1032C83.0185 59.8104 85.677 58.3121 87.448 56.7341C89.2191 55.156 89.9632 53.6338 89.9632 52.2382C89.9632 50.8425 89.2191 49.3204 87.448 47.7422C85.677 46.1642 83.0185 44.6659 79.5883 43.3732C72.7395 40.792 63.1628 39.1602 52.4998 39.1602C41.8369 39.1602 32.2602 40.792 25.4114 43.3732C21.9811 44.6659 19.3227 46.1642 17.5517 47.7422ZM24.1942 40.2264C31.522 37.4647 41.53 35.7919 52.4998 35.7919C63.4697 35.7919 73.4777 37.4647 80.8055 40.2264C84.4636 41.605 87.5414 43.2877 89.7346 45.242C91.9276 47.196 93.3757 49.5574 93.3757 52.2382C93.3757 54.919 91.9276 57.2804 89.7346 59.2344C87.5414 61.1887 84.4636 62.8714 80.8055 64.25C73.4777 67.0117 63.4697 68.6845 52.4998 68.6845C41.53 68.6845 31.522 67.0117 24.1942 64.25C20.5361 62.8714 17.4583 61.1887 15.2651 59.2344C13.0721 57.2804 11.624 54.919 11.624 52.2382C11.624 49.5574 13.0721 47.196 15.2651 45.242C17.4583 43.2877 20.5361 41.605 24.1942 40.2264Z" fill="#61DAFB"/>
<path fill-rule="evenodd" clip-rule="evenodd" d="M38.9706 20.1158C36.7003 19.3909 34.9928 19.5159 33.7683 20.2137C32.5438 20.9115 31.5804 22.3087 31.0813 24.6118C30.5823 26.9146 30.5969 29.9362 31.1778 33.5149C32.3375 40.6599 35.6942 49.6622 41.0257 58.7771C46.3571 67.892 52.5772 75.2625 58.2662 79.8264C61.1156 82.1123 63.7594 83.6356 66.0294 84.3605C68.2996 85.0854 70.0071 84.9604 71.2316 84.2625C72.4561 83.5647 73.4196 82.1676 73.9187 79.8645C74.4177 77.5616 74.403 74.54 73.8222 70.9614C72.6624 63.8163 69.3058 54.814 63.9743 45.6991C58.6428 36.5842 52.4228 29.2138 46.7337 24.6499C43.8843 22.364 41.2406 20.8407 38.9706 20.1158ZM48.886 22.0359C54.973 26.9191 61.4447 34.6377 66.9296 44.015C72.4145 53.3922 75.9508 62.7837 77.1917 70.4285C77.8111 74.2448 77.8737 77.7171 77.2557 80.569C76.6377 83.4207 75.29 85.8392 72.9379 87.1796C70.5858 88.52 67.79 88.4629 64.979 87.5653C62.1678 86.6676 59.1525 84.878 56.1139 82.4403C50.027 77.5572 43.5552 69.8385 38.0703 60.4613C32.5854 51.0841 29.0491 41.6926 27.8082 34.0478C27.1888 30.2315 27.1263 26.7591 27.7443 23.9072C28.3622 21.0555 29.71 18.6371 32.0621 17.2966C34.4141 15.9562 37.21 16.0134 40.0209 16.911C42.8321 17.8087 45.8474 19.5983 48.886 22.0359Z" fill="#61DAFB"/>
<path fill-rule="evenodd" clip-rule="evenodd" d="M73.9183 24.6117C73.4193 22.3086 72.4558 20.9115 71.2313 20.2137C70.0068 19.5159 68.2993 19.3908 66.0291 20.1158C63.7591 20.8406 61.1153 22.364 58.2659 24.6498C52.5769 29.2137 46.3568 36.5842 41.0253 45.6991C35.6939 54.814 32.3372 63.8163 31.1775 70.9613C30.5966 74.54 30.5819 77.5616 31.081 79.8645C31.58 82.1676 32.5435 83.5647 33.768 84.2625C34.9925 84.9603 36.7 85.0854 38.9702 84.3604C41.2402 83.6356 43.884 82.1122 46.7334 79.8264C52.4224 75.2625 58.6425 67.892 63.974 58.7771C69.3054 49.6622 72.6621 40.6599 73.8218 33.5149C74.4027 29.9362 74.4174 26.9146 73.9183 24.6117ZM77.1914 34.0477C75.9505 41.6925 72.4142 51.084 66.9293 60.4613C61.4444 69.8385 54.9727 77.5571 48.8857 82.4403C45.8471 84.8779 42.8318 86.6676 40.0206 87.5652C37.2097 88.4628 34.4138 88.52 32.0617 87.1796C29.7097 85.8392 28.3619 83.4207 27.7439 80.569C27.1259 77.7171 27.1885 74.2448 27.8079 70.4285C29.0488 62.7836 32.5851 53.3922 38.07 44.0149C43.5549 34.6377 50.0267 26.919 56.1136 22.0359C59.1522 19.5983 62.1675 17.8086 64.9787 16.911C67.7897 16.0133 70.5855 15.9562 72.9376 17.2966C75.2896 18.637 76.6374 21.0555 77.2554 23.9072C77.8734 26.7591 77.8108 30.2314 77.1914 34.0477Z" fill="#61DAFB"/>
</g>
</g>
<defs>
<clipPath id="clip0_366_1756">
<rect width="105" height="105" fill="white"/>
</clipPath>
<clipPath id="clip1_366_1756">
<rect width="81.9" height="71.925" fill="white" transform="translate(11.5498 16.2754)"/>
</clipPath>
</defs>
</svg>
