<svg width="503" height="170" viewBox="0 0 503 170" fill="none" xmlns="http://www.w3.org/2000/svg">
<path d="M0 19C0 8.5066 8.50659 0 19 0H483.917C494.41 0 502.917 8.50659 502.917 19V150.848C502.917 161.342 494.41 169.848 483.917 169.848H19C8.50656 169.848 0 161.342 0 150.848V19Z" fill="#1929FE"/>
<path d="M15.3487 17.6984H58.9464V36.0707H43.6361V45.0624H55.9329V63.0944H43.6361V83.7511L15.3487 83.7997V17.6984Z" fill="white"/>
<path d="M90.1987 85.7439C80.6075 85.7439 73.3493 84.0751 68.4241 80.7376C63.5313 77.3678 61.0849 72.394 61.0849 65.8163V17.6984H88.8864V62.2682C88.8864 64.3095 89.34 65.3302 90.2473 65.3302C91.1545 65.3302 91.6082 64.3257 91.6082 62.3168V17.6984H119.264V65.8163C119.264 72.394 116.817 77.3678 111.925 80.7376C107.032 84.0751 99.7898 85.7439 90.1987 85.7439Z" fill="white"/>
<path d="M121.694 17.6984H150.03V64.2123H161.938V83.7997H121.694V17.6984Z" fill="white"/>
<path d="M164.077 17.6984H192.413V64.2123H204.321V83.7997H164.077V17.6984Z" fill="white"/>
<path d="M234.504 85.5008C215.775 85.5008 206.378 79.1013 206.313 66.3023V61.8793H231.587V66.5939C231.587 66.9503 231.685 67.2744 231.879 67.566C232.106 67.8576 232.478 68.0034 232.997 68.0034C233.451 68.0034 233.791 67.8576 234.018 67.566C234.277 67.2744 234.406 66.9503 234.406 66.5939C234.406 65.9459 234.325 65.314 234.163 64.6984C234.001 64.0503 233.758 63.5157 233.434 63.0944C232.721 62.1872 231.717 61.3933 230.421 60.7129C229.157 60.0324 227.294 59.1575 224.831 58.0882C221.105 56.5005 218.011 54.9614 215.548 53.4709C213.085 51.9479 210.963 49.7932 209.181 47.0066C207.399 44.2199 206.508 40.6718 206.508 36.3623V35.4388C206.702 28.5695 208.938 23.6281 213.215 20.6146C217.492 17.6012 223.811 16.0945 232.171 16.0945C238.23 16.0945 243.252 16.8883 247.238 18.4761C251.256 20.0638 254.237 22.2996 256.181 25.1834C258.125 28.0348 259.113 31.3885 259.146 35.2444V38.5495H234.844V34.9042C234.844 34.5478 234.714 34.2399 234.455 33.9807C234.196 33.7215 233.856 33.5919 233.434 33.5919C233.013 33.5919 232.673 33.7377 232.414 34.0293C232.154 34.2885 232.025 34.6126 232.025 35.0014C232.025 35.455 232.138 35.9735 232.365 36.5567C232.624 37.1076 232.932 37.5288 233.288 37.8204C233.872 38.3713 234.682 38.8897 235.719 39.3757C236.756 39.8294 238.149 40.364 239.899 40.9797C243.884 42.4702 247.238 44.0255 249.96 45.6456C252.681 47.2334 255.063 49.7284 257.104 53.1306C259.178 56.5329 260.215 61.0369 260.215 66.6425V67.809C260.085 71.6973 258.919 74.97 256.716 77.627C254.512 80.284 251.499 82.2606 247.675 83.5567C243.884 84.8528 239.494 85.5008 234.504 85.5008Z" fill="white"/>
<path d="M269.644 37.869H260.604V17.6984H306.778V37.869H297.834V83.7997H269.644V37.869Z" fill="white"/>
<path d="M331.76 78.2103H327.872L327.677 83.7997H299.39L315.04 17.6984H344.543L360.242 83.7997H332.003L331.76 78.2103ZM331.031 63.6291L330.107 44.0417H329.233L328.455 63.6291H331.031Z" fill="white"/>
<path d="M386.925 85.4036C376.848 85.4036 369.234 83.0382 364.082 78.3075C358.93 73.5767 356.354 66.5777 356.354 57.3106V43.9931C356.354 34.7908 358.93 27.8404 364.082 23.142C369.234 18.4437 376.848 16.0945 386.925 16.0945C396.808 16.0945 404.326 18.3627 409.478 22.899C414.63 27.403 417.319 34.0779 417.546 42.9238V49.2423L388.286 49.2909V40.202C388.286 39.2623 387.816 38.7925 386.877 38.7925C385.937 38.7925 385.467 39.2623 385.467 40.202V61.0531C385.467 61.9928 385.937 62.4626 386.877 62.4626C387.816 62.4626 388.286 61.9928 388.286 61.0531V52.2072H417.546V58.4771C417.287 67.3554 414.565 74.0627 409.38 78.5991C404.228 83.1354 396.743 85.4036 386.925 85.4036Z" fill="white"/>
<path d="M419.733 17.6984H448.069L447.534 42.1948H448.604L450.985 17.6984H480.828L473.829 50.7491L481.071 83.7997H451.034L448.604 60.2268L447.583 60.1782L448.069 83.7997H419.733V17.6984Z" fill="white"/>
<path d="M15.0709 99.8617H37.5585C45.2693 99.8617 51.0966 101.606 55.0404 105.095C58.9843 108.558 60.9562 113.69 60.9562 120.491V130.73C60.9562 137.556 58.9843 142.713 55.0404 146.202C51.1219 149.691 45.3198 151.435 37.6344 151.435H15.0709V99.8617ZM37.1793 134.37C37.6344 134.37 37.9504 134.282 38.1273 134.105C38.3296 133.928 38.456 133.612 38.5066 133.157C38.5571 132.702 38.5824 131.931 38.5824 130.844V120.643C38.5824 119.53 38.5571 118.747 38.5066 118.292C38.456 117.811 38.3296 117.483 38.1273 117.306C37.9504 117.103 37.6344 117.002 37.1793 117.002H36.3829V134.37H37.1793Z" fill="white"/>
<path d="M62.6248 99.8617H96.6785V114.196H84.9986V120.795H94.2894V130.995H84.9986V137.518H96.9439V151.435H62.6248V99.8617Z" fill="white"/>
<path d="M97.4369 99.8617H119.507L120.835 130.882H121.517L122.882 99.8617H144.915L132.704 151.435H109.648L97.4369 99.8617Z" fill="white"/>
<path d="M145.673 99.8617H179.727V114.196H168.047V120.795H177.338V130.995H168.047V137.518H179.992V151.435H145.673V99.8617Z" fill="white"/>
<path d="M181.623 99.8617H203.731V136.153H213.022V151.435H181.623V99.8617Z" fill="white"/>
<path d="M214.387 120.302C214.387 113.147 216.397 107.749 220.417 104.109C224.437 100.443 230.39 98.6103 238.278 98.6103C246.166 98.6103 252.12 100.443 256.139 104.109C260.159 107.775 262.169 113.198 262.169 120.377V130.768C262.169 137.998 260.159 143.459 256.139 147.15C252.12 150.841 246.166 152.687 238.278 152.687C230.416 152.687 224.475 150.841 220.455 147.15C216.461 143.459 214.438 137.998 214.387 130.768V120.302ZM237.216 133.688C237.216 134.421 237.57 134.788 238.278 134.788C238.986 134.788 239.34 134.421 239.34 133.688V117.419C239.34 116.686 238.986 116.32 238.278 116.32C237.57 116.32 237.216 116.686 237.216 117.419V133.688Z" fill="white"/>
<path d="M263.837 99.8617H284.998C290.003 99.8617 294.112 100.266 297.322 101.075C300.558 101.859 303.099 103.414 304.945 105.74C306.79 108.04 307.713 111.39 307.713 115.789V123.677C307.662 127.848 306.714 131.071 304.869 133.347C303.048 135.622 300.634 137.164 297.626 137.973C294.617 138.757 290.939 139.149 286.59 139.149H285.946V151.435H263.837V99.8617ZM285.68 126.179C286.186 126.179 286.527 126.053 286.704 125.8C286.906 125.522 287.008 125.016 287.008 124.283V116.434C287.008 115.65 286.919 115.132 286.742 114.879C286.565 114.601 286.173 114.462 285.567 114.462H284.808V126.179H285.68Z" fill="white"/>
<path d="M309.343 99.8617H336.23L337.785 126.71H338.695L340.288 99.8617H367.174V151.435H348.517L351.55 124.207H350.526L346.014 151.435H330.504L325.915 124.207H324.929L328.001 151.435H309.343V99.8617Z" fill="white"/>
<path d="M369.184 99.8617H403.238V114.196H391.558V120.795H400.849V130.995H391.558V137.518H403.503V151.435H369.184V99.8617Z" fill="white"/>
<path d="M405.134 99.8617H428.304L429.442 105.588L432.437 123.032L433.461 122.956L430.845 99.8617H449.692V151.435H426.484L425.384 145.975L421.668 124.283L420.682 124.245L423.791 151.435H405.134V99.8617Z" fill="white"/>
<path d="M458.148 115.599H451.095V99.8617H487.12V115.599H480.143V151.435H458.148V115.599Z" fill="white"/>
</svg>
