<svg width="500" height="170" viewBox="0 0 500 170" fill="none" xmlns="http://www.w3.org/2000/svg">
<rect y="0.0759277" width="499.122" height="169.848" rx="19" fill="#1929FE"/>
<path d="M172.412 18.8986H206.612L208.59 53.3102H209.747L211.773 18.8986H245.973V84.9999H222.241L226.1 50.1023H224.797L219.057 84.9999H199.328L193.491 50.1023H192.237L196.144 84.9999H172.412V18.8986Z" fill="white"/>
<path d="M248.144 45.0961C248.144 35.9262 250.701 29.0082 255.814 24.3422C260.927 19.6439 268.5 17.2947 278.534 17.2947C288.567 17.2947 296.14 19.6439 301.253 24.3422C306.366 29.0406 308.923 35.991 308.923 45.1933V58.5108C308.923 67.7779 306.366 74.7769 301.253 79.5077C296.14 84.2384 288.567 86.6038 278.534 86.6038C268.532 86.6038 260.975 84.2384 255.862 79.5077C250.781 74.7769 248.208 67.7779 248.144 58.5108V45.0961ZM277.183 62.2533C277.183 63.1929 277.633 63.6628 278.534 63.6628C279.434 63.6628 279.884 63.1929 279.884 62.2533V41.4022C279.884 40.4625 279.434 39.9927 278.534 39.9927C277.633 39.9927 277.183 40.4625 277.183 41.4022V62.2533Z" fill="white"/>
<path d="M311.045 18.8986H339.168C345.953 18.8986 351.34 19.4008 355.327 20.4053C359.315 21.4098 362.209 23.0137 364.01 25.2171C365.843 27.4205 366.759 30.3853 366.759 34.1116V40.4301C366.759 43.3464 366.277 45.7766 365.312 47.7207C364.347 49.6649 362.724 51.0906 360.44 51.9979C362.788 52.9051 364.557 54.3632 365.746 56.3722C366.936 58.3812 367.531 60.7628 367.531 63.517V69.7869C367.531 73.5132 366.615 76.478 364.782 78.6814C362.981 80.8848 360.087 82.4887 356.099 83.4932C352.111 84.4977 346.725 84.9999 339.939 84.9999H311.045V18.8986ZM338.637 45.5335C339.345 45.5335 339.827 45.3553 340.084 44.9989C340.374 44.6425 340.518 43.9782 340.518 43.0061V37.1251C340.518 36.1206 340.406 35.4563 340.181 35.1323C339.956 34.7759 339.457 34.5977 338.685 34.5977H337.721V45.5335H338.637ZM338.685 69.3008C339.457 69.3008 339.956 69.1388 340.181 68.8148C340.406 68.4584 340.518 67.7779 340.518 66.7734V60.8924C340.518 59.9203 340.374 59.256 340.084 58.8996C339.827 58.5432 339.345 58.365 338.637 58.365H337.721V69.3008H338.685Z" fill="white"/>
<path d="M369.798 18.8986H397.921V84.9999H369.798V18.8986Z" fill="white"/>
<path d="M400.477 18.8986H428.599V65.4125H440.418V84.9999H400.477V18.8986Z" fill="white"/>
<path d="M442.54 18.8986H485.857V37.2709H471V45.728H482.818V58.8024H471V67.1623H486.195V84.9999H442.54V18.8986Z" fill="white"/>
<path d="M14.9647 99.9375H37.4523C45.163 99.9375 50.9903 101.682 54.9342 105.171C58.878 108.634 60.85 113.766 60.85 120.567V130.806C60.85 137.632 58.878 142.789 54.9342 146.278C51.0156 149.767 45.2136 151.511 37.5281 151.511H14.9647V99.9375ZM37.073 134.446C37.5281 134.446 37.8441 134.358 38.0211 134.181C38.2233 134.004 38.3497 133.688 38.4003 133.233C38.4509 132.778 38.4761 132.007 38.4761 130.919V120.719C38.4761 119.606 38.4509 118.822 38.4003 118.367C38.3497 117.887 38.2233 117.558 38.0211 117.381C37.8441 117.179 37.5281 117.078 37.073 117.078H36.2767V134.446H37.073Z" fill="white"/>
<path d="M62.5185 99.9375H96.5722V114.272H84.8923V120.87H94.1831V131.071H84.8923V137.594H96.8377V151.511H62.5185V99.9375Z" fill="white"/>
<path d="M97.3306 99.9375H119.401L120.728 130.957H121.411L122.776 99.9375H144.809L132.598 151.511H109.541L97.3306 99.9375Z" fill="white"/>
<path d="M145.567 99.9375H179.621V114.272H167.941V120.87H177.232V131.071H167.941V137.594H179.886V151.511H145.567V99.9375Z" fill="white"/>
<path d="M181.517 99.9375H203.625V136.229H212.916V151.511H181.517V99.9375Z" fill="white"/>
<path d="M214.281 120.377C214.281 113.223 216.291 107.825 220.311 104.185C224.33 100.519 230.284 98.686 238.172 98.686C246.06 98.686 252.013 100.519 256.033 104.185C260.053 107.85 262.063 113.273 262.063 120.453V130.844C262.063 138.074 260.053 143.535 256.033 147.226C252.013 150.917 246.06 152.762 238.172 152.762C230.309 152.762 224.368 150.917 220.349 147.226C216.354 143.535 214.332 138.074 214.281 130.844V120.377ZM237.11 133.764C237.11 134.497 237.464 134.863 238.172 134.863C238.88 134.863 239.234 134.497 239.234 133.764V117.495C239.234 116.762 238.88 116.395 238.172 116.395C237.464 116.395 237.11 116.762 237.11 117.495V133.764Z" fill="white"/>
<path d="M263.731 99.9375H284.891C289.897 99.9375 294.005 100.342 297.216 101.151C300.452 101.935 302.993 103.489 304.838 105.815C306.684 108.116 307.607 111.466 307.607 115.865V123.752C307.556 127.924 306.608 131.147 304.762 133.422C302.942 135.698 300.528 137.24 297.519 138.049C294.511 138.832 290.833 139.224 286.484 139.224H285.839V151.511H263.731V99.9375ZM285.574 126.255C286.08 126.255 286.421 126.129 286.598 125.876C286.8 125.598 286.901 125.092 286.901 124.359V116.509C286.901 115.726 286.813 115.207 286.636 114.954C286.459 114.676 286.067 114.537 285.46 114.537H284.702V126.255H285.574Z" fill="white"/>
<path d="M309.237 99.9375H336.124L337.678 126.786H338.589L340.181 99.9375H367.068V151.511H348.41L351.444 124.283H350.42L345.907 151.511H330.398L325.809 124.283H324.823L327.895 151.511H309.237V99.9375Z" fill="white"/>
<path d="M369.078 99.9375H403.131V114.272H391.451V120.87H400.742V131.071H391.451V137.594H403.397V151.511H369.078V99.9375Z" fill="white"/>
<path d="M405.027 99.9375H428.198L429.335 105.664L432.331 123.108L433.355 123.032L430.738 99.9375H449.585V151.511H426.377L425.278 146.05L421.561 124.359L420.575 124.321L423.685 151.511H405.027V99.9375Z" fill="white"/>
<path d="M458.042 115.675H450.989V99.9375H487.014V115.675H480.037V151.511H458.042V115.675Z" fill="white"/>
</svg>
