<svg width="503" height="170" viewBox="0 0 503 170" fill="none" xmlns="http://www.w3.org/2000/svg">
<path d="M0 19.1519C0 8.65846 8.50659 0.151855 19 0.151855H483.917C494.41 0.151855 502.917 8.65845 502.917 19.1519V151C502.917 161.493 494.41 170 483.917 170H19C8.50656 170 0 161.494 0 151V19.1519Z" fill="#1929FE"/>
<path d="M15.3154 17.8503H42.4364C48.8521 17.8503 54.1175 18.3687 58.2327 19.4056C62.3802 20.4101 65.6366 22.4028 68.002 25.3839C70.3674 28.3325 71.5501 32.6259 71.5501 38.2639V48.3735C71.4853 53.7199 70.2702 57.8513 67.9048 60.7675C65.5718 63.6837 62.4774 65.6603 58.6215 66.6972C54.7656 67.7017 50.051 68.2039 44.4778 68.2039H43.6515V83.9516H15.3154V17.8503ZM43.3113 51.5814C43.9593 51.5814 44.3968 51.4194 44.6236 51.0953C44.8828 50.7389 45.0124 50.0909 45.0124 49.1512V39.0902C45.0124 38.0857 44.899 37.4214 44.6722 37.0974C44.4454 36.741 43.9431 36.5628 43.1655 36.5628H42.1934V51.5814H43.3113Z" fill="white"/>
<path d="M103.386 83.9516L102.365 63.6351H100.469V83.9516H73.6401V17.8503H100.761C107.177 17.8503 112.442 18.3687 116.557 19.4056C120.705 20.4101 123.961 22.4028 126.327 25.3839C128.692 28.3325 129.875 32.6259 129.875 38.2639V45.8461C129.875 51.4842 128.19 55.7289 124.82 58.5803L130.069 83.9516H103.386ZM101.636 49.1026C102.284 49.1026 102.721 48.9406 102.948 48.6165C103.207 48.2601 103.337 47.5959 103.337 46.6238V39.0902C103.337 38.0857 103.224 37.4214 102.997 37.0974C102.77 36.741 102.268 36.5628 101.49 36.5628H100.518V49.1026H101.636Z" fill="white"/>
<path d="M131.77 44.0478C131.77 34.8778 134.346 27.9599 139.498 23.2939C144.65 18.5955 152.281 16.2464 162.391 16.2464C172.5 16.2464 180.131 18.5955 185.283 23.2939C190.435 27.9923 193.011 34.9426 193.011 44.145V57.4624C193.011 66.7296 190.435 73.7285 185.283 78.4593C180.131 83.1901 172.5 85.5555 162.391 85.5555C152.314 85.5555 144.699 83.1901 139.547 78.4593C134.427 73.7285 131.835 66.7296 131.77 57.4624V44.0478ZM161.03 61.2049C161.03 62.1446 161.484 62.6145 162.391 62.6145C163.298 62.6145 163.752 62.1446 163.752 61.2049V40.3539C163.752 39.4142 163.298 38.9444 162.391 38.9444C161.484 38.9444 161.03 39.4142 161.03 40.3539V61.2049Z" fill="white"/>
<path d="M195.15 17.8503H223.972C233.855 17.8503 241.324 20.0861 246.378 24.5576C251.433 28.9968 253.961 35.5745 253.961 44.2908V57.4138C253.961 66.1625 251.433 72.7727 246.378 77.2442C241.356 81.7158 233.92 83.9516 224.069 83.9516H195.15V17.8503ZM223.486 62.0798C224.069 62.0798 224.474 61.9664 224.701 61.7396C224.96 61.5128 225.122 61.1077 225.187 60.5245C225.252 59.9412 225.284 58.953 225.284 57.5597V44.4852C225.284 43.0595 225.252 42.055 225.187 41.4718C225.122 40.8561 224.96 40.4349 224.701 40.2081C224.474 39.9488 224.069 39.8192 223.486 39.8192H222.465V62.0798H223.486Z" fill="white"/>
<path d="M285.067 85.8957C275.476 85.8957 268.218 84.227 263.292 80.8895C258.4 77.5196 255.953 72.5459 255.953 65.9681V17.8503H283.755V62.42C283.755 64.4614 284.208 65.4821 285.116 65.4821C286.023 65.4821 286.477 64.4776 286.477 62.4686V17.8503H314.132V65.9681C314.132 72.5459 311.686 77.5196 306.793 80.8895C301.9 84.227 294.658 85.8957 285.067 85.8957Z" fill="white"/>
<path d="M346.745 85.5555C336.668 85.5555 329.054 83.1901 323.901 78.4593C318.749 73.7285 316.173 66.7296 316.173 57.4624V44.145C316.173 34.9426 318.749 27.9923 323.901 23.2939C329.054 18.5955 336.668 16.2464 346.745 16.2464C356.628 16.2464 364.146 18.5145 369.298 23.0509C374.45 27.5549 377.139 34.2298 377.366 43.0757V49.3942L348.106 49.4428V40.3539C348.106 39.4142 347.636 38.9444 346.697 38.9444C345.757 38.9444 345.287 39.4142 345.287 40.3539V61.2049C345.287 62.1446 345.757 62.6145 346.697 62.6145C347.636 62.6145 348.106 62.1446 348.106 61.2049V52.359H377.366V58.6289C377.107 67.5072 374.385 74.2146 369.2 78.7509C364.048 83.2873 356.563 85.5555 346.745 85.5555Z" fill="white"/>
<path d="M387.33 38.0209H378.289V17.8503H424.463V38.0209H415.52V83.9516H387.33V38.0209Z" fill="white"/>
<path d="M244.986 100.014H267.474C275.184 100.014 281.012 101.758 284.955 105.247C288.899 108.71 290.871 113.842 290.871 120.643V130.882C290.871 137.708 288.899 142.865 284.955 146.354C281.037 149.843 275.235 151.587 267.549 151.587H244.986V100.014ZM267.094 134.522C267.549 134.522 267.865 134.434 268.042 134.257C268.245 134.08 268.371 133.764 268.422 133.309C268.472 132.854 268.497 132.083 268.497 130.996V120.795C268.497 119.682 268.472 118.899 268.422 118.443C268.371 117.963 268.245 117.634 268.042 117.458C267.865 117.255 267.549 117.154 267.094 117.154H266.298V134.522H267.094Z" fill="white"/>
<path d="M292.54 100.014H326.594V114.348H314.914V120.946H324.204V131.147H314.914V137.67H326.859V151.587H292.54V100.014Z" fill="white"/>
<path d="M350.37 152.914C335.758 152.914 328.426 147.921 328.376 137.935V134.484H348.095V138.163C348.095 138.441 348.171 138.694 348.323 138.921C348.5 139.149 348.79 139.262 349.195 139.262C349.549 139.262 349.814 139.149 349.991 138.921C350.193 138.694 350.295 138.441 350.295 138.163C350.295 137.657 350.231 137.164 350.105 136.684C349.979 136.178 349.789 135.761 349.536 135.432C348.98 134.725 348.196 134.105 347.185 133.574C346.199 133.043 344.745 132.361 342.824 131.526C339.917 130.288 337.502 129.087 335.581 127.924C333.66 126.736 332.004 125.055 330.613 122.88C329.223 120.706 328.527 117.938 328.527 114.575V113.855C328.679 108.495 330.424 104.64 333.761 102.289C337.098 99.9377 342.028 98.7621 348.55 98.7621C353.278 98.7621 357.196 99.3815 360.306 100.62C363.441 101.859 365.767 103.603 367.284 105.853C368.8 108.078 369.571 110.695 369.597 113.703V116.282H350.636V113.438C350.636 113.16 350.535 112.92 350.332 112.717C350.13 112.515 349.865 112.414 349.536 112.414C349.207 112.414 348.942 112.528 348.74 112.755C348.538 112.957 348.436 113.21 348.436 113.514C348.436 113.868 348.525 114.272 348.702 114.727C348.904 115.157 349.144 115.486 349.422 115.713C349.877 116.143 350.509 116.547 351.318 116.927C352.127 117.281 353.215 117.698 354.58 118.178C357.689 119.341 360.306 120.554 362.43 121.819C364.553 123.057 366.411 125.004 368.004 127.658C369.622 130.313 370.431 133.827 370.431 138.201V139.111C370.33 142.145 369.42 144.698 367.701 146.771C365.982 148.844 363.63 150.386 360.647 151.397C357.689 152.409 354.264 152.914 350.37 152.914Z" fill="white"/>
<path d="M372.327 100.014H394.435V151.587H372.327V100.014Z" fill="white"/>
<path d="M419.995 152.838C412.132 152.838 406.191 151.031 402.171 147.416C398.152 143.775 396.142 138.403 396.142 131.299V120.34C396.142 113.21 398.152 107.838 402.171 104.223C406.191 100.582 412.132 98.7621 419.995 98.7621C427.705 98.7621 433.533 100.279 437.477 103.313C441.42 106.346 443.418 110.847 443.468 116.813V121.591L421.056 121.515V115.22C421.056 114.487 420.69 114.12 419.957 114.12C419.224 114.12 418.857 114.487 418.857 115.22V138.883C418.857 139.616 419.236 139.983 419.995 139.983C420.399 139.983 420.804 139.882 421.208 139.68V133.233H420.108L420.146 123.297H443.582V148.06C440.649 149.628 437.186 150.816 433.191 151.625C429.222 152.434 424.823 152.838 419.995 152.838Z" fill="white"/>
<path d="M445.44 100.014H468.61L469.748 105.74L472.744 123.184L473.768 123.108L471.151 100.014H489.998V151.587H466.79L465.69 146.126L461.974 124.435L460.988 124.397L464.098 151.587H445.44V100.014Z" fill="white"/>
</svg>
