<svg width="527" height="146" viewBox="0 0 527 146" fill="none" xmlns="http://www.w3.org/2000/svg">
<path d="M2.76639 2.73155H51.7508V23.3738H34.5489V33.4765H48.365V53.7365H34.5489V76.9454L2.76639 77V2.73155Z" fill="black"/>
<path d="M86.8645 79.1844C76.0883 79.1844 67.9333 77.3095 62.3996 73.5596C56.9023 69.7734 54.1536 64.1851 54.1536 56.7946V2.73155H85.3901V52.8082C85.3901 55.1017 85.8997 56.2485 86.9191 56.2485C87.9385 56.2485 88.4482 55.1199 88.4482 52.8628V2.73155H119.521V56.7946C119.521 64.1851 116.772 69.7734 111.275 73.5596C105.777 77.3095 97.6407 79.1844 86.8645 79.1844Z" fill="black"/>
<path d="M122.251 2.73155H154.088V54.9925H167.468V77H122.251V2.73155Z" fill="black"/>
<path d="M169.87 2.73155H201.708V54.9925H215.087V77H169.87V2.73155Z" fill="black"/>
<path d="M248.999 78.9113C227.956 78.9113 217.399 71.7211 217.326 57.3407V52.3713H245.723V57.6684C245.723 58.0688 245.832 58.4329 246.05 58.7605C246.305 59.0882 246.724 59.252 247.306 59.252C247.816 59.252 248.198 59.0882 248.453 58.7605C248.744 58.4329 248.89 58.0688 248.89 57.6684C248.89 56.9402 248.799 56.2303 248.617 55.5386C248.435 54.8105 248.162 54.2098 247.798 53.7365C246.997 52.7171 245.868 51.8252 244.412 51.0607C242.992 50.2961 240.899 49.3132 238.132 48.1118C233.945 46.3279 230.468 44.5986 227.702 42.9239C224.935 41.2128 222.55 38.7918 220.548 35.6609C218.545 32.5299 217.544 28.5435 217.544 23.7015V22.6639C217.763 14.9458 220.275 9.39386 225.08 6.0081C229.886 2.62233 236.985 0.929443 246.378 0.929443C253.186 0.929443 258.829 1.82139 263.307 3.60529C267.821 5.38919 271.17 7.90121 273.355 11.1414C275.539 14.3451 276.65 18.1131 276.686 22.4455V26.1589H249.381V22.0632C249.381 21.6627 249.236 21.3169 248.945 21.0256C248.653 20.7344 248.271 20.5887 247.798 20.5887C247.324 20.5887 246.942 20.7526 246.651 21.0802C246.36 21.3715 246.214 21.7355 246.214 22.1724C246.214 22.6821 246.341 23.2646 246.596 23.9199C246.888 24.5388 247.233 25.0121 247.634 25.3397C248.289 25.9586 249.199 26.5411 250.364 27.0872C251.529 27.5969 253.095 28.1976 255.061 28.8893C259.539 30.564 263.307 32.3115 266.365 34.1318C269.423 35.9157 272.099 38.719 274.392 42.5416C276.722 46.3643 277.887 51.4247 277.887 57.723V59.0336C277.742 63.4023 276.431 67.0793 273.956 70.0646C271.48 73.0499 268.094 75.2707 263.798 76.727C259.539 78.1832 254.606 78.9113 248.999 78.9113Z" fill="black"/>
<path d="M288.482 25.3943H278.324V2.73155H330.203V25.3943H320.155V77H288.482V25.3943Z" fill="black"/>
<path d="M358.272 70.72H353.903L353.685 77H321.902L339.487 2.73155H372.634L390.273 77H358.545L358.272 70.72ZM357.453 54.3372L356.415 32.3297H355.432L354.559 54.3372H357.453Z" fill="black"/>
<path d="M420.253 78.8021C408.931 78.8021 400.376 76.1445 394.587 70.8292C388.799 65.5139 385.904 57.6502 385.904 47.238V32.2751C385.904 21.9358 388.799 14.1267 394.587 8.84777C400.376 3.56889 408.931 0.929443 420.253 0.929443C431.357 0.929443 439.804 3.47787 445.592 8.57473C451.381 13.6352 454.402 21.1348 454.657 31.0737V38.1729L421.783 38.2275V28.0156C421.783 26.9598 421.255 26.4319 420.199 26.4319C419.143 26.4319 418.615 26.9598 418.615 28.0156V51.4429C418.615 52.4987 419.143 53.0266 420.199 53.0266C421.255 53.0266 421.783 52.4987 421.783 51.4429V41.5041H454.657V48.5486C454.366 58.5239 451.308 66.06 445.483 71.1568C439.694 76.2537 431.285 78.8021 420.253 78.8021Z" fill="black"/>
<path d="M457.115 2.73155H488.952L488.351 30.2546H489.552L492.228 2.73155H525.758L517.895 39.8658L526.031 77H492.283L489.552 50.5146L488.406 50.46L488.952 77H457.115V2.73155Z" fill="black"/>
<path d="M0.222473 86.5462H25.1157C33.6513 86.5462 40.102 88.4773 44.4678 92.3393C48.8335 96.1733 51.0164 101.854 51.0164 109.383V120.717C51.0164 128.273 48.8335 133.982 44.4678 137.844C40.13 141.706 33.7073 143.637 25.1997 143.637H0.222473V86.5462ZM24.6959 124.747C25.1997 124.747 25.5495 124.649 25.7454 124.453C25.9693 124.257 26.1092 123.907 26.1652 123.403C26.2211 122.9 26.2491 122.046 26.2491 120.843V109.55C26.2491 108.319 26.2211 107.452 26.1652 106.948C26.1092 106.416 25.9693 106.052 25.7454 105.856C25.5495 105.632 25.1997 105.521 24.6959 105.521H23.8144V124.747H24.6959Z" fill="black"/>
<path d="M52.8635 86.5462H90.5602V102.414H77.6308V109.718H87.9155V121.011H77.6308V128.231H90.854V143.637H52.8635V86.5462Z" fill="black"/>
<path d="M91.3997 86.5462H115.831L117.3 120.885H118.056L119.567 86.5462H143.957L130.44 143.637H104.917L91.3997 86.5462Z" fill="black"/>
<path d="M144.796 86.5462H182.493V102.414H169.564V109.718H179.848V121.011H169.564V128.231H182.787V143.637H144.796V86.5462Z" fill="black"/>
<path d="M184.592 86.5462H209.065V126.72H219.35V143.637H184.592V86.5462Z" fill="black"/>
<path d="M220.861 109.173C220.861 101.253 223.086 95.2778 227.536 91.2478C231.986 87.1899 238.576 85.161 247.308 85.161C256.039 85.161 262.63 87.1899 267.08 91.2478C271.529 95.3058 273.754 101.309 273.754 109.257V120.759C273.754 128.763 271.529 134.807 267.08 138.893C262.63 142.979 256.039 145.022 247.308 145.022C238.604 145.022 232.028 142.979 227.578 138.893C223.156 134.807 220.917 128.763 220.861 120.759V109.173ZM246.132 123.991C246.132 124.803 246.524 125.208 247.308 125.208C248.091 125.208 248.483 124.803 248.483 123.991V105.982C248.483 105.171 248.091 104.765 247.308 104.765C246.524 104.765 246.132 105.171 246.132 105.982V123.991Z" fill="black"/>
<path d="M275.601 86.5462H299.025C304.566 86.5462 309.114 86.994 312.668 87.8896C316.25 88.7571 319.063 90.4782 321.106 93.0529C323.149 95.5996 324.17 99.3077 324.17 104.177V112.909C324.114 117.526 323.065 121.095 321.022 123.613C319.007 126.132 316.334 127.839 313.004 128.735C309.674 129.602 305.602 130.036 300.788 130.036H300.075V143.637H275.601V86.5462ZM299.781 115.679C300.341 115.679 300.718 115.539 300.914 115.26C301.138 114.952 301.25 114.392 301.25 113.58V104.891C301.25 104.023 301.152 103.45 300.956 103.17C300.76 102.862 300.327 102.708 299.655 102.708H298.815V115.679H299.781Z" fill="black"/>
<path d="M325.975 86.5462H355.738L357.459 116.267H358.467L360.23 86.5462H389.993V143.637H369.339L372.697 113.496H371.564L366.569 143.637H349.399L344.32 113.496H343.229L346.629 143.637H325.975V86.5462Z" fill="black"/>
<path d="M392.217 86.5462H429.914V102.414H416.985V109.718H427.269V121.011H416.985V128.231H430.208V143.637H392.217V86.5462Z" fill="black"/>
<path d="M432.013 86.5462H457.662L458.921 92.885L462.238 112.195L463.371 112.111L460.474 86.5462H481.338V143.637H455.647L454.43 137.592L450.316 113.58L449.224 113.538L452.667 143.637H432.013V86.5462Z" fill="black"/>
<path d="M490.699 103.967H482.891V86.5462H522.771V103.967H515.047V143.637H490.699V103.967Z" fill="black"/>
</svg>
