<svg width="523" height="146" viewBox="0 0 523 146" fill="none" xmlns="http://www.w3.org/2000/svg">
<path d="M83.9959 2.73155H122.714L124.953 41.3948H126.263L128.557 2.73155H167.275V77H140.407L144.776 37.7906H143.301L136.803 77H114.468L107.86 37.7906H106.44L110.864 77H83.9959V2.73155Z" fill="black"/>
<path d="M169.732 32.1659C169.732 21.863 172.627 14.0903 178.415 8.84777C184.204 3.56889 192.777 0.929443 204.136 0.929443C215.495 0.929443 224.068 3.56889 229.857 8.84777C235.646 14.1267 238.54 21.9358 238.54 32.2751V47.238C238.54 57.6502 235.646 65.5139 229.857 70.8292C224.068 76.1445 215.495 78.8021 204.136 78.8021C192.814 78.8021 184.258 76.1445 178.47 70.8292C172.718 65.5139 169.805 57.6502 169.732 47.238V32.1659ZM202.607 51.4429C202.607 52.4987 203.117 53.0266 204.136 53.0266C205.155 53.0266 205.665 52.4987 205.665 51.4429V28.0156C205.665 26.9598 205.155 26.4319 204.136 26.4319C203.117 26.4319 202.607 26.9598 202.607 28.0156V51.4429Z" fill="black"/>
<path d="M240.943 2.73155H272.78C280.461 2.73155 286.56 3.29584 291.074 4.42443C295.588 5.55302 298.865 7.35512 300.904 9.83074C302.979 12.3064 304.016 15.6375 304.016 19.8242V26.9234C304.016 30.2 303.47 32.9304 302.378 35.1148C301.286 37.2991 299.447 38.901 296.862 39.9204C299.52 40.9398 301.522 42.578 302.869 44.8352C304.216 47.0924 304.89 49.7682 304.89 52.8628V59.9073C304.89 64.094 303.852 67.4252 301.777 69.9008C299.739 72.3764 296.462 74.1785 291.948 75.3071C287.433 76.4357 281.335 77 273.654 77H240.943V2.73155ZM272.179 32.6574C272.98 32.6574 273.526 32.4571 273.817 32.0567C274.145 31.6562 274.309 30.9099 274.309 29.8177V23.21C274.309 22.0814 274.181 21.3351 273.927 20.971C273.672 20.5705 273.107 20.3703 272.234 20.3703H271.142V32.6574H272.179ZM272.234 59.3612C273.107 59.3612 273.672 59.1792 273.927 58.8152C274.181 58.4147 274.309 57.6502 274.309 56.5216V49.9139C274.309 48.8217 274.145 48.0754 273.817 47.6749C273.526 47.2744 272.98 47.0742 272.179 47.0742H271.142V59.3612H272.234Z" fill="black"/>
<path d="M307.457 2.73155H339.294V77H307.457V2.73155Z" fill="black"/>
<path d="M342.188 2.73155H374.025V54.9925H387.404V77H342.188V2.73155Z" fill="black"/>
<path d="M389.807 2.73155H438.846V23.3738H422.027V32.8758H435.406V47.5657H422.027V56.9584H439.228V77H389.807V2.73155Z" fill="black"/>
<path d="M0.222412 86.5462H25.1156C33.6513 86.5462 40.102 88.4773 44.4677 92.3393C48.8335 96.1733 51.0164 101.854 51.0164 109.383V120.717C51.0164 128.273 48.8335 133.982 44.4677 137.844C40.1299 141.706 33.7072 143.637 25.1996 143.637H0.222412V86.5462ZM24.6959 124.747C25.1996 124.747 25.5494 124.649 25.7453 124.453C25.9692 124.257 26.1091 123.907 26.1651 123.403C26.2211 122.9 26.2491 122.046 26.2491 120.843V109.55C26.2491 108.319 26.2211 107.452 26.1651 106.948C26.1091 106.416 25.9692 106.052 25.7453 105.856C25.5494 105.632 25.1996 105.521 24.6959 105.521H23.8143V124.747H24.6959Z" fill="black"/>
<path d="M52.8634 86.5462H90.5601V102.414H77.6307V109.718H87.9155V121.011H77.6307V128.231H90.854V143.637H52.8634V86.5462Z" fill="black"/>
<path d="M91.3997 86.5462H115.831L117.3 120.885H118.056L119.567 86.5462H143.957L130.44 143.637H104.917L91.3997 86.5462Z" fill="black"/>
<path d="M144.796 86.5462H182.493V102.414H169.564V109.718H179.848V121.011H169.564V128.231H182.787V143.637H144.796V86.5462Z" fill="black"/>
<path d="M184.592 86.5462H209.065V126.72H219.35V143.637H184.592V86.5462Z" fill="black"/>
<path d="M220.861 109.173C220.861 101.253 223.086 95.2778 227.536 91.2478C231.986 87.1899 238.576 85.161 247.308 85.161C256.039 85.161 262.63 87.1899 267.08 91.2478C271.529 95.3058 273.754 101.309 273.754 109.257V120.759C273.754 128.763 271.529 134.807 267.08 138.893C262.63 142.979 256.039 145.022 247.308 145.022C238.604 145.022 232.028 142.979 227.578 138.893C223.156 134.807 220.917 128.763 220.861 120.759V109.173ZM246.132 123.991C246.132 124.803 246.524 125.208 247.308 125.208C248.091 125.208 248.483 124.803 248.483 123.991V105.982C248.483 105.171 248.091 104.765 247.308 104.765C246.524 104.765 246.132 105.171 246.132 105.982V123.991Z" fill="black"/>
<path d="M275.601 86.5462H299.025C304.566 86.5462 309.114 86.994 312.668 87.8896C316.25 88.7571 319.063 90.4782 321.106 93.0529C323.149 95.5996 324.17 99.3077 324.17 104.177V112.909C324.114 117.526 323.065 121.095 321.022 123.613C319.007 126.132 316.334 127.839 313.004 128.735C309.674 129.602 305.602 130.036 300.788 130.036H300.075V143.637H275.601V86.5462ZM299.781 115.679C300.34 115.679 300.718 115.539 300.914 115.26C301.138 114.952 301.25 114.392 301.25 113.58V104.891C301.25 104.023 301.152 103.45 300.956 103.17C300.76 102.862 300.327 102.708 299.655 102.708H298.815V115.679H299.781Z" fill="black"/>
<path d="M325.975 86.5462H355.738L357.459 116.267H358.467L360.23 86.5462H389.993V143.637H369.339L372.697 113.496H371.564L366.569 143.637H349.399L344.32 113.496H343.229L346.629 143.637H325.975V86.5462Z" fill="black"/>
<path d="M392.217 86.5462H429.914V102.414H416.985V109.718H427.269V121.011H416.985V128.231H430.208V143.637H392.217V86.5462Z" fill="black"/>
<path d="M432.013 86.5462H457.662L458.921 92.885L462.238 112.195L463.371 112.111L460.474 86.5462H481.338V143.637H455.647L454.43 137.592L450.316 113.58L449.224 113.538L452.666 143.637H432.013V86.5462Z" fill="black"/>
<path d="M490.699 103.967H482.891V86.5462H522.771V103.967H515.046V143.637H490.699V103.967Z" fill="black"/>
</svg>
