<svg width="461" height="190" viewBox="0 0 461 190" fill="none" xmlns="http://www.w3.org/2000/svg">
<path d="M0.953369 2.73155H31.4253C38.6337 2.73155 44.5497 3.31404 49.1733 4.47904C53.8332 5.60763 57.4921 7.8466 60.1497 11.196C62.8073 14.5089 64.1362 19.3327 64.1362 25.6674V37.0261C64.0634 43.0331 62.6981 47.6749 60.0405 50.9514C57.4192 54.228 53.9425 56.4488 49.6101 57.6138C45.2778 58.7423 39.9807 59.3066 33.7189 59.3066H32.7905V77H0.953369V2.73155ZM32.4082 40.6303C33.1364 40.6303 33.6279 40.4483 33.8827 40.0842C34.1739 39.6837 34.3196 38.9556 34.3196 37.8998V26.5958C34.3196 25.4672 34.1921 24.7208 33.9373 24.3568C33.6825 23.9563 33.1182 23.7561 32.2444 23.7561H31.1522V40.6303H32.4082Z" fill="black"/>
<path d="M99.9052 77L98.7584 54.1734H96.6286V77H66.4844V2.73155H96.9563C104.165 2.73155 110.081 3.31404 114.704 4.47904C119.364 5.60763 123.023 7.8466 125.681 11.196C128.338 14.5089 129.667 19.3327 129.667 25.6674V34.1864C129.667 40.5211 127.774 45.2903 123.988 48.494L129.886 77H99.9052ZM97.9393 37.8452C98.6674 37.8452 99.1589 37.6632 99.4137 37.2991C99.705 36.8987 99.8506 36.1524 99.8506 35.0602V26.5958C99.8506 25.4672 99.7232 24.7208 99.4683 24.3568C99.2135 23.9563 98.6492 23.7561 97.7754 23.7561H96.6832V37.8452H97.9393Z" fill="black"/>
<path d="M131.797 32.1659C131.797 21.863 134.691 14.0903 140.48 8.84777C146.268 3.56889 154.842 0.929443 166.201 0.929443C177.559 0.929443 186.133 3.56889 191.922 8.84777C197.71 14.1267 200.604 21.9358 200.604 32.2751V47.238C200.604 57.6502 197.71 65.5139 191.922 70.8292C186.133 76.1445 177.559 78.8021 166.201 78.8021C154.878 78.8021 146.323 76.1445 140.534 70.8292C134.782 65.5139 131.87 57.6502 131.797 47.238V32.1659ZM164.672 51.4429C164.672 52.4987 165.181 53.0266 166.201 53.0266C167.22 53.0266 167.73 52.4987 167.73 51.4429V28.0156C167.73 26.9598 167.22 26.4319 166.201 26.4319C165.181 26.4319 164.672 26.9598 164.672 28.0156V51.4429Z" fill="black"/>
<path d="M203.007 2.73155H235.391C246.494 2.73155 254.886 5.24357 260.565 10.2676C266.245 15.2552 269.084 22.6457 269.084 32.4389V47.1834C269.084 57.0131 266.245 64.4399 260.565 69.4639C254.922 74.488 246.567 77 235.5 77H203.007V2.73155ZM234.844 52.4259C235.5 52.4259 235.955 52.2985 236.21 52.0436C236.501 51.7888 236.683 51.3337 236.756 50.6784C236.829 50.0231 236.865 48.9127 236.865 47.3472V32.6574C236.865 31.0555 236.829 29.9269 236.756 29.2716C236.683 28.5799 236.501 28.1066 236.21 27.8518C235.955 27.5605 235.5 27.4149 234.844 27.4149H233.698V52.4259H234.844Z" fill="black"/>
<path d="M304.034 79.1844C293.258 79.1844 285.103 77.3095 279.569 73.5596C274.072 69.7734 271.323 64.1851 271.323 56.7946V2.73155H302.56V52.8082C302.56 55.1017 303.069 56.2485 304.089 56.2485C305.108 56.2485 305.618 55.1199 305.618 52.8628V2.73155H336.691V56.7946C336.691 64.1851 333.942 69.7734 328.445 73.5596C322.947 77.3095 314.81 79.1844 304.034 79.1844Z" fill="black"/>
<path d="M373.333 78.8021C362.011 78.8021 353.456 76.1445 347.667 70.8292C341.878 65.5139 338.984 57.6502 338.984 47.238V32.2751C338.984 21.9358 341.878 14.1267 347.667 8.84777C353.456 3.56889 362.011 0.929443 373.333 0.929443C384.437 0.929443 392.883 3.47787 398.672 8.57473C404.46 13.6352 407.482 21.1348 407.737 31.0737V38.1729L374.862 38.2275V28.0156C374.862 26.9598 374.334 26.4319 373.279 26.4319C372.223 26.4319 371.695 26.9598 371.695 28.0156V51.4429C371.695 52.4987 372.223 53.0266 373.279 53.0266C374.334 53.0266 374.862 52.4987 374.862 51.4429V41.5041H407.737V48.5486C407.446 58.5239 404.388 66.06 398.563 71.1568C392.774 76.2537 384.364 78.8021 373.333 78.8021Z" fill="black"/>
<path d="M418.932 25.3943H408.775V2.73155H460.653V25.3943H450.605V77H418.932V25.3943Z" fill="black"/>
<path d="M3.35981 91.7235H44.9032C59.1479 91.7235 69.9132 94.9461 77.1991 101.391C84.4849 107.79 88.1278 117.271 88.1278 129.834V148.749C88.1278 161.359 84.4849 170.887 77.1991 177.332C69.9599 183.777 59.2413 187 45.0433 187H3.35981V91.7235ZM44.2026 155.475C45.0433 155.475 45.6271 155.311 45.954 154.984C46.3276 154.657 46.5612 154.074 46.6546 153.233C46.748 152.392 46.7947 150.968 46.7947 148.959V130.114C46.7947 128.059 46.748 126.612 46.6546 125.771C46.5612 124.883 46.3276 124.276 45.954 123.949C45.6271 123.576 45.0433 123.389 44.2026 123.389H42.7314V155.475H44.2026Z" fill="black"/>
<path d="M91.2103 91.7235H154.121V118.205H132.544V130.395H149.707V149.24H132.544V161.289H154.611V187H91.2103V91.7235Z" fill="black"/>
<path d="M198.046 189.452C171.051 189.452 157.507 180.228 157.413 161.78V155.405H193.843V162.2C193.843 162.714 193.983 163.181 194.263 163.601C194.59 164.022 195.127 164.232 195.874 164.232C196.528 164.232 197.019 164.022 197.345 163.601C197.719 163.181 197.906 162.714 197.906 162.2C197.906 161.266 197.789 160.355 197.556 159.468C197.322 158.534 196.972 157.763 196.505 157.156C195.477 155.848 194.029 154.704 192.161 153.723C190.34 152.743 187.654 151.481 184.105 149.94C178.734 147.652 174.274 145.433 170.724 143.285C167.175 141.09 164.115 137.984 161.547 133.967C158.978 129.951 157.694 124.837 157.694 118.625V117.294C157.974 107.393 161.196 100.27 167.361 95.9269C173.526 91.5834 182.634 89.4117 194.683 89.4117C203.417 89.4117 210.656 90.5559 216.401 92.8444C222.192 95.1329 226.489 98.3555 229.291 102.512C232.093 106.622 233.518 111.456 233.565 117.014V121.778H198.536V116.523C198.536 116.01 198.35 115.566 197.976 115.192C197.602 114.819 197.112 114.632 196.505 114.632C195.898 114.632 195.407 114.842 195.034 115.262C194.66 115.636 194.473 116.103 194.473 116.664C194.473 117.317 194.637 118.065 194.964 118.905C195.337 119.699 195.781 120.306 196.295 120.727C197.135 121.521 198.303 122.268 199.797 122.969C201.292 123.622 203.3 124.393 205.822 125.28C211.567 127.429 216.401 129.671 220.324 132.006C224.247 134.294 227.68 137.891 230.622 142.795C233.611 147.698 235.106 154.19 235.106 162.27V163.952C234.919 169.556 233.238 174.273 230.062 178.103C226.886 181.933 222.542 184.782 217.031 186.65C211.567 188.518 205.238 189.452 198.046 189.452Z" fill="black"/>
<path d="M238.609 91.7235H279.451V187H238.609V91.7235Z" fill="black"/>
<path d="M326.669 189.312C312.144 189.312 301.169 185.973 293.743 179.294C286.317 172.568 282.604 162.644 282.604 149.52V129.274C282.604 116.103 286.317 106.178 293.743 99.4998C301.169 92.7744 312.144 89.4117 326.669 89.4117C340.914 89.4117 351.679 92.2139 358.965 97.8184C366.251 103.423 369.941 111.736 370.034 122.758V131.586L328.631 131.445V119.816C328.631 118.462 327.954 117.784 326.599 117.784C325.245 117.784 324.568 118.462 324.568 119.816V163.531C324.568 164.886 325.268 165.563 326.669 165.563C327.417 165.563 328.164 165.376 328.911 165.002V153.093H326.879L326.95 134.738H370.244V180.485C364.827 183.38 358.428 185.576 351.049 187.07C343.716 188.565 335.59 189.312 326.669 189.312Z" fill="black"/>
<path d="M373.677 91.7235H416.481L418.583 102.302L424.117 134.528L426.009 134.388L421.175 91.7235H455.993V187H413.119L411.087 176.912L404.222 136.84L402.4 136.77L408.145 187H373.677V91.7235Z" fill="black"/>
</svg>
